<svg xmlns="http://www.w3.org/2000/svg" xmlns:xlink="http://www.w3.org/1999/xlink" viewBox="0 0 424.32 299.77"><defs><style>.cls-1,.cls-10,.cls-11,.cls-12,.cls-13,.cls-31,.cls-32,.cls-7{isolation:isolate;fill:#002856;}.cls-1{font-size:19.67px;font-family:FuturaPT-Light, Futura PT;}.cls-1,.cls-7{font-weight:300;}.cls-2{letter-spacing:-0.03em;}.cls-3{letter-spacing:0em;}.cls-4{letter-spacing:-0.01em;}.cls-5{letter-spacing:-0.01em;}.cls-6{fill:url(#Degradado_sin_nombre_45);}.cls-31,.cls-32,.cls-7{font-size:9.02px;}.cls-7{font-family:FuturaPT-Demi, Futura PT;}.cls-8{letter-spacing:0em;}.cls-9{fill:url(#Degradado_sin_nombre_42);}.cls-10{font-size:8.43px;}.cls-10,.cls-12,.cls-13,.cls-31,.cls-32{font-family:FuturaPT-Book, Futura PT;}.cls-11{opacity:0.1;}.cls-12,.cls-13{font-size:14.83px;}.cls-13{letter-spacing:-0.07em;}.cls-14{fill:none;stroke:#002856;stroke-miterlimit:10;}.cls-15{fill:url(#Degradado_sin_nombre_42-2);}.cls-16{fill:url(#Degradado_sin_nombre_42-3);}.cls-17{fill:url(#Degradado_sin_nombre_42-4);}.cls-18{opacity:0.2;}.cls-19{fill:url(#Degradado_sin_nombre_47);}.cls-20{opacity:0.53;}.cls-21{fill:#818bd7;}.cls-22{opacity:0.35;}.cls-23{fill:url(#Degradado_sin_nombre_48);}.cls-24{fill:url(#Degradado_sin_nombre_45-2);}.cls-25{fill:url(#Degradado_sin_nombre_46);}.cls-26{fill:#6fb1c8;}.cls-27{fill:url(#Degradado_sin_nombre_47-2);}.cls-28{opacity:0.46;}.cls-29{fill:#abcfde;}.cls-30{fill:url(#Degradado_sin_nombre_48-2);}.cls-31{letter-spacing:-0.11em;}.cls-33{fill:url(#Degradado_sin_nombre_42-5);}.cls-34{fill:url(#Degradado_sin_nombre_42-6);}.cls-35{fill:url(#Degradado_sin_nombre_42-7);}.cls-36{fill:url(#Degradado_sin_nombre_47-3);}.cls-37{fill:url(#Degradado_sin_nombre_48-3);}.cls-38{fill:url(#Degradado_sin_nombre_45-3);}.cls-39{fill:url(#Degradado_sin_nombre_46-2);}.cls-40{fill:url(#Degradado_sin_nombre_47-4);}.cls-41{fill:url(#Degradado_sin_nombre_48-4);}.cls-42{letter-spacing:-0.01em;}.cls-43{fill:url(#Degradado_sin_nombre_42-8);}.cls-44{fill:url(#Degradado_sin_nombre_42-9);}.cls-45{fill:url(#Degradado_sin_nombre_42-10);}.cls-46{fill:url(#Degradado_sin_nombre_47-5);}.cls-47{fill:url(#Degradado_sin_nombre_48-5);}.cls-48{fill:url(#Degradado_sin_nombre_45-4);}.cls-49{fill:url(#Degradado_sin_nombre_46-3);}.cls-50{fill:url(#Degradado_sin_nombre_47-6);}.cls-51{fill:url(#Degradado_sin_nombre_48-6);}.cls-52{letter-spacing:0.02em;}.cls-53{fill:url(#Degradado_sin_nombre_47-7);}.cls-54{fill:url(#Degradado_sin_nombre_42-11);}.cls-55{fill:url(#Degradado_sin_nombre_42-12);}.cls-56{fill:url(#Degradado_sin_nombre_42-13);}.cls-57{fill:url(#Degradado_sin_nombre_47-8);}.cls-58{fill:url(#Degradado_sin_nombre_48-7);}.cls-59{fill:url(#Degradado_sin_nombre_45-5);}.cls-60{fill:url(#Degradado_sin_nombre_46-4);}.cls-61{fill:url(#Degradado_sin_nombre_47-9);}.cls-62{fill:url(#Degradado_sin_nombre_48-8);}.cls-63{fill:url(#Degradado_sin_nombre_42-14);}.cls-64{fill:url(#Degradado_sin_nombre_42-15);}.cls-65{fill:url(#Degradado_sin_nombre_42-16);}.cls-66{fill:url(#Degradado_sin_nombre_47-10);}.cls-67{fill:url(#Degradado_sin_nombre_48-9);}.cls-68{fill:url(#Degradado_sin_nombre_45-6);}.cls-69{fill:url(#Degradado_sin_nombre_46-5);}.cls-70{fill:url(#Degradado_sin_nombre_47-11);}.cls-71{fill:url(#Degradado_sin_nombre_48-10);}</style><linearGradient id="Degradado_sin_nombre_45" x1="49.82" y1="825.21" x2="69.18" y2="844.26" gradientTransform="translate(0 -754)" gradientUnits="userSpaceOnUse"><stop offset="0" stop-color="#6fb1c8"/><stop offset="0.15" stop-color="#67a8c0"/><stop offset="0.41" stop-color="#528eab"/><stop offset="0.73" stop-color="#306589"/><stop offset="1" stop-color="#0f3c67"/></linearGradient><linearGradient id="Degradado_sin_nombre_42" x1="44.54" y1="849.45" x2="69.21" y2="870.38" gradientTransform="translate(0 -754)" gradientUnits="userSpaceOnUse"><stop offset="0" stop-color="#3d597f"/><stop offset="0.31" stop-color="#34537a"/><stop offset="0.81" stop-color="#1a436d"/><stop offset="1" stop-color="#0f3c67"/></linearGradient><linearGradient id="Degradado_sin_nombre_42-2" x1="312.02" y1="926.16" x2="378.37" y2="992.51" xlink:href="#Degradado_sin_nombre_42"/><linearGradient id="Degradado_sin_nombre_42-3" x1="299.75" y1="924.34" x2="368.15" y2="992.73" xlink:href="#Degradado_sin_nombre_42"/><linearGradient id="Degradado_sin_nombre_42-4" x1="329.22" y1="895.96" x2="353.48" y2="895.96" xlink:href="#Degradado_sin_nombre_42"/><linearGradient id="Degradado_sin_nombre_47" x1="331.72" y1="1009.36" x2="331.72" y2="894.86" gradientTransform="translate(0 -754)" gradientUnits="userSpaceOnUse"><stop offset="0" stop-color="#fff" stop-opacity="0.15"/><stop offset="1" stop-color="#fff"/></linearGradient><linearGradient id="Degradado_sin_nombre_48" x1="337.02" y1="898.24" x2="337.02" y2="891.58" gradientTransform="translate(0 -754)" gradientUnits="userSpaceOnUse"><stop offset="0" stop-color="#fff" stop-opacity="0.15"/><stop offset="0.15" stop-color="#fff" stop-opacity="0.16"/><stop offset="0.28" stop-color="#fff" stop-opacity="0.21"/><stop offset="0.42" stop-color="#fff" stop-opacity="0.28"/><stop offset="0.55" stop-color="#fff" stop-opacity="0.39"/><stop offset="0.68" stop-color="#fff" stop-opacity="0.52"/><stop offset="0.81" stop-color="#fff" stop-opacity="0.69"/><stop offset="0.93" stop-color="#fff" stop-opacity="0.88"/><stop offset="1" stop-color="#fff"/></linearGradient><linearGradient id="Degradado_sin_nombre_45-2" x1="299.42" y1="944.76" x2="353.17" y2="998.51" xlink:href="#Degradado_sin_nombre_45"/><linearGradient id="Degradado_sin_nombre_46" x1="288.12" y1="943.36" x2="343.22" y2="998.46" gradientTransform="translate(0 -754)" gradientUnits="userSpaceOnUse"><stop offset="0" stop-color="#6fb1c8"/><stop offset="1" stop-color="#435c82"/></linearGradient><linearGradient id="Degradado_sin_nombre_47-2" x1="313.47" y1="1015.76" x2="313.47" y2="921.06" xlink:href="#Degradado_sin_nombre_47"/><linearGradient id="Degradado_sin_nombre_48-2" x1="318.22" y1="923.63" x2="318.22" y2="918.87" xlink:href="#Degradado_sin_nombre_48"/><linearGradient id="Degradado_sin_nombre_42-5" x1="254.3" y1="956.99" x2="301" y2="1003.69" xlink:href="#Degradado_sin_nombre_42"/><linearGradient id="Degradado_sin_nombre_42-6" x1="241.45" y1="954.44" x2="289.8" y2="1002.79" xlink:href="#Degradado_sin_nombre_42"/><linearGradient id="Degradado_sin_nombre_42-7" x1="260.32" y1="936.56" x2="285.75" y2="936.56" xlink:href="#Degradado_sin_nombre_42"/><linearGradient id="Degradado_sin_nombre_47-3" x1="263.37" y1="1013.96" x2="263.37" y2="935.56" xlink:href="#Degradado_sin_nombre_47"/><linearGradient id="Degradado_sin_nombre_48-3" x1="268.42" y1="941.71" x2="268.42" y2="931.39" xlink:href="#Degradado_sin_nombre_48"/><linearGradient id="Degradado_sin_nombre_45-3" x1="237.37" y1="962.91" x2="279.53" y2="1005.07" xlink:href="#Degradado_sin_nombre_45"/><linearGradient id="Degradado_sin_nombre_46-2" x1="225.57" y1="960.62" x2="269.18" y2="1004.21" xlink:href="#Degradado_sin_nombre_46"/><linearGradient id="Degradado_sin_nombre_47-4" x1="245.32" y1="1014.26" x2="245.32" y2="943.66" xlink:href="#Degradado_sin_nombre_47"/><linearGradient id="Degradado_sin_nombre_48-4" x1="249.97" y1="949.23" x2="249.97" y2="939.94" xlink:href="#Degradado_sin_nombre_48"/><linearGradient id="Degradado_sin_nombre_42-8" x1="185.6" y1="961.59" x2="229.35" y2="1005.34" xlink:href="#Degradado_sin_nombre_42"/><linearGradient id="Degradado_sin_nombre_42-9" x1="172.9" y1="959.29" x2="217.95" y2="1004.33" xlink:href="#Degradado_sin_nombre_42"/><linearGradient id="Degradado_sin_nombre_42-10" x1="190.16" y1="943.01" x2="215.58" y2="943.01" xlink:href="#Degradado_sin_nombre_42"/><linearGradient id="Degradado_sin_nombre_47-5" x1="193.27" y1="1014.56" x2="193.27" y2="942.06" xlink:href="#Degradado_sin_nombre_47"/><linearGradient id="Degradado_sin_nombre_48-5" x1="198.22" y1="947.79" x2="198.22" y2="938.25" xlink:href="#Degradado_sin_nombre_48"/><linearGradient id="Degradado_sin_nombre_45-4" x1="168.5" y1="966.99" x2="208.05" y2="1006.54" xlink:href="#Degradado_sin_nombre_45"/><linearGradient id="Degradado_sin_nombre_46-3" x1="156.87" y1="965.01" x2="197.47" y2="1005.61" xlink:href="#Degradado_sin_nombre_46"/><linearGradient id="Degradado_sin_nombre_47-6" x1="175.17" y1="1014.76" x2="175.17" y2="949.56" xlink:href="#Degradado_sin_nombre_47"/><linearGradient id="Degradado_sin_nombre_48-6" x1="179.77" y1="954.69" x2="179.77" y2="946.11" xlink:href="#Degradado_sin_nombre_48"/><linearGradient id="Degradado_sin_nombre_47-7" x1="36.42" y1="1016.46" x2="36.42" y2="967.19" xlink:href="#Degradado_sin_nombre_47"/><linearGradient id="Degradado_sin_nombre_42-11" x1="362.5" y1="874.99" x2="461.4" y2="973.89" xlink:href="#Degradado_sin_nombre_42"/><linearGradient id="Degradado_sin_nombre_42-12" x1="350.35" y1="872.54" x2="451.55" y2="973.73" xlink:href="#Degradado_sin_nombre_42"/><linearGradient id="Degradado_sin_nombre_42-13" x1="395.66" y1="828.96" x2="421.08" y2="828.96" xlink:href="#Degradado_sin_nombre_42"/><linearGradient id="Degradado_sin_nombre_47-8" x1="398.72" y1="1006.76" x2="398.72" y2="827.26" xlink:href="#Degradado_sin_nombre_47"/><linearGradient id="Degradado_sin_nombre_48-7" x1="403.87" y1="830.8" x2="403.87" y2="825.34" xlink:href="#Degradado_sin_nombre_48"/><linearGradient id="Degradado_sin_nombre_45-5" x1="351.15" y1="899.64" x2="434.8" y2="983.28" xlink:href="#Degradado_sin_nombre_45"/><linearGradient id="Degradado_sin_nombre_46-4" x1="339.7" y1="898.08" x2="424.85" y2="983.24" xlink:href="#Degradado_sin_nombre_46"/><linearGradient id="Degradado_sin_nombre_47-9" x1="380.67" y1="1016.46" x2="380.67" y2="859.96" xlink:href="#Degradado_sin_nombre_47"/><linearGradient id="Degradado_sin_nombre_48-8" x1="385.82" y1="863.64" x2="385.82" y2="858.53" xlink:href="#Degradado_sin_nombre_48"/><linearGradient id="Degradado_sin_nombre_42-14" x1="120.2" y1="973.69" x2="155.95" y2="1009.44" xlink:href="#Degradado_sin_nombre_42"/><linearGradient id="Degradado_sin_nombre_42-15" x1="107.9" y1="972.29" x2="143.85" y2="1008.24" xlink:href="#Degradado_sin_nombre_42"/><linearGradient id="Degradado_sin_nombre_42-16" x1="120.76" y1="960.21" x2="146.18" y2="960.21" xlink:href="#Degradado_sin_nombre_42"/><linearGradient id="Degradado_sin_nombre_47-10" x1="123.87" y1="1015.66" x2="123.87" y2="959.46" xlink:href="#Degradado_sin_nombre_47"/><linearGradient id="Degradado_sin_nombre_48-9" x1="128.82" y1="963.9" x2="128.82" y2="956.51" xlink:href="#Degradado_sin_nombre_48"/><linearGradient id="Degradado_sin_nombre_45-6" x1="103.02" y1="978.66" x2="134.72" y2="1010.36" xlink:href="#Degradado_sin_nombre_45"/><linearGradient id="Degradado_sin_nombre_46-5" x1="91.77" y1="977.52" x2="123.53" y2="1009.26" xlink:href="#Degradado_sin_nombre_46"/><linearGradient id="Degradado_sin_nombre_47-11" x1="105.82" y1="1015.61" x2="105.82" y2="966.34" xlink:href="#Degradado_sin_nombre_47"/><linearGradient id="Degradado_sin_nombre_48-10" x1="110.37" y1="970.24" x2="110.37" y2="963.76" xlink:href="#Degradado_sin_nombre_48"/></defs><g id="Capa_2" data-name="Capa 2"><g id="Capa_1-2" data-name="Capa 1"><text class="cls-1" transform="translate(53.62 16.39)">INVERSIONES QUE GENE<tspan class="cls-2" x="208.46" y="0">R</tspan><tspan class="cls-3" x="217.05" y="0">AN P</tspan><tspan class="cls-4" x="257.36" y="0">R</tspan><tspan x="266.35" y="0">OGRE</tspan><tspan class="cls-5" x="315.6" y="0">S</tspan><tspan x="325.51" y="0">O</tspan></text><rect class="cls-6" x="50.82" y="72.06" width="17.5" height="17.5"/><text class="cls-7" transform="translate(79.01 79.16)">RENDIMIEN</text><text class="cls-7" transform="translate(122.09 79.16)">T</text><text class="cls-7" transform="translate(125.5 79.16)">O </text><text class="cls-7" transform="translate(79.01 89.98)">MÍNIMO AN<tspan class="cls-8" x="50.2" y="0">U</tspan><tspan x="56.37" y="0">AL</tspan></text><rect class="cls-9" x="50.82" y="99.46" width="17.5" height="17.5"/><text class="cls-7" transform="translate(79.01 103.21)">RENDIMIEN</text><text class="cls-7" transform="translate(122.09 103.21)">T</text><text class="cls-7" transform="translate(125.5 103.21)">O</text><text class="cls-7" transform="translate(79.01 114.03)">MÁXIMO AN<tspan class="cls-8" x="52.47" y="0">U</tspan><tspan x="58.65" y="0">AL</tspan></text><text class="cls-10" transform="translate(0 295.96)">EL ECONOMI</text><text class="cls-10" transform="translate(49.44 295.96)">S</text><text class="cls-10" transform="translate(53.63 295.96)">T</text><text class="cls-10" transform="translate(57.01 295.96)">A</text><rect class="cls-11" x="78.52" y="255.36" width="345.8" height="14.6"/><text class="cls-12" transform="translate(2.64 48.19)">3</text><text class="cls-12" transform="translate(10.9 48.19)">5%</text><text class="cls-12" transform="translate(2.64 79.76)">30%</text><text class="cls-12" transform="translate(2.64 111.33)">2</text><text class="cls-12" transform="translate(10.92 111.33)">5%</text><text class="cls-12" transform="translate(2.64 142.91)">2</text><text class="cls-12" transform="translate(11.1 142.91)">0%</text><text class="cls-13" transform="translate(2.64 174.48)">1</text><text class="cls-12" transform="translate(9.61 174.48)">5%</text><text class="cls-12" transform="translate(2.64 206.05)">1</text><text class="cls-12" transform="translate(10.53 206.05)">0%</text><text class="cls-12" transform="translate(2.64 237.62)">5%</text><text class="cls-12" transform="translate(2.64 269.19)">0%</text><line class="cls-14" x1="39.32" y1="37.36" x2="39.32" y2="272.56"/><polygon class="cls-15" points="353.52 142.56 354.02 262.86 337.82 269.06 337.82 146.36 353.52 142.56"/><polygon class="cls-16" points="337.82 269.06 327.63 260.26 329.23 140.86 337.82 146.36 337.82 269.06"/><polygon class="cls-17" points="337.82 146.36 329.23 140.86 344.82 137.56 353.52 142.56 337.82 146.36"/><g class="cls-18"><polygon class="cls-19" points="328.63 255.36 329.23 140.86 334.82 144.46 328.63 255.36"/></g><g class="cls-20"><path class="cls-21" d="M353.52,142.56c-1.3.4-2.6.8-3.8,1.2s-2.6.8-3.9,1.1c-2.6.7-5.2,1.4-7.8,2l-.2.1-.2-.1a97.51,97.51,0,0,1-8.4-5.9,78.64,78.64,0,0,1,8.9,5.1l-.4-.1q3.9-1.05,7.8-1.8c1.3-.3,2.6-.6,3.9-.8S352.12,142.76,353.52,142.56Z"/><polygon class="cls-21" points="338.43 146.36 337.82 269.06 337.32 146.36 338.43 146.36"/></g><g class="cls-22"><polygon class="cls-23" points="335.73 144.26 329.23 140.86 344.82 137.56 335.73 144.26"/></g><polygon class="cls-24" points="334.63 168.26 334.23 263.46 319.32 268.36 319.32 170.86 334.63 168.26"/><polygon class="cls-25" points="319.32 268.36 310.82 261.76 310.43 167.06 319.32 170.86 319.32 268.36"/><polygon class="cls-26" points="319.32 170.86 310.43 167.06 326.02 164.86 334.63 168.26 319.32 170.86"/><g class="cls-18"><polygon class="cls-27" points="310.82 261.76 310.43 167.06 316.52 169.66 310.82 261.76"/></g><g class="cls-28"><path class="cls-29" d="M334.62,168.26l-3.8.9c-1.3.3-2.5.5-3.8.8-2.5.5-5.1,1-7.7,1.4h-.2l-.1-.1a69.65,69.65,0,0,1-8.7-4.2,76.23,76.23,0,0,1,9.1,3.3h-.3l7.7-1.2c1.3-.2,2.6-.3,3.9-.5S333.32,168.36,334.62,168.26Z"/><polygon class="cls-29" points="319.82 170.86 319.32 268.36 318.82 170.86 319.82 170.86"/></g><g class="cls-22"><polygon class="cls-30" points="316.52 169.66 310.43 167.06 326.02 164.86 316.52 169.66"/></g><text class="cls-31" transform="translate(312.04 162.85)">1</text><text class="cls-32" transform="translate(315.77 162.85)">5%</text><text class="cls-32" transform="translate(331.58 135.53)">2</text><text class="cls-32" transform="translate(336.21 135.53)">0%</text><text class="cls-7" transform="translate(324.96 285.14)">ORO</text><polygon class="cls-33" points="285.73 183.56 285.73 264.96 269.52 269.06 269.52 187.76 285.73 183.56"/><polygon class="cls-34" points="269.52 269.06 260.23 259.96 260.32 181.56 269.52 187.76 269.52 269.06"/><polygon class="cls-35" points="269.52 187.76 260.32 181.56 276.52 177.36 285.73 183.56 269.52 187.76"/><g class="cls-18"><polygon class="cls-36" points="260.23 259.96 260.32 181.56 266.52 185.66 260.23 259.96"/></g><g class="cls-20"><path class="cls-21" d="M285.72,183.56c-1.3.5-2.6.9-4,1.3s-2.7.8-4,1.2q-4.05,1.2-8.1,2.1l-.2.1-.2-.1q-4.65-3.15-9-6.6a100.22,100.22,0,0,1,9.5,5.8l-.4-.1c2.7-.7,5.4-1.4,8.1-2l4.1-.9C282.92,184.06,284.32,183.86,285.72,183.56Z"/><polygon class="cls-21" points="270.02 187.76 269.52 269.06 269.02 187.76 270.02 187.76"/></g><g class="cls-22"><polygon class="cls-37" points="266.63 187.76 260.32 181.56 276.52 177.36 266.63 187.76"/></g><polygon class="cls-38" points="265.93 191.56 265.82 264.66 250.93 268.36 251.03 195.26 265.93 191.56"/><polygon class="cls-39" points="250.93 268.36 242.43 260.26 242.53 189.66 251.03 195.26 250.93 268.36"/><polygon class="cls-26" points="251.03 195.26 242.53 189.66 257.43 185.96 265.93 191.56 251.03 195.26"/><g class="cls-18"><polygon class="cls-40" points="242.43 260.26 242.53 189.66 248.22 193.46 242.43 260.26"/></g><g class="cls-28"><path class="cls-29" d="M265.92,191.56c-1.2.4-2.4.8-3.7,1.2s-2.5.7-3.7,1.1c-2.5.7-4.9,1.3-7.4,1.9l-.2.1-.2-.1c-2.8-1.9-5.6-3.9-8.2-6a96.8,96.8,0,0,1,8.8,5.2l-.4-.1,7.5-1.8c1.3-.3,2.5-.5,3.8-.8S264.62,191.76,265.92,191.56Z"/><polygon class="cls-29" points="251.53 195.26 250.93 268.36 250.43 195.26 251.53 195.26"/></g><g class="cls-22"><polygon class="cls-41" points="248.32 195.26 242.53 189.66 257.43 185.96 248.32 195.26"/></g><text class="cls-32" transform="translate(243.46 180.41)">1</text><text class="cls-32" transform="translate(247.75 180.41)">0%</text><text class="cls-31" transform="translate(265.64 172.55)">1</text><text class="cls-32" transform="translate(269.14 172.55)">2%</text><text class="cls-7" transform="translate(230.27 285.14)">B</text><text class="cls-7" transform="translate(234.47 285.14)">O</text><text class="cls-7" transform="translate(241.33 285.14)">L</text><text class="cls-7" transform="translate(244.43 285.14)"><tspan class="cls-42">S</tspan><tspan x="4.73" y="0">A MEXI</tspan></text><text class="cls-7" transform="translate(274.69 285.14)">C</text><text class="cls-7" transform="translate(279.93 285.14)">ANA</text><text class="cls-7" transform="translate(241.46 295.96)">DE </text><text class="cls-7" transform="translate(253.07 295.96)">V</text><text class="cls-7" transform="translate(257.8 295.96)">A</text><text class="cls-7" transform="translate(263.45 295.96)">L</text><text class="cls-7" transform="translate(266.46 295.96)">ORES</text><polygon class="cls-43" points="215.63 189.96 215.53 265.16 199.32 268.96 199.43 193.76 215.63 189.96"/><polygon class="cls-44" points="199.32 268.96 190.13 260.56 190.13 188.06 199.43 193.76 199.32 268.96"/><polygon class="cls-45" points="199.43 193.76 190.13 188.06 206.32 184.26 215.63 189.96 199.43 193.76"/><g class="cls-18"><polygon class="cls-46" points="190.13 260.56 190.13 188.06 196.43 191.96 190.13 260.56"/></g><g class="cls-20"><path class="cls-21" d="M215.52,190c-1.3.4-2.7.8-4,1.2s-2.7.8-4,1.1c-2.7.7-5.4,1.4-8.1,2h-.2l-.2-.1a90,90,0,0,1-9-6.2c3.3,1.6,6.4,3.4,9.5,5.3l-.4-.1c2.7-.6,5.4-1.3,8.1-1.8,1.4-.3,2.7-.5,4.1-.8S214.22,190.16,215.52,190Z"/><polygon class="cls-21" points="199.93 193.76 199.32 268.96 198.82 193.76 199.93 193.76"/></g><g class="cls-22"><polygon class="cls-47" points="196.43 193.76 190.13 188.06 206.32 184.26 196.43 193.76"/></g><polygon class="cls-48" points="195.72 197.26 195.72 264.86 180.82 268.26 180.82 200.66 195.72 197.26"/><polygon class="cls-49" points="180.82 268.26 172.32 260.76 172.32 195.56 180.82 200.66 180.82 268.26"/><polygon class="cls-26" points="180.82 200.66 172.32 195.56 187.22 192.06 195.72 197.26 180.82 200.66"/><g class="cls-18"><polygon class="cls-50" points="172.32 260.76 172.32 195.56 178.03 199.06 172.32 260.76"/></g><g class="cls-28"><path class="cls-29" d="M195.72,197.26c-1.2.4-2.4.8-3.7,1.1s-2.5.7-3.7,1c-2.5.6-4.9,1.3-7.4,1.8h-.2l-.2-.1a91.23,91.23,0,0,1-8.2-5.6c3,1.4,5.9,3,8.8,4.7l-.4-.1c2.5-.6,5-1.1,7.5-1.6,1.3-.3,2.5-.5,3.8-.7S194.42,197.46,195.72,197.26Z"/><polygon class="cls-29" points="181.32 200.66 180.82 268.26 180.32 200.66 181.32 200.66"/></g><g class="cls-22"><polygon class="cls-51" points="178.13 200.66 172.32 195.56 187.22 192.06 178.13 200.66"/></g><text class="cls-32" transform="translate(175.46 190.62)">9%</text><text class="cls-32" transform="translate(195.1 182.76)">1</text><text class="cls-32" transform="translate(199.39 182.76)">0%</text><text class="cls-7" transform="translate(171.94 285.14)">FONDOS DE </text><text class="cls-7" transform="translate(174.47 295.96)">INVERSIÓN</text><text class="cls-7" transform="translate(376.7 286.51)">N</text><text class="cls-7" transform="translate(383.16 286.51)">A</text><text class="cls-7" transform="translate(388.39 286.51)">V<tspan class="cls-52" x="5.81" y="0">E</tspan><tspan x="10.47" y="0" xml:space="preserve">TEC  </tspan></text><text class="cls-7" transform="translate(414.59 286.51)">B</text><text class="cls-7" transform="translate(418.95 286.51)">Y</text><text class="cls-7" transform="translate(387.32 297.33)">C</text><text class="cls-7" transform="translate(392.45 297.33)">CIMA</text><g class="cls-18"><polygon class="cls-53" points="33.52 262.46 33.52 213.26 39.33 215.86 33.52 262.46"/></g><polygon class="cls-54" points="421.13 76.46 421.02 260.26 404.82 266.46 404.93 78.56 421.13 76.46"/><polygon class="cls-55" points="404.82 266.46 395.63 258.36 395.63 73.26 404.93 78.56 404.82 266.46"/><polygon class="cls-56" points="404.93 78.56 395.63 73.26 412.13 71.36 421.13 76.46 404.93 78.56"/><g class="cls-18"><polygon class="cls-57" points="395.63 252.76 395.63 73.26 401.82 76.76 395.63 252.76"/></g><g class="cls-20"><path class="cls-21" d="M421.12,76.46c-1.3.3-2.7.5-4,.8s-2.7.5-4,.7l-8.1,1.2h-.2l-.2-.1a106.07,106.07,0,0,1-9-5.8c3.2,1.5,6.4,3.1,9.5,4.9l-.3-.1c2.7-.4,5.4-.7,8.1-1,1.3-.1,2.7-.3,4.1-.4S419.72,76.46,421.12,76.46Z"/><polygon class="cls-21" points="405.43 78.56 404.82 266.46 404.32 78.56 405.43 78.56"/></g><g class="cls-22"><polygon class="cls-58" points="401.82 76.76 395.63 73.26 412.13 71.36 401.82 76.76"/></g><polygon class="cls-59" points="401.23 108.76 401.23 262.86 386.32 267.76 386.32 110.46 401.23 108.76"/><polygon class="cls-60" points="386.32 267.76 377.82 262.46 377.82 105.96 386.32 110.46 386.32 267.76"/><polygon class="cls-26" points="386.32 110.46 377.82 105.96 393.82 104.56 401.23 108.76 386.32 110.46"/><g class="cls-18"><polygon class="cls-61" points="377.82 262.46 377.82 105.96 383.52 108.96 377.82 262.46"/></g><g class="cls-28"><path class="cls-29" d="M401.22,108.76c-1.2.3-2.5.5-3.7.7l-3.7.6c-2.5.4-4.9.7-7.4.9h-.2l-.1-.1c-2.8-1.5-5.6-3.1-8.3-4.9,3,1.2,5.9,2.5,8.8,4l-.3-.1c2.5-.3,5-.6,7.5-.8l3.7-.3C398.72,108.66,400,108.76,401.22,108.76Z"/><polygon class="cls-29" points="386.82 110.46 386.32 267.76 385.82 110.46 386.82 110.46"/></g><g class="cls-22"><polygon class="cls-62" points="384.43 109.66 377.82 105.96 393.82 104.56 384.43 109.66"/></g><text class="cls-32" transform="translate(377.51 101.48)">2</text><text class="cls-32" transform="translate(382.03 101.48)">5%</text><text class="cls-32" transform="translate(400.32 70.07)">30%</text><text class="cls-7" transform="translate(102.31 286.51)">C</text><text class="cls-7" transform="translate(107.44 286.51)">O</text><text class="cls-7" transform="translate(114.12 286.51)">MERCIAL</text><polygon class="cls-63" points="146.22 206.96 146.13 265.26 129.93 268.16 130.03 209.86 146.22 206.96"/><polygon class="cls-64" points="129.93 268.16 120.72 261.66 120.72 205.46 130.03 209.86 129.93 268.16"/><polygon class="cls-65" points="130.03 209.86 120.72 205.46 136.93 202.56 146.22 206.96 130.03 209.86"/><g class="cls-18"><polygon class="cls-66" points="120.72 261.66 120.72 205.46 127.03 208.46 120.72 261.66"/></g><g class="cls-20"><path class="cls-21" d="M146.22,207c-1.3.4-2.7.7-4,1l-4,.9c-2.7.6-5.4,1.1-8.1,1.6h-.2l-.1-.1a97.54,97.54,0,0,1-9-4.9c3.2,1.2,6.4,2.5,9.5,4h-.4c2.7-.5,5.4-1,8.1-1.4l4.1-.6C143.52,207.26,144.82,207.06,146.22,207Z"/><polygon class="cls-21" points="130.53 209.86 129.93 268.16 129.43 209.86 130.53 209.86"/></g><g class="cls-22"><polygon class="cls-67" points="127.03 209.86 120.72 205.46 136.93 202.56 127.03 209.86"/></g><polygon class="cls-68" points="126.33 213.66 126.33 264.76 111.42 267.36 111.42 216.26 126.33 213.66"/><polygon class="cls-69" points="111.42 267.36 102.92 261.56 102.92 212.36 111.42 216.26 111.42 267.36"/><polygon class="cls-26" points="111.42 216.26 102.92 212.36 117.83 209.76 126.33 213.66 111.42 216.26"/><g class="cls-18"><polygon class="cls-70" points="102.92 261.56 102.92 212.36 108.72 214.96 102.92 261.56"/></g><g class="cls-28"><path class="cls-29" d="M126.32,213.66l-3.7.9c-1.2.3-2.5.6-3.7.8-2.5.5-5,1-7.4,1.4h-.2l-.1-.1c-2.8-1.3-5.6-2.8-8.3-4.4a82.63,82.63,0,0,1,8.7,3.4h-.3c2.5-.4,5-.9,7.5-1.2,1.3-.2,2.5-.3,3.8-.5S125.12,213.76,126.32,213.66Z"/><polygon class="cls-29" points="111.92 216.26 111.42 267.36 110.92 216.26 111.92 216.26"/></g><g class="cls-22"><polygon class="cls-71" points="108.72 216.26 102.92 212.36 117.83 209.76 108.72 216.26"/></g><text class="cls-32" transform="translate(107.39 206.96)">6%</text><text class="cls-32" transform="translate(129.21 200.45)">7%</text><path class="cls-26" d="M107.12,168a138.4,138.4,0,0,0,15.8,1.4c2.6.2,5.3.2,7.9.3s5.3,0,7.9,0a305.21,305.21,0,0,0,31.6-2.3l3.9-.4,3.9-.6c2.6-.4,5.2-.8,7.9-1.2,5.2-1,10.5-1.8,15.6-3,2.6-.6,5.2-1.1,7.8-1.7l7.8-2,3.9-1c1.3-.4,2.5-.8,3.8-1.1,2.5-.7,5-1.7,7.5-2.6a146.83,146.83,0,0,0,28.9-15.4,322.88,322.88,0,0,0,27-20.7,426.49,426.49,0,0,0,49.5-50.8l.5.5c-3.3,5.5-6.8,10.8-10.4,15.8s-7.4,10-11.3,14.7-8,9.3-12.1,13.7-8.4,8.6-12.8,12.6-8.9,7.8-13.5,11.4a163.46,163.46,0,0,1-14.2,9.8,154.09,154.09,0,0,1-14.9,8.1,165.72,165.72,0,0,1-15.3,6.4c-2.6.8-5.2,1.8-7.9,2.4-1.3.3-2.6.7-3.9,1l-3.9.8-7.9,1.7c-2.6.5-5.3.9-7.9,1.4-5.3,1-10.5,1.7-15.8,2.4l-7.9.9-4,.4-4,.3a306.93,306.93,0,0,1-31.8.8c-2.6-.1-5.3-.2-7.9-.4s-5.3-.3-7.9-.6a139.84,139.84,0,0,1-15.8-2.3Z"/><polygon class="cls-26" points="346.63 62.76 337.32 93.46 333.13 71.76 308.43 65.96 346.63 62.76"/></g></g></svg>