<?xml version="1.0" encoding="utf-8"?>
<!-- Generator: Adobe Illustrator 24.3.0, SVG Export Plug-In . SVG Version: 6.00 Build 0)  -->
<svg version="1.1" id="Capa_1" xmlns="http://www.w3.org/2000/svg" xmlns:xlink="http://www.w3.org/1999/xlink" x="0px" y="0px"
	 viewBox="0 0 174.2 57.9" style="enable-background:new 0 0 174.2 57.9;" xml:space="preserve">
<style type="text/css">
	.st0{fill:#FFFFFF;}
</style>
<g id="Capa_2_1_">
	<g id="Capa_1-2">
		<polygon class="st0" points="57.9,17 48.6,40.9 41.9,57.9 33.3,57.9 28.1,40.9 21,17 19.6,12.6 17.9,17 8.6,40.9 0,40.9 9.2,17 
			15.8,0 15.8,0 24.5,0 29.6,17 36.8,40.9 38.1,45.5 39.9,40.9 49.3,17 		"/>
		<path class="st0" d="M99.3,17h14.4v3.8h-9.5V27h7.3v3.7h-7.3V37h10.5v3.9H99.3V17z"/>
		<path class="st0" d="M123,20.8h-6.8V17h18.5v3.8H128v20.1h-5V20.8z"/>
		<path class="st0" d="M138.1,17h14.4v3.8H143V27h7.3v3.7H143V37h10.5v3.9h-15.4V17z"/>
		<path class="st0" d="M156.2,28.9c0-1.7,0.3-3.4,0.9-5c0.6-1.4,1.4-2.7,2.5-3.8c2.2-2.1,5.2-3.2,8.2-3.1c1.8,0,3.5,0.2,5.3,0.6
			c0.4,0.1,0.8,0.2,1.1,0.3l-0.7,4.3c-1.5-0.9-3.3-1.4-5.1-1.3c-1,0-2,0.2-3,0.5c-0.8,0.3-1.5,0.8-2.1,1.5c-1.4,1.6-2.1,3.6-2,5.7
			c-0.1,2.2,0.6,4.3,1.9,6c1.3,1.6,3.2,2.4,5.3,2.4c1.6,0,3.1-0.4,4.6-1c0.3-0.1,0.6-0.3,0.9-0.5v4c-1.1,0.5-2.3,0.9-3.6,1.1
			c-0.8,0.1-1.6,0.2-2.4,0.2c-3.2,0.2-6.3-1-8.6-3.3C157.2,35.2,156,32.1,156.2,28.9z"/>
		<path class="st0" d="M73.9,17.1h5.3l4.4,13l1.3,4.5l1.3-4.5l4.2-13h5.3l-8.7,23.9h-4.2L73.9,17.1z"/>
		<path class="st0" d="M76.7,40.9h-5.3l-4.4-13l-1.3-4.5l-1.3,4.5l-4.2,13H55L63.7,17h4.2L76.7,40.9z"/>
	</g>
</g>
</svg>
