<?xml version="1.0" encoding="utf-8"?>
<!-- Generator: Adobe Illustrator 24.3.0, SVG Export Plug-In . SVG Version: 6.00 Build 0)  -->
<svg version="1.1" id="Capa_1" xmlns="http://www.w3.org/2000/svg" xmlns:xlink="http://www.w3.org/1999/xlink" x="0px" y="0px"
	 viewBox="0 0 71.8 56.6" style="enable-background:new 0 0 71.8 56.6;" xml:space="preserve">
<style type="text/css">
	.st0{fill:#15234A;}
</style>
<g id="Capa_2_1_">
	<g id="Capa_1-2">
		<path class="st0" d="M35.3,29.5c-5.4,0-9.8,4.4-9.8,9.8c0,5.4,4.4,9.8,9.8,9.8c5.4,0,9.8-4.4,9.8-9.8c0,0,0,0,0,0
			C45.1,33.9,40.7,29.5,35.3,29.5C35.3,29.5,35.3,29.5,35.3,29.5z M35.3,46.9c-4.2,0-7.6-3.4-7.6-7.6c0-4.2,3.4-7.6,7.6-7.6
			s7.6,3.4,7.6,7.6c0,0,0,0,0,0C42.9,43.5,39.5,46.9,35.3,46.9z"/>
		<path class="st0" d="M37.7,37.2h2.2c0-1.8-1.5-3.3-3.3-3.3v-1.1h-2.2v1.1c-1.8,0.1-3.2,1.6-3.1,3.4c0.1,1.7,1.4,3,3.1,3.1v2.2
			c-0.6,0-1.1-0.5-1.1-1.1l0,0h-2.2c0,1.8,1.4,3.3,3.2,3.3c0,0,0,0,0,0v1.1h2.2v-1.1c1.8-0.1,3.2-1.6,3.1-3.4
			c-0.1-1.7-1.4-3-3.1-3.1v-2.2C37.2,36.1,37.7,36.6,37.7,37.2L37.7,37.2z M34.4,38.3c-0.6,0-1.1-0.5-1.1-1.1s0.5-1.1,1.1-1.1V38.3z
			 M37.7,41.5c0,0.6-0.5,1.1-1.1,1.1l0,0v-2.2C37.2,40.5,37.7,40.9,37.7,41.5C37.7,41.5,37.7,41.5,37.7,41.5z"/>
		<path class="st0" d="M61,19.7H16.4c-0.6,0-1.1,0.5-1.1,1.1l0,0V23h-1.1c-0.6,0-1.1,0.5-1.1,1.1c0,0,0,0,0,0v2.2
			c-0.6,0-1.1,0.5-1.1,1v24c0,0.6,0.5,1.1,1.1,1.1c0,0,0,0,0,0h41.4c0.6,0,1.1-0.5,1.1-1.1v0h2.2c0.6,0,1.1-0.5,1.1-1.1l0,0V48H61
			c0.6,0,1.1-0.5,1.1-1.1V20.8C62.1,20.2,61.6,19.7,61,19.7C61,19.7,61,19.7,61,19.7z M14.2,28.4h3.1c-0.4,1.5-1.6,2.7-3.1,3.1
			L14.2,28.4z M14.2,50.2v-3.1c1.5,0.4,2.7,1.6,3.1,3.1L14.2,50.2z M53.3,50.2h-3.1c0.4-1.5,1.6-2.7,3.1-3.1L53.3,50.2z M53.3,44.8
			c-2.7,0.5-4.9,2.6-5.3,5.3H19.5c-0.5-2.7-2.6-4.9-5.3-5.3V33.8c2.7-0.5,4.9-2.6,5.3-5.3H48c0.5,2.7,2.6,4.9,5.3,5.3L53.3,44.8z
			 M53.3,31.5c-1.5-0.4-2.7-1.6-3.1-3.1h3.1V31.5z M56.6,49.1h-1.1V27.3c0-0.6-0.5-1.1-1.1-1.1l0,0H15.3v-1.1h41.4V49.1z M59.9,45.8
			h-1.1V24c0-0.6-0.5-1.1-1.1-1H17.4v-1.1h42.4L59.9,45.8z"/>
		<path class="st0" d="M10,56.6C-1.5,42.3,0.8,21.4,15.1,10s35.2-9.2,46.7,5.1c9.7,12.1,9.7,29.4,0,41.6h3.4
			c11.4-16.2,7.6-38.6-8.6-50S18-1,6.6,15.2C2.3,21.2,0,28.5,0,35.9c0,7.4,2.3,14.7,6.6,20.8H10z"/>
	</g>
</g>
</svg>
