<?xml version="1.0" encoding="utf-8"?>
<!-- Generator: Adobe Illustrator 24.3.0, SVG Export Plug-In . SVG Version: 6.00 Build 0)  -->
<svg version="1.1" id="Capa_1" xmlns="http://www.w3.org/2000/svg" xmlns:xlink="http://www.w3.org/1999/xlink" x="0px" y="0px"
	 viewBox="0 0 71.8 56.6" style="enable-background:new 0 0 71.8 56.6;" xml:space="preserve">
<style type="text/css">
	.st0{fill:#15234A;}
</style>
<g id="Capa_2_1_">
	<g id="Capa_1-2">
		<path class="st0" d="M47.5,17.5H11.9c-0.6,0-1.1,0.5-1.1,1.1l0,0v26.2c0,0.6,0.5,1.1,1.1,1.2c0,0,0,0,0,0h24.6
			c-0.1-0.5-0.2-0.9-0.2-1.4H34v-4.4h2.5c0.1-0.3,0.1-0.5,0.2-0.8H34v-4.3h4.8c0.2-0.3,0.4-0.5,0.6-0.8H34v-4.3h6.2v3.4
			c0.3-0.3,0.7-0.7,1.1-1v-2.4H46c0.9-0.3,1.7-0.4,2.6-0.5v-11C48.6,18,48.1,17.5,47.5,17.5z M18.2,44.5H12v-4.3h6.2L18.2,44.5z
			 M18.2,39.4H12v-4.3h6.2L18.2,39.4z M18.2,34.4H12v-4.3h6.2L18.2,34.4z M18.2,29.3H12V25h6.2L18.2,29.3z M25.6,44.5h-6.2v-4.3h6.2
			L25.6,44.5z M25.6,39.4h-6.2v-4.3h6.2L25.6,39.4z M25.6,34.4h-6.2v-4.3h6.2L25.6,34.4z M25.6,29.3h-6.2V25h6.2L25.6,29.3z
			 M32.9,44.5h-6.2v-4.3h6.2V44.5z M32.9,39.4h-6.2v-4.3h6.2V39.4z M32.9,34.4h-6.2v-4.3h6.2V34.4z M32.9,29.3h-6.2V25h6.2V29.3z
			 M40.2,29.3H34V25h6.2V29.3z M21.2,23.1v-3.7h25.6v3.7H21.2z M47.6,29.3h-6.2V25h6.2L47.6,29.3z"/>
		
			<rect x="22.2" y="24.1" transform="matrix(0.5703 -0.8214 0.8214 0.5703 -12.6882 30.1017)" class="st0" width="0.4" height="6.3"/>
		<rect x="19.3" y="27" transform="matrix(0.8217 -0.5699 0.5699 0.8217 -11.488 17.627)" class="st0" width="6.3" height="0.4"/>
		
			<rect x="29.6" y="24.1" transform="matrix(0.5703 -0.8214 0.8214 0.5703 -9.5373 36.1225)" class="st0" width="0.4" height="6.3"/>
		<rect x="26.6" y="27" transform="matrix(0.8217 -0.5699 0.5699 0.8217 -10.1825 21.8065)" class="st0" width="6.3" height="0.4"/>
		
			<rect x="22.2" y="29.1" transform="matrix(0.5703 -0.8214 0.8214 0.5703 -16.8384 32.2795)" class="st0" width="0.4" height="6.3"/>
		
			<rect x="19.3" y="32.1" transform="matrix(0.8217 -0.5699 0.5699 0.8217 -14.3734 18.5353)" class="st0" width="6.3" height="0.4"/>
		
			<rect x="14.8" y="24.1" transform="matrix(0.5703 -0.8214 0.8214 0.5703 -15.8773 24.0157)" class="st0" width="0.4" height="6.3"/>
		<rect x="11.9" y="27" transform="matrix(0.8217 -0.5699 0.5699 0.8217 -12.8092 13.3999)" class="st0" width="6.2" height="0.4"/>
		
			<rect x="14.8" y="29.1" transform="matrix(0.5703 -0.8214 0.8214 0.5703 -20.0317 26.1854)" class="st0" width="0.4" height="6.3"/>
		
			<rect x="11.9" y="32.1" transform="matrix(0.8217 -0.5699 0.5699 0.8217 -15.7021 14.3043)" class="st0" width="6.2" height="0.4"/>
		
			<rect x="29.6" y="29.1" transform="matrix(0.5703 -0.8214 0.8214 0.5703 -13.6875 38.3004)" class="st0" width="0.4" height="6.3"/>
		
			<rect x="26.6" y="32.1" transform="matrix(0.8217 -0.5699 0.5699 0.8217 -13.0696 22.7091)" class="st0" width="6.3" height="0.4"/>
		
			<rect x="36.9" y="24.1" transform="matrix(0.5703 -0.8214 0.8214 0.5703 -6.3864 42.1434)" class="st0" width="0.4" height="6.3"/>
		<rect x="34" y="27" transform="matrix(0.8217 -0.5699 0.5699 0.8217 -8.8778 25.9749)" class="st0" width="6.3" height="0.4"/>
		
			<rect x="44.2" y="24.1" transform="matrix(0.5703 -0.8214 0.8214 0.5703 -3.2447 48.1631)" class="st0" width="0.4" height="6.3"/>
		<rect x="41.3" y="27" transform="matrix(0.8217 -0.5699 0.5699 0.8217 -7.5722 30.1544)" class="st0" width="6.3" height="0.4"/>
		<path class="st0" d="M49.7,29.6c-0.4,0-0.7,0-1.1,0c-0.9,0.1-1.8,0.2-2.6,0.5c-1.7,0.5-3.3,1.3-4.6,2.4c-0.4,0.3-0.8,0.6-1.1,1
			s-0.6,0.6-0.9,1s-0.4,0.5-0.6,0.8c-0.9,1.3-1.6,2.8-2.1,4.3c-0.1,0.3-0.1,0.5-0.2,0.8c-0.2,0.9-0.3,1.9-0.3,2.8c0,0.5,0,1,0.1,1.5
			c0.1,0.5,0.1,0.9,0.2,1.4c1.6,7.3,8.8,11.9,16.1,10.3c7.3-1.6,11.9-8.8,10.3-16.1C61.6,34,56.1,29.6,49.7,29.6L49.7,29.6z
			 M49.7,54c-4.9,0-9.2-3.3-10.5-8c-0.1-0.5-0.2-0.9-0.3-1.4c-0.1-0.5-0.1-1-0.1-1.5c0-1,0.1-1.9,0.4-2.8c0.1-0.3,0.1-0.5,0.2-0.8
			c0.2-0.6,0.5-1.2,0.8-1.8c0.3-0.6,0.7-1.1,1.1-1.6c0.3-0.3,0.5-0.6,0.8-0.9c0.3-0.3,0.6-0.5,0.9-0.8c1.3-1,2.9-1.7,4.5-2
			c0.3-0.1,0.7-0.1,1-0.2c0.4,0,0.7-0.1,1.1-0.1c6,0,10.9,4.9,10.9,10.9S55.7,54.1,49.7,54L49.7,54L49.7,54z"/>
		<polygon class="st0" points="57.4,48.3 49.2,43.4 49.2,37.9 50.3,37.9 50.3,42.8 57.9,47.4 		"/>
		<path class="st0" d="M10,56.6C-1.5,42.3,0.8,21.4,15.1,10s35.2-9.2,46.7,5.1c9.7,12.1,9.7,29.4,0,41.6h3.4
			c11.4-16.2,7.6-38.6-8.6-50S18-1,6.6,15.2C2.3,21.2,0,28.5,0,35.9c0,7.4,2.3,14.7,6.6,20.8H10z"/>
	</g>
</g>
</svg>
