<?xml version="1.0" encoding="utf-8"?>
<!-- Generator: Adobe Illustrator 24.3.0, SVG Export Plug-In . SVG Version: 6.00 Build 0)  -->
<svg version="1.1" id="Capa_1" xmlns="http://www.w3.org/2000/svg" xmlns:xlink="http://www.w3.org/1999/xlink" x="0px" y="0px"
	 viewBox="0 0 71.8 56.6" style="enable-background:new 0 0 71.8 56.6;" xml:space="preserve">
<style type="text/css">
	.st0{fill:#15234A;}
</style>
<g id="Capa_2_1_">
	<g id="Capa_1-2">
		<path class="st0" d="M37,53.9c3.8,0,6.9-3.1,6.9-6.9s-3.1-6.9-6.9-6.9s-6.9,3.1-6.9,6.9c0,0,0,0,0,0C30.1,50.8,33.2,53.9,37,53.9
			C37,53.9,37,53.9,37,53.9z M37,41.7c3,0,5.4,2.4,5.4,5.3c0,3-2.4,5.4-5.3,5.4s-5.4-2.4-5.4-5.3c0,0,0,0,0-0.1
			C31.7,44.1,34.1,41.7,37,41.7z"/>
		<path class="st0" d="M35.5,48.6H34c0,1.3,1,2.3,2.3,2.3v0.8h1.5v-0.8c1.3,0,2.3-1,2.3-2.3c0-1.3-1-2.3-2.3-2.3v-1.5
			c0.4,0,0.8,0.3,0.8,0.7c0,0,0,0,0,0h1.5c0-1.3-1-2.3-2.3-2.3v-0.8h-1.6v0.8c-1.3-0.1-2.4,0.9-2.4,2.1c-0.1,1.3,0.9,2.4,2.1,2.4
			c0.1,0,0.2,0,0.3,0v1.5C35.8,49.3,35.5,49,35.5,48.6z M35.5,45.5c0-0.4,0.3-0.8,0.7-0.8c0,0,0,0,0,0v1.5
			C35.8,46.3,35.5,45.9,35.5,45.5z M37.8,47.8c0.4,0,0.8,0.3,0.8,0.8s-0.3,0.8-0.8,0.8V47.8z"/>
		<path class="st0" d="M56.2,33.2h-3.8v-6.1l1.2,0.7c0.4,0.2,0.8,0.1,1-0.3l2.3-3.8c0.1-0.2,0.1-0.4,0.1-0.6
			c-0.1-0.2-0.2-0.4-0.4-0.5l-5.7-3.2v-5.4h0.8c0.4,0,0.8-0.3,0.8-0.7c0,0,0,0,0,0V11c0-0.4-0.3-0.8-0.8-0.8c0,0,0,0,0,0h-7.6
			c-0.4,0-0.8,0.3-0.8,0.8v2.3c0,0.4,0.3,0.8,0.7,0.8c0,0,0,0,0,0h0.8v2l-10.4-5.7c-0.2-0.1-0.5-0.1-0.7,0L11.4,22.6
			c-0.2,0.1-0.3,0.3-0.4,0.5c-0.1,0.2,0,0.4,0.1,0.6l2.3,3.8c0.2,0.3,0.6,0.4,1,0.3l1.9-1.1v21.9h-1.5c-0.4,0-0.8,0.3-0.8,0.8
			c0,0,0,0,0,0v3.8c0,0.4,0.3,0.8,0.8,0.8h6.9v1.5c0,0.4,0.3,0.8,0.8,0.8h29.1c0.4,0,0.8-0.3,0.8-0.7c0,0,0,0,0,0h1.5
			c0.4,0,0.8-0.3,0.8-0.8v-1.5h1.5c0.4,0,0.8-0.3,0.8-0.8V34C56.9,33.6,56.6,33.2,56.2,33.2z M44.7,11.8h6.1v0.8h-6.1V11.8z
			 M46.2,14.1h3.1v4.5l-3.1-1.7V14.1z M14.3,26.1l-1.5-2.5L34,11.9l21.1,11.7l-1.5,2.5L34.3,15c-0.2-0.1-0.5-0.1-0.8,0L14.3,26.1z
			 M17.9,25.8L34,16.5l16.9,9.7v7h-26c-0.4,0-0.8,0.3-0.9,0.7c0,0,0,0.1,0,0.1v1.5h-0.8c-0.4,0-0.8,0.3-0.8,0.8v1.5
			c-0.4,0-0.8,0.3-0.8,0.8v10h-3.8L17.9,25.8z M50.8,41.6c-1.1-0.3-1.9-1.1-2.2-2.2h2.2V41.6z M47.1,39.4c0.3,1.9,1.8,3.4,3.8,3.8
			v7.8c-1.9,0.3-3.4,1.8-3.8,3.8H27c-0.3-1.9-1.8-3.4-3.8-3.8v-7.8c1.9-0.3,3.4-1.8,3.8-3.8H47.1z M23.2,41.6v-2.2h2.2
			C25.1,40.4,24.3,41.3,23.2,41.6z M15.6,52.4v-2.3h6.1v2.3H15.6z M23.2,52.5c1.1,0.3,1.9,1.1,2.2,2.2h-2.2V52.5z M50.8,54.7h-2.2
			c0.3-1.1,1.1-1.9,2.2-2.2V54.7z M53.1,53.9h-0.8V38.6c0-0.4-0.3-0.8-0.8-0.8c0,0,0,0,0,0H24v-0.8h29.1V53.9z M55.4,51.6h-0.8V36.3
			c0-0.4-0.3-0.8-0.8-0.8H25.5v-0.8h29.9V51.6z"/>
		<path class="st0" d="M30.1,30.2h7.7c0.4,0,0.8-0.3,0.8-0.8l0,0v-7.7c0-0.4-0.3-0.8-0.8-0.8l0,0h-7.7c-0.4,0-0.8,0.3-0.8,0.8v7.7
			C29.4,29.8,29.7,30.2,30.1,30.2z M30.9,26.4h2.3v2.3h-2.3V26.4z M34.7,28.6v-2.3H37v2.3H34.7z M37,24.8h-2.3v-2.3H37V24.8z
			 M33.2,22.5v2.3h-2.3v-2.3H33.2z"/>
		<path class="st0" d="M10,56.6C-1.5,42.3,0.8,21.4,15.1,10s35.2-9.2,46.7,5.1c9.7,12.1,9.7,29.4,0,41.6h3.4
			c11.4-16.2,7.6-38.6-8.6-50S18-1,6.6,15.2C2.3,21.2,0,28.5,0,35.9c0,7.4,2.3,14.7,6.6,20.8H10z"/>
	</g>
</g>
</svg>
