<?xml version="1.0" encoding="utf-8"?>
<!-- Generator: Adobe Illustrator 24.3.0, SVG Export Plug-In . SVG Version: 6.00 Build 0)  -->
<svg version="1.1" id="Capa_1" xmlns="http://www.w3.org/2000/svg" xmlns:xlink="http://www.w3.org/1999/xlink" x="0px" y="0px"
	 viewBox="0 0 49.8 48" style="enable-background:new 0 0 49.8 48;" xml:space="preserve">
<style type="text/css">
	.st0{fill:#002856;}
</style>
<path class="st0" d="M21.4,35.7c-0.7,0.1-1.4-0.3-1.7-0.8c-0.3-0.7-0.4-1.5-0.3-2.2v-10h5.6v-7.4h-5.6V5.8L9.1,11v4.3H5.4v7.4h3.7
	v9.9c0,3,0.3,5.1,0.9,6.4c0.5,1.3,1.5,2.3,2.7,3c1.2,0.6,3.1,0.9,5.6,0.9c2.4,0,4.7-0.3,7-0.8l-0.7-7C23.5,35.5,22.5,35.7,21.4,35.7
	z"/>
<path class="st0" d="M28.4,12.3c0.7-0.1,1.4,0.3,1.7,0.8c0.3,0.7,0.4,1.5,0.3,2.2v10h-5.6v7.4h5.6v9.4l10.2-5.2v-4.2h3.7v-7.4h-3.7
	v-9.9c0-3-0.3-5.1-0.9-6.4c-0.5-1.3-1.5-2.3-2.7-3c-1.2-0.7-3.1-1-5.6-1c-2.4,0-4.7,0.3-7,0.8l0.7,7C26.3,12.6,27.4,12.4,28.4,12.3z
	"/>
</svg>
