<?xml version="1.0" encoding="utf-8"?>
<!-- Generator: Adobe Illustrator 24.3.0, SVG Export Plug-In . SVG Version: 6.00 Build 0)  -->
<svg version="1.1" id="Capa_1" xmlns:svgjs="http://svgjs.com/svgjs"
	 xmlns="http://www.w3.org/2000/svg" xmlns:xlink="http://www.w3.org/1999/xlink" x="0px" y="0px" viewBox="0 0 512 512"
	 style="enable-background:new 0 0 512 512;" xml:space="preserve">
<style type="text/css">
	.st0{fill:#49B4AF;}
</style>
<g>
	<path class="st0" d="M486,479h-79.2v-79.5H486c3.9,0,7-3.1,7-7c0-1.2-0.3-2.4-0.9-3.5l-43-74.5h25.9c3.9,0,7-3.1,7-7
		c0-1.2-0.3-2.4-0.9-3.5l-43-74.5h22.4c3.9,0,7-3.1,7-7c0-1.2-0.3-2.4-0.9-3.5L393.9,93.3c-1.9-3.3-6.2-4.5-9.6-2.6
		c-1.1,0.6-1.9,1.5-2.6,2.6L309.2,219c-1.9,3.3-0.8,7.6,2.6,9.6c1.1,0.6,2.3,0.9,3.5,0.9h22.4l-43,74.5c-1.9,3.3-0.8,7.6,2.6,9.6
		c1.1,0.6,2.3,0.9,3.5,0.9h25.9l-43,74.5c-1.9,3.3-0.8,7.6,2.6,9.6c1.1,0.6,2.3,0.9,3.5,0.9h79.1V479H161v-96.5h97c3.9,0,7-3.1,7-7
		c0-1.2-0.3-2.5-0.9-3.5l-51.9-89.9h32.8c3.9,0,7-3.1,7-7c0-1.2-0.3-2.4-0.9-3.5l-51.9-90h28.7c3.9,0,7-3.1,7-7
		c0-1.2-0.3-2.4-0.9-3.5L148.1,22.5c-1.9-3.3-6.2-4.5-9.6-2.6c-1.1,0.6-1.9,1.5-2.6,2.6L50.1,171.1c-1.9,3.3-0.8,7.6,2.5,9.6
		c1.1,0.6,2.3,0.9,3.5,0.9h28.7l-51.9,90c-1.9,3.3-0.8,7.6,2.6,9.6c1.1,0.6,2.3,0.9,3.5,0.9h32.8L19.9,372c-1.9,3.3-0.8,7.6,2.5,9.6
		c1.1,0.6,2.3,0.9,3.5,0.9h97V479H26c-3.9,0-7,3.1-7,7s3.1,7,7,7h460c3.9,0,7-3.1,7-7S489.9,479,486,479z M344.8,311
		c1.9-3.3,0.8-7.6-2.6-9.6c-1.1-0.6-2.3-0.9-3.5-0.9h-25.9l43-74.5c1.9-3.3,0.8-7.6-2.6-9.6c-1.1-0.6-2.3-0.9-3.5-0.9h-22.4
		l60.5-104.7l60.5,104.7h-22.4c-3.9,0-7,3.1-7,7c0,1.2,0.3,2.4,0.9,3.5l43,74.5h-25.9c-3.9,0-7,3.1-7,7c0,1.2,0.3,2.4,0.9,3.5
		l43,74.5H301.8L344.8,311z M90.1,278.6c1.9-3.3,0.8-7.6-2.6-9.6c-1.1-0.6-2.3-0.9-3.5-0.9H51.2l51.9-90c1.9-3.3,0.8-7.6-2.6-9.6
		c-1.1-0.6-2.3-0.9-3.5-0.9H68.3L142,40l73.7,127.6h-28.7c-3.9,0-7,3.1-7,7c0,1.2,0.3,2.4,0.9,3.5l51.9,90H200c-3.9,0-7,3.1-7,7
		c0,1.2,0.3,2.4,0.9,3.5l51.9,90H38.1L90.1,278.6z M137,479v-96.5h10V479H137z M382.8,479v-79.5h10V479H382.8z"/>
</g>
</svg>
