<?xml version="1.0" encoding="utf-8"?>
<!-- Generator: Adobe Illustrator 24.2.3, SVG Export Plug-In . SVG Version: 6.00 Build 0)  -->
<svg version="1.1" id="Capa_1" xmlns="http://www.w3.org/2000/svg" xmlns:xlink="http://www.w3.org/1999/xlink" x="0px" y="0px"
	 viewBox="0 0 550 41" style="enable-background:new 0 0 550 41;" xml:space="preserve">
<style type="text/css">
	.st0{fill:#C1272D;}
	.st1{fill:#FFFFFF;}
</style>
<rect class="st0" width="550" height="41"/>
<text transform="matrix(1 0 0 1 202.6665 86.2227)" style="font-family:'FuturaPT-Light'; font-size:5.1509px;">t</text>
<g>
	<path class="st1" d="M189.11,12.74c-1.67-2.22-3.63-2.44-4.66-2.44c-2.99,0-3.93,1.88-3.93,3.34c0,0.68,0.21,1.33,0.9,1.92
		c0.68,0.64,1.62,0.98,3.42,1.63c2.22,0.77,4.32,1.54,5.77,2.87c1.28,1.15,2.44,3.08,2.44,5.98c0,5.56-4.02,9.36-9.92,9.36
		c-5.26,0-8.33-3.21-9.83-5.38l3.63-3.46c1.37,2.78,3.97,3.8,5.99,3.8c2.52,0,4.4-1.54,4.4-3.93c0-1.02-0.34-1.84-1.11-2.56
		c-1.07-0.98-2.78-1.54-4.4-2.1c-1.5-0.51-3.29-1.2-4.74-2.48c-0.94-0.81-2.27-2.39-2.27-5.3c0-4.19,2.82-8.38,9.15-8.38
		c1.8,0,5.17,0.34,8.08,3.34L189.11,12.74z"/>
	<path class="st1" d="M229.09,20.52c0,8.68-6.24,14.88-15.22,14.88s-15.22-6.2-15.22-14.88S204.89,5.6,213.87,5.6
		S229.09,11.85,229.09,20.52z M223.36,20.52c0-5.77-3.93-9.88-9.49-9.88s-9.49,4.1-9.49,9.88s3.93,9.83,9.49,9.83
		S223.36,26.3,223.36,20.52z"/>
	<path class="st1" d="M241.87,6.24v23.73h8.81v4.79h-14.37V6.24H241.87z"/>
	<path class="st1" d="M264.08,6.24c3.97,0,7.44,0.43,10.6,2.78c3.46,2.61,5.47,6.76,5.47,11.5c0,4.74-1.97,8.85-5.73,11.5
		c-3.34,2.35-6.46,2.74-10.43,2.74h-7.35V6.24H264.08z M262.19,29.97h1.71c1.41,0,4.49-0.09,6.97-1.88
		c2.27-1.62,3.55-4.53,3.55-7.57c0-3-1.24-5.9-3.51-7.61c-2.31-1.71-5.13-1.88-7.01-1.88h-1.71V29.97z"/>
	<path class="st1" d="M328.54,20.52c0,8.68-6.24,14.88-15.22,14.88c-8.98,0-15.22-6.2-15.22-14.88S304.34,5.6,313.32,5.6
		C322.29,5.6,328.54,11.85,328.54,20.52z M322.81,20.52c0-5.77-3.93-9.88-9.49-9.88s-9.49,4.1-9.49,9.88s3.93,9.83,9.49,9.83
		S322.81,26.3,322.81,20.52z"/>
	<path class="st1" d="M341.32,6.24v17.92c0,2.18,0.72,3.51,1.37,4.23c0.81,0.98,2.31,1.97,4.53,1.97c2.22,0,3.72-0.98,4.53-1.97
		c0.64-0.72,1.37-2.05,1.37-4.23V6.24h5.56v17.44c0,2.7-0.42,5.43-2.14,7.61c-2.05,2.7-5.64,4.1-9.32,4.1
		c-3.68,0-7.27-1.41-9.32-4.1c-1.71-2.18-2.14-4.91-2.14-7.61V6.24H341.32z"/>
	<path class="st1" d="M376.25,11.03v23.73h-5.56V11.03h-6.42V6.24h18.38v4.79H376.25z"/>
</g>
</svg>
