<?xml version="1.0" encoding="utf-8"?>
<!-- Generator: Adobe Illustrator 24.3.0, SVG Export Plug-In . SVG Version: 6.00 Build 0)  -->
<svg version="1.1" id="Capa_1" xmlns="http://www.w3.org/2000/svg" xmlns:xlink="http://www.w3.org/1999/xlink" x="0px" y="0px"
	 viewBox="0 0 120.5 86" style="enable-background:new 0 0 120.5 86;" xml:space="preserve">
<style type="text/css">
	.st0{fill:#002B53;}
</style>
<g id="Capa_2_1_">
	<g id="Capa_1-2">
		<path class="st0" d="M92.9,50.8c-0.6,0.1-1.2,0-1.7-0.3l-15.6-8.3c-0.5-0.2-1-0.4-1.5-0.4s-1,0.1-1.4,0.4l-2.9,1.5
			C69.4,43.9,69,44,68.6,44c-0.5,0-1.1-0.2-1.5-0.5l-8.7-6.3c-0.5-0.4-1.1-0.6-1.7-0.5l0,0c-0.6,0-1.3,0.3-1.8,0.6l-5.8,4.4
			c-0.4,0.3-0.8,0.4-1.2,0.5c-0.4,0-0.8,0-1.2-0.2L44,41c-0.5-0.2-1-0.3-1.6-0.2c-0.5,0.1-1,0.3-1.4,0.6l-7.2,5.5
			c-0.3,0.2-0.7,0.4-1.1,0.5c-0.4,0.1-0.9,0-1.3-0.1l-8.8-3c-0.8-0.3-1.6-0.3-2.2,0L0,53.4v-1.3l19.9-8.9c0.5-0.2,1-0.3,1.5-0.4
			c0.5,0,1.1,0.1,1.6,0.2l8.9,3c0.2,0.1,0.5,0.1,0.7,0.1c0.2,0,0.4-0.1,0.6-0.3l7.1-5.5c0.6-0.4,1.3-0.7,2-0.8s1.5,0,2.2,0.3L47,41
			c0.2,0.1,0.4,0.1,0.6,0.1h0.1c0.2,0,0.5-0.1,0.6-0.2l5.8-4.4c0.7-0.5,1.6-0.9,2.6-0.9c0.9,0,1.7,0.3,2.4,0.8l8.7,6.3
			c0.2,0.2,0.5,0.3,0.8,0.3c0.2,0,0.5-0.1,0.7-0.2l2.9-1.5c0.6-0.3,1.3-0.5,2-0.5s1.4,0.2,2,0.5l15.7,8.2c0.2,0.1,0.5,0.2,0.8,0.1
			c0.1,0.2,0.2,0.5,0.2,0.7C92.9,50.5,92.9,50.6,92.9,50.8z"/>
		<path class="st0" d="M100.5,48.5l-7.7,2.3c0-0.1-0.1-0.3-0.1-0.4c-0.1-0.2-0.2-0.5-0.2-0.7c-0.3-1-0.7-1.9-1.1-2.9
			C79.9,18.2,47.3,4.4,18.8,16c-6.9,2.8-13.2,7-18.5,12.3l0,0H0.2c-0.1,0-0.1,0-0.2-0.1v-0.1l0,0C21.3,3.5,58.5,0.9,83.1,22.2
			C91.2,29.2,97.2,38.3,100.5,48.5L100.5,48.5z"/>
		<path class="st0" d="M120.5,54.9v0.6l-13.3-8.9l-5.6,1.7C91.2,16.5,57.1-0.7,25.5,9.6c-8.2,2.7-15.7,7.1-22,12.9l-0.1,0.1
			c-0.1,0-0.2-0.1-0.2-0.2l0,0c0,0,0-0.1,0.1-0.1C28.6-5.6,71.7-7.6,99.5,17.7C110.3,27.5,117.6,40.6,120.5,54.9z"/>
		<path class="st0" d="M15.4,77.1v2.2c-3.8,0.1-7.5-0.8-10.9-2.6c-3-1.8-4.5-3.9-4.5-6.3s1.5-4.6,4.5-6.3c3.3-1.8,7.1-2.7,10.9-2.6
			v2.2c-2.7-0.1-5.4,0.6-7.8,2c-2.1,1.3-3.2,2.9-3.2,4.8s1.1,3.5,3.2,4.8C10,76.5,12.7,77.1,15.4,77.1z"/>
		<path class="st0" d="M42.8,77.1v2.2c-3.8,0.1-7.6-0.8-10.9-2.6c-3-1.8-4.5-3.9-4.5-6.3c0-2.5,1.5-4.6,4.5-6.3
			c3.3-1.8,7.1-2.7,10.9-2.6v2.2c-2.7-0.1-5.4,0.6-7.8,2c-2.1,1.3-3.2,2.9-3.2,4.8s1.1,3.5,3.2,4.8C37.4,76.5,40.1,77.1,42.8,77.1z"
			/>
		<path class="st0" d="M54.7,61.4h4.4v17.9h-4.4V61.4z"/>
		<path class="st0" d="M82.1,65.9l6.6-4.5h4.4v17.9h-4.4V64.8l-6.6,4.5l-6.6-4.5v14.6h-4.4v-18h4.4L82.1,65.9z"/>
		<path class="st0" d="M118.2,64.8v7.8h2.2v2.2h-2.2v4.5h-4.4v-4.5h-4.4v4.5H105v-4.5h-2.2v-2.2h2.2v-7.8c0-0.9,0.6-1.7,1.9-2.4
			c3-1.3,6.4-1.3,9.3,0C117.6,63,118.2,63.8,118.2,64.8z M109.4,64.8v7.8h4.4v-7.8c0-0.3-0.2-0.6-0.7-0.8c-1-0.4-2.1-0.4-3.1,0
			C109.7,64.2,109.4,64.4,109.4,64.8z"/>
	</g>
</g>
</svg>
