<?xml version="1.0" encoding="utf-8"?>
<!-- Generator: Adobe Illustrator 24.3.0, SVG Export Plug-In . SVG Version: 6.00 Build 0)  -->
<svg version="1.1" id="Capa_1" xmlns="http://www.w3.org/2000/svg" xmlns:xlink="http://www.w3.org/1999/xlink" x="0px" y="0px"
	 viewBox="0 0 480 480" style="enable-background:new 0 0 480 480;" xml:space="preserve">
<style type="text/css">
	.st0{fill:#002B53;}
</style>
<path class="st0" d="M376,324c-17.7,0-32-14.3-32-32v-8h16v8c0,8.8,7.2,16,16,16s16-7.2,16-16s-7.2-16-16-16c-4.4,0-8-3.6-8-8v-40
	h16v33c17.1,4.4,27.4,21.8,23,39C403.4,314.1,390.6,324,376,324z"/>
<path class="st0" d="M472,92H8c-4.4,0-8-3.6-8-8c0-2.9,1.6-5.6,4.1-7l128-72c1.2-0.7,2.5-1,3.9-1h32c0.6,0,1.2,0.1,1.8,0.2l304,72
	c4.3,1,7,5.3,5.9,9.6C478.9,89.5,475.7,92,472,92z M38.5,76h365L167.1,20h-29L38.5,76z"/>
<path class="st0" d="M352,84h48v120h-48V84z"/>
<path class="st0" d="M352,204h48v32h-48V204z"/>
<path class="st0" d="M448,396H304c-4.4,0-8-3.6-8-8c0-2.1,0.8-4.2,2.3-5.7l72-72c3.1-3.1,8.2-3.1,11.3,0l72,72
	c3.1,3.1,3.1,8.2,0,11.3C452.2,395.2,450.1,396,448,396z M323.3,380h105.4L376,327.3L323.3,380z"/>
<path class="st0" d="M272,380h208v88H272V380z"/>
<path class="st0" d="M472,76H176V12c0-4.4-3.6-8-8-8h-32c-4.4,0-8,3.6-8,8v64H8c-4.4,0-8,3.6-8,8v32c0,4.4,3.6,8,8,8h112v148.7
	l-29.7,29.7c-1.5,1.5-2.3,3.5-2.3,5.7v136c0,4.4,3.6,8,8,8h112c4.4,0,8-3.6,8-8V308c0-2.1-0.8-4.2-2.3-5.7L184,272.7V124h288
	c4.4,0,8-3.6,8-8V84C480,79.6,476.4,76,472,76L472,76z M136,276v-4.7l28.7,28.7L136,328.7V276z M139.3,348l28.7-28.7v57.4L139.3,348
	z M164.7,396L136,424.7v-57.4L164.7,396z M168,415.3V436h-20.7L168,415.3z M168,276v4.7L139.3,252l28.7-28.7V276z M136,232.7v-57.4
	l28.7,28.7L136,232.7z M139.3,156l28.7-28.7v57.4L139.3,156z M168,104.7l-3.3,3.3H136V92h32V104.7z M144,20h16v56h-16V20z M16,108
	V92h104v16H16z M148.7,124L136,136.7V124H148.7z M104,311.3l16-16V436h-16V311.3z M200,311.3V436h-16V295.3L200,311.3z M464,108H184
	V92h280V108z"/>
<path class="st0" d="M80,444h144v32H80V444z"/>
</svg>
