<?xml version="1.0" encoding="utf-8"?>
<!-- Generator: Adobe Illustrator 24.2.3, SVG Export Plug-In . SVG Version: 6.00 Build 0)  -->
<svg version="1.1" id="Capa_1" xmlns="http://www.w3.org/2000/svg" xmlns:xlink="http://www.w3.org/1999/xlink" x="0px" y="0px"
	 viewBox="0 0 455.56 380.22" style="enable-background:new 0 0 455.56 380.22;" xml:space="preserve">
<style type="text/css">
	.st0{fill:url(#SVGID_1_);}
	.st1{fill:#004E59;}
	.st2{fill:url(#SVGID_2_);}
	.st3{opacity:0.1;fill:#008996;}
	.st4{fill:#002856;}
	.st5{fill:#002856;stroke:#004E59;stroke-width:1.3961;stroke-miterlimit:10;}
	.st6{fill:url(#SVGID_3_);}
	.st7{fill:url(#SVGID_4_);}
	.st8{fill:url(#SVGID_5_);}
	.st9{opacity:0.2;}
	.st10{fill:url(#SVGID_6_);}
	.st11{opacity:0.53;}
	.st12{fill:url(#SVGID_7_);}
	.st13{fill:url(#SVGID_8_);}
	.st14{opacity:0.35;}
	.st15{fill:url(#SVGID_9_);}
	.st16{fill:url(#SVGID_10_);}
	.st17{fill:url(#SVGID_11_);}
	.st18{fill:url(#SVGID_12_);}
	.st19{fill:url(#SVGID_13_);}
	.st20{opacity:0.18;}
	.st21{fill:none;stroke:#ABCFDE;stroke-width:1.122;stroke-miterlimit:10;}
	.st22{fill:#ABCFDE;}
	.st23{fill:url(#SVGID_14_);}
	.st24{fill:url(#SVGID_15_);}
	.st25{fill:url(#SVGID_16_);}
	.st26{fill:url(#SVGID_17_);}
	.st27{fill:url(#SVGID_18_);}
	.st28{fill:url(#SVGID_19_);}
	.st29{fill:url(#SVGID_20_);}
	.st30{fill:url(#SVGID_21_);}
	.st31{fill:url(#SVGID_22_);}
	.st32{fill:url(#SVGID_23_);}
	.st33{fill:url(#SVGID_24_);}
	.st34{fill:url(#SVGID_25_);}
	.st35{opacity:0.46;}
	.st36{fill:url(#SVGID_26_);}
	.st37{fill:url(#SVGID_27_);}
	.st38{fill:url(#SVGID_28_);}
	.st39{fill:url(#SVGID_29_);}
	.st40{fill:url(#SVGID_30_);}
	.st41{fill:url(#SVGID_31_);}
	.st42{fill:url(#SVGID_32_);}
	.st43{fill:url(#SVGID_33_);}
	.st44{fill:url(#SVGID_34_);}
	.st45{fill:url(#SVGID_35_);}
	.st46{fill:url(#SVGID_36_);}
	.st47{fill:url(#SVGID_37_);}
	.st48{fill:url(#SVGID_38_);}
	.st49{fill:url(#SVGID_39_);}
	.st50{fill:url(#SVGID_40_);}
	.st51{fill:url(#SVGID_41_);}
	.st52{fill:url(#SVGID_42_);}
	.st53{fill:url(#SVGID_43_);}
	.st54{fill:url(#SVGID_44_);}
	.st55{fill:url(#SVGID_45_);}
	.st56{fill:url(#SVGID_46_);}
	.st57{fill:url(#SVGID_47_);}
	.st58{fill:url(#SVGID_48_);}
	.st59{fill:url(#SVGID_49_);}
	.st60{fill:url(#SVGID_50_);}
	.st61{fill:url(#SVGID_51_);}
	.st62{fill:url(#SVGID_52_);}
	.st63{fill:url(#SVGID_53_);}
	.st64{fill:url(#SVGID_54_);}
	.st65{fill:url(#SVGID_55_);}
	.st66{fill:url(#SVGID_56_);}
	.st67{fill:url(#SVGID_57_);}
	.st68{fill:url(#SVGID_58_);}
	.st69{fill:url(#SVGID_59_);}
	.st70{fill:url(#SVGID_60_);}
	.st71{fill:url(#SVGID_61_);}
	.st72{fill:url(#SVGID_62_);}
	.st73{fill:url(#SVGID_63_);}
	.st74{fill:#6FB1C8;}
	.st75{fill:none;stroke:#7D4E24;stroke-miterlimit:10;}
	.st76{fill:url(#SVGID_64_);}
	.st77{fill:url(#SVGID_65_);}
	.st78{fill:url(#SVGID_66_);}
	.st79{fill:url(#SVGID_67_);}
	.st80{fill:url(#SVGID_68_);}
	.st81{fill:url(#SVGID_69_);}
	.st82{fill:url(#SVGID_70_);}
	.st83{fill:url(#SVGID_71_);}
	.st84{fill:url(#SVGID_72_);}
</style>
<g>
	<linearGradient id="SVGID_1_" gradientUnits="userSpaceOnUse" x1="98.5581" y1="123.2239" x2="119.2238" y2="143.5563">
		<stop  offset="0" style="stop-color:#6FB1C8"/>
		<stop  offset="0.1521" style="stop-color:#67A7C0"/>
		<stop  offset="0.4055" style="stop-color:#528EAB"/>
		<stop  offset="0.7268" style="stop-color:#306489"/>
		<stop  offset="1" style="stop-color:#0F3C67"/>
	</linearGradient>
	<rect x="99.62" y="124.12" class="st0" width="18.65" height="18.65"/>
	<g>
		<path class="st1" d="M131.62,125.3c0.78,0,1.28,0.1,1.69,0.38c0.7,0.47,0.76,1.23,0.76,1.51c0,0.92-0.57,1.6-1.42,1.79l2,2.74
			h-1.18l-1.84-2.63h-0.17v2.63h-0.98v-6.42H131.62z M131.46,128.25h0.31c0.27,0,1.37-0.03,1.37-1.05c0-0.91-0.86-0.99-1.34-0.99
			h-0.34V128.25z"/>
		<path class="st1" d="M138.87,126.23h-2.56v1.63h2.48v0.92h-2.48v2.02h2.56v0.92h-3.54v-6.42h3.54V126.23z"/>
		<path class="st1" d="M139.85,131.72v-6.86l4.66,4.88v-4.45h0.98v6.82l-4.66-4.88v4.49H139.85z"/>
		<path class="st1" d="M148.09,125.3c0.9,0,1.68,0.1,2.39,0.63c0.78,0.59,1.23,1.52,1.23,2.59c0,1.07-0.44,1.99-1.29,2.59
			c-0.75,0.53-1.45,0.62-2.35,0.62h-1.33v-6.42H148.09z M147.73,130.8h0.42c0.48,0,1.15-0.04,1.7-0.45
			c0.44-0.34,0.88-0.95,0.88-1.83c0-0.85-0.41-1.51-0.87-1.85c-0.56-0.4-1.24-0.44-1.71-0.44h-0.42V130.8z"/>
		<path class="st1" d="M153.64,125.3v6.42h-0.98v-6.42H153.64z"/>
		<path class="st1" d="M154.7,131.72l1.35-6.9l2.23,4.99l2.25-4.99l1.21,6.9h-1l-0.65-3.87l-1.87,4.17l-1.85-4.18l-0.67,3.88H154.7z
			"/>
		<path class="st1" d="M163.79,125.3v6.42h-0.98v-6.42H163.79z"/>
		<path class="st1" d="M168.58,126.23h-2.56v1.63h2.48v0.92h-2.48v2.02h2.56v0.92h-3.54v-6.42h3.54V126.23z"/>
		<path class="st1" d="M169.56,131.72v-6.86l4.66,4.88v-4.45h0.98v6.82l-4.66-4.88v4.49H169.56z"/>
		<path class="st1" d="M178.24,126.23v5.5h-0.98v-5.5h-1.47v-0.92h3.93v0.92H178.24z"/>
		<path class="st1" d="M186.47,128.52c0,1.89-1.42,3.33-3.34,3.33c-1.92,0-3.34-1.44-3.34-3.33c0-1.89,1.42-3.33,3.34-3.33
			C185.06,125.19,186.47,126.63,186.47,128.52z M185.49,128.52c0-1.42-0.98-2.43-2.36-2.43c-1.38,0-2.36,1-2.36,2.43
			s0.98,2.43,2.36,2.43C184.51,130.94,185.49,129.94,185.49,128.52z"/>
		<path class="st1" d="M130.28,143.28l1.35-6.9l2.23,4.99l2.25-4.99l1.21,6.9h-1l-0.65-3.87l-1.87,4.17l-1.85-4.18l-0.67,3.88
			H130.28z"/>
		<path class="st1" d="M140.24,134.86l-1.34,1.55l-0.55-0.26l0.94-1.63L140.24,134.86z M139.37,136.86v6.42h-0.98v-6.42H139.37z"/>
		<path class="st1" d="M140.62,143.28v-6.86l4.66,4.88v-4.45h0.98v6.82l-4.66-4.88v4.49H140.62z"/>
		<path class="st1" d="M148.5,136.86v6.42h-0.98v-6.42H148.5z"/>
		<path class="st1" d="M149.56,143.28l1.35-6.9l2.23,4.99l2.25-4.99l1.21,6.9h-1l-0.65-3.87l-1.87,4.17l-1.85-4.18l-0.67,3.88
			H149.56z"/>
		<path class="st1" d="M164.04,140.07c0,1.89-1.42,3.33-3.34,3.33c-1.92,0-3.34-1.44-3.34-3.33c0-1.89,1.42-3.33,3.34-3.33
			C162.62,136.74,164.04,138.18,164.04,140.07z M163.06,140.07c0-1.42-0.98-2.43-2.36-2.43c-1.38,0-2.36,1-2.36,2.43
			s0.98,2.43,2.36,2.43C162.07,142.5,163.06,141.5,163.06,140.07z"/>
		<path class="st1" d="M170.71,141.73h-2.74l-0.7,1.55h-1.06l3.2-6.8l3.04,6.8h-1.06L170.71,141.73z M170.31,140.8l-0.95-2.18
			l-0.99,2.18H170.31z"/>
		<path class="st1" d="M172.96,143.28v-6.86l4.66,4.88v-4.45h0.98v6.82l-4.66-4.88v4.49H172.96z"/>
		<path class="st1" d="M180.84,136.86v3.87c0,0.35,0.01,0.77,0.2,1.11c0.19,0.33,0.63,0.66,1.19,0.66s1-0.34,1.19-0.66
			c0.19-0.34,0.2-0.76,0.2-1.11v-3.87h0.98v4.13c0,0.51-0.11,1.13-0.6,1.67c-0.34,0.37-0.91,0.75-1.78,0.75s-1.44-0.38-1.78-0.75
			c-0.49-0.54-0.6-1.16-0.6-1.67v-4.13H180.84z"/>
		<path class="st1" d="M189.64,141.73h-2.74l-0.7,1.55h-1.06l3.2-6.8l3.04,6.8h-1.06L189.64,141.73z M189.24,140.8l-0.95-2.18
			l-0.99,2.18H189.24z"/>
		<path class="st1" d="M192.87,136.86v5.5h1.89v0.92h-2.87v-6.42H192.87z"/>
	</g>
	<linearGradient id="SVGID_2_" gradientUnits="userSpaceOnUse" x1="92.9379" y1="149.0906" x2="119.2701" y2="171.4229">
		<stop  offset="0" style="stop-color:#3D597F"/>
		<stop  offset="0.3008" style="stop-color:#34537A"/>
		<stop  offset="0.8002" style="stop-color:#1B436D"/>
		<stop  offset="1" style="stop-color:#0F3C67"/>
	</linearGradient>
	<rect x="99.62" y="153.34" class="st2" width="18.65" height="18.65"/>
	<g>
		<path class="st1" d="M131.62,150.97c0.78,0,1.28,0.1,1.69,0.38c0.7,0.47,0.76,1.23,0.76,1.51c0,0.92-0.57,1.6-1.42,1.79l2,2.74
			h-1.18l-1.84-2.63h-0.17v2.63h-0.98v-6.42H131.62z M131.46,153.92h0.31c0.27,0,1.37-0.03,1.37-1.05c0-0.91-0.86-0.99-1.34-0.99
			h-0.34V153.92z"/>
		<path class="st1" d="M138.87,151.9h-2.56v1.63h2.48v0.92h-2.48v2.02h2.56v0.92h-3.54v-6.42h3.54V151.9z"/>
		<path class="st1" d="M139.85,157.4v-6.86l4.66,4.88v-4.45h0.98v6.82l-4.66-4.88v4.49H139.85z"/>
		<path class="st1" d="M148.09,150.97c0.9,0,1.68,0.1,2.39,0.63c0.78,0.59,1.23,1.52,1.23,2.59c0,1.07-0.44,1.99-1.29,2.59
			c-0.75,0.53-1.45,0.62-2.35,0.62h-1.33v-6.42H148.09z M147.73,156.47h0.42c0.48,0,1.15-0.04,1.7-0.45
			c0.44-0.34,0.88-0.95,0.88-1.83c0-0.85-0.41-1.51-0.87-1.85c-0.56-0.4-1.24-0.44-1.71-0.44h-0.42V156.47z"/>
		<path class="st1" d="M153.64,150.97v6.42h-0.98v-6.42H153.64z"/>
		<path class="st1" d="M154.7,157.4l1.35-6.9l2.23,4.99l2.25-4.99l1.21,6.9h-1l-0.65-3.87l-1.87,4.17l-1.85-4.18l-0.67,3.88H154.7z"
			/>
		<path class="st1" d="M163.79,150.97v6.42h-0.98v-6.42H163.79z"/>
		<path class="st1" d="M168.58,151.9h-2.56v1.63h2.48v0.92h-2.48v2.02h2.56v0.92h-3.54v-6.42h3.54V151.9z"/>
		<path class="st1" d="M169.56,157.4v-6.86l4.66,4.88v-4.45h0.98v6.82l-4.66-4.88v4.49H169.56z"/>
		<path class="st1" d="M178.24,151.9v5.5h-0.98v-5.5h-1.47v-0.92h3.93v0.92H178.24z"/>
		<path class="st1" d="M186.47,154.19c0,1.89-1.42,3.33-3.34,3.33c-1.92,0-3.34-1.44-3.34-3.33c0-1.89,1.42-3.33,3.34-3.33
			C185.06,150.86,186.47,152.3,186.47,154.19z M185.49,154.19c0-1.42-0.98-2.43-2.36-2.43c-1.38,0-2.36,1-2.36,2.43
			s0.98,2.43,2.36,2.43C184.51,156.62,185.49,155.62,185.49,154.19z"/>
		<path class="st1" d="M130.28,168.95l1.35-6.9l2.23,4.99l2.25-4.99l1.21,6.9h-1l-0.65-3.87l-1.87,4.17l-1.85-4.18l-0.67,3.88
			H130.28z"/>
		<path class="st1" d="M142.16,167.4h-2.74l-0.7,1.55h-1.06l3.2-6.8l3.04,6.8h-1.06L142.16,167.4z M141.77,166.48l-0.95-2.18
			l-0.99,2.18H141.77z M140.16,161.57l1.33-1.34l0.83,0.58l-1.69,1.15L140.16,161.57z"/>
		<path class="st1" d="M145.76,165.6l-1.77-3.07h1.1l1.25,2.18l1.28-2.18h1.1l-1.85,3.07l1.94,3.35h-1.1l-1.41-2.46l-1.46,2.46h-1.1
			L145.76,165.6z"/>
		<path class="st1" d="M150.37,162.53v6.42h-0.98v-6.42H150.37z"/>
		<path class="st1" d="M151.43,168.95l1.35-6.9l2.23,4.99l2.25-4.99l1.21,6.9h-1l-0.65-3.87l-1.87,4.17l-1.85-4.18l-0.67,3.88
			H151.43z"/>
		<path class="st1" d="M165.91,165.74c0,1.89-1.42,3.33-3.34,3.33c-1.92,0-3.34-1.44-3.34-3.33c0-1.89,1.42-3.33,3.34-3.33
			C164.49,162.41,165.91,163.86,165.91,165.74z M164.92,165.74c0-1.42-0.98-2.43-2.36-2.43c-1.38,0-2.36,1-2.36,2.43
			s0.98,2.43,2.36,2.43C163.94,168.17,164.92,167.17,164.92,165.74z"/>
		<path class="st1" d="M172.58,167.4h-2.74l-0.7,1.55h-1.06l3.2-6.8l3.04,6.8h-1.06L172.58,167.4z M172.18,166.48l-0.95-2.18
			l-0.99,2.18H172.18z"/>
		<path class="st1" d="M174.83,168.95v-6.86l4.66,4.88v-4.45h0.98v6.82l-4.66-4.88v4.49H174.83z"/>
		<path class="st1" d="M182.71,162.53v3.87c0,0.35,0.01,0.77,0.2,1.11c0.19,0.33,0.63,0.66,1.19,0.66s1-0.34,1.19-0.66
			c0.19-0.34,0.2-0.76,0.2-1.11v-3.87h0.98v4.13c0,0.51-0.11,1.13-0.6,1.67c-0.34,0.37-0.91,0.75-1.78,0.75s-1.44-0.38-1.78-0.75
			c-0.49-0.54-0.6-1.16-0.6-1.67v-4.13H182.71z"/>
		<path class="st1" d="M191.51,167.4h-2.74l-0.7,1.55H187l3.2-6.8l3.04,6.8h-1.06L191.51,167.4z M191.11,166.48l-0.95-2.18
			l-0.99,2.18H191.11z"/>
		<path class="st1" d="M194.74,162.53v5.5h1.89v0.92h-2.87v-6.42H194.74z"/>
	</g>
	<rect x="81.98" y="307.52" class="st3" width="363.51" height="15.55"/>
	<g>
		<g>
			<path class="st4" d="M16.72,71.95c0.03-0.59,0.22-1.14,0.5-1.57c0.7-1.1,1.84-1.25,2.48-1.25c2.02,0,3.01,1.41,3.01,2.88
				c0,0.77-0.29,1.83-1.38,2.37c0.37,0.14,1.54,0.74,1.54,2.58c0,2-1.46,3.22-3.28,3.22c-1.1,0-2.4-0.46-2.98-1.84
				c-0.16-0.38-0.22-0.74-0.24-1.12h1.18c0.05,0.38,0.18,0.79,0.38,1.07c0.35,0.51,0.98,0.8,1.65,0.8c1.18,0,2.1-0.98,2.1-2.16
				c0-0.61-0.24-1.42-1.06-1.79c-0.34-0.16-0.8-0.24-1.22-0.22v-1.06c0.42,0.03,0.88-0.05,1.22-0.22s0.9-0.62,0.9-1.58
				c0-0.94-0.51-1.82-1.83-1.82c-0.43,0-0.96,0.08-1.38,0.61c-0.21,0.27-0.38,0.67-0.42,1.12H16.72z"/>
			<path class="st4" d="M31.13,69.73l-2.45,3.41c0.3-0.1,0.61-0.14,0.94-0.14c2.05,0,3.46,1.54,3.46,3.52
				c0,2.13-1.54,3.67-3.67,3.67c-2.51,0-3.7-1.95-3.7-3.63c0-0.4,0.08-1.33,0.88-2.45l3.63-5.04L31.13,69.73z M31.9,76.55
				c0-1.42-1.06-2.46-2.51-2.46c-1.46,0-2.48,1.07-2.48,2.46c0,1.42,1.01,2.54,2.5,2.54C30.88,79.09,31.9,77.99,31.9,76.55z"/>
			<path class="st4" d="M39.55,71.54c0,1.3-1.02,2.32-2.32,2.32c-1.3,0-2.32-1.02-2.32-2.32c0-1.3,1.02-2.32,2.32-2.32
				C38.53,69.22,39.55,70.24,39.55,71.54z M38.59,71.54c0-0.78-0.58-1.44-1.36-1.44c-0.75,0-1.36,0.64-1.36,1.44
				c0,0.8,0.61,1.44,1.36,1.44C38.01,72.98,38.59,72.32,38.59,71.54z M42.86,69.1l0.62,0.35L37.26,80.2l-0.62-0.37L42.86,69.1z
				 M45.22,77.78c0,1.3-1.02,2.32-2.32,2.32c-1.3,0-2.32-1.02-2.32-2.32s1.02-2.32,2.32-2.32C44.19,75.46,45.22,76.48,45.22,77.78z
				 M44.26,77.78c0-0.78-0.58-1.44-1.36-1.44c-0.75,0-1.36,0.64-1.36,1.44c0,0.8,0.61,1.44,1.36,1.44
				C43.68,79.22,44.26,78.56,44.26,77.78z"/>
			<path class="st4" d="M16.72,104.95c0.03-0.59,0.22-1.14,0.5-1.57c0.7-1.1,1.84-1.25,2.48-1.25c2.02,0,3.01,1.41,3.01,2.88
				c0,0.77-0.29,1.83-1.38,2.37c0.37,0.14,1.54,0.74,1.54,2.58c0,2-1.46,3.22-3.28,3.22c-1.1,0-2.4-0.46-2.98-1.84
				c-0.16-0.38-0.22-0.74-0.24-1.12h1.18c0.05,0.38,0.18,0.79,0.38,1.07c0.35,0.51,0.98,0.8,1.65,0.8c1.18,0,2.1-0.98,2.1-2.16
				c0-0.61-0.24-1.42-1.06-1.79c-0.34-0.16-0.8-0.24-1.22-0.22v-1.06c0.42,0.03,0.88-0.05,1.22-0.22s0.9-0.62,0.9-1.58
				c0-0.94-0.51-1.82-1.83-1.82c-0.43,0-0.96,0.08-1.38,0.61c-0.21,0.27-0.38,0.67-0.42,1.12H16.72z"/>
			<path class="st4" d="M26.67,111.58c-0.7-1.02-1.07-2.4-1.07-3.92s0.37-2.9,1.07-3.92c0.82-1.18,1.89-1.6,2.74-1.6
				s1.92,0.42,2.74,1.6c0.7,1.02,1.07,2.4,1.07,3.92s-0.37,2.9-1.07,3.92c-0.82,1.18-1.89,1.6-2.74,1.6S27.48,112.77,26.67,111.58z
				 M27.56,104.41c-0.58,0.91-0.78,2.13-0.78,3.25s0.21,2.34,0.78,3.25c0.56,0.9,1.3,1.18,1.84,1.18s1.28-0.29,1.84-1.18
				c0.58-0.91,0.78-2.13,0.78-3.25s-0.21-2.34-0.78-3.25c-0.56-0.9-1.3-1.18-1.84-1.18S28.13,103.51,27.56,104.41z"/>
			<path class="st4" d="M39.55,104.54c0,1.3-1.02,2.32-2.32,2.32c-1.3,0-2.32-1.02-2.32-2.32c0-1.3,1.02-2.32,2.32-2.32
				C38.53,102.22,39.55,103.24,39.55,104.54z M38.59,104.54c0-0.78-0.58-1.44-1.36-1.44c-0.75,0-1.36,0.64-1.36,1.44
				c0,0.8,0.61,1.44,1.36,1.44C38.01,105.98,38.59,105.32,38.59,104.54z M42.86,102.1l0.62,0.35l-6.23,10.74l-0.62-0.37L42.86,102.1
				z M45.22,110.78c0,1.3-1.02,2.32-2.32,2.32c-1.3,0-2.32-1.02-2.32-2.32s1.02-2.32,2.32-2.32
				C44.19,108.46,45.22,109.48,45.22,110.78z M44.26,110.78c0-0.78-0.58-1.44-1.36-1.44c-0.75,0-1.36,0.64-1.36,1.44
				c0,0.8,0.61,1.44,1.36,1.44C43.68,112.22,44.26,111.56,44.26,110.78z"/>
			<path class="st4" d="M16.14,145.99l3.89-4.5c0.27-0.32,0.99-1.17,1.25-1.55c0.48-0.69,0.59-1.2,0.59-1.63
				c0-1.2-0.86-2.08-2.13-2.08c-0.75,0-1.38,0.34-1.78,0.94c-0.21,0.32-0.34,0.72-0.35,1.26h-1.18c0.05-1.07,0.38-1.73,0.8-2.21
				c0.45-0.51,1.2-1.09,2.53-1.09c1.89,0,3.3,1.34,3.3,3.19c0,0.72-0.21,1.38-0.85,2.29c-0.45,0.62-1.02,1.28-1.46,1.78l-2.22,2.51
				h4.51v1.09H16.14z"/>
			<path class="st4" d="M31.94,136.4h-3.42l-0.69,2.3c0.21-0.05,0.42-0.06,0.67-0.06c2.14,0,3.52,1.62,3.52,3.7
				c0,2.38-1.79,3.84-3.89,3.84c-0.86,0-1.66-0.24-2.38-0.83c-0.34-0.29-0.67-0.66-0.93-1.09l0.94-0.67
				c0.18,0.35,0.4,0.61,0.72,0.86c0.45,0.37,0.99,0.64,1.73,0.64c1.5,0,2.63-1.23,2.63-2.74c0-1.54-1.1-2.63-2.63-2.63
				c-0.38,0-1.1,0.06-2.06,0.74l1.55-5.15h4.24V136.4z"/>
			<path class="st4" d="M38.96,137.54c0,1.3-1.02,2.32-2.32,2.32c-1.3,0-2.32-1.02-2.32-2.32c0-1.3,1.02-2.32,2.32-2.32
				C37.93,135.22,38.96,136.24,38.96,137.54z M38,137.54c0-0.78-0.58-1.44-1.36-1.44c-0.75,0-1.36,0.64-1.36,1.44
				c0,0.8,0.61,1.44,1.36,1.44C37.42,138.98,38,138.32,38,137.54z M42.27,135.1l0.62,0.35l-6.23,10.74l-0.62-0.37L42.27,135.1z
				 M44.62,143.78c0,1.3-1.02,2.32-2.32,2.32c-1.3,0-2.32-1.02-2.32-2.32s1.02-2.32,2.32-2.32
				C43.6,141.46,44.62,142.48,44.62,143.78z M43.66,143.78c0-0.78-0.58-1.44-1.36-1.44c-0.75,0-1.36,0.64-1.36,1.44
				c0,0.8,0.61,1.44,1.36,1.44C43.09,145.22,43.66,144.56,43.66,143.78z"/>
			<path class="st4" d="M16.14,178.99l3.89-4.5c0.27-0.32,0.99-1.17,1.25-1.55c0.48-0.69,0.59-1.2,0.59-1.63
				c0-1.2-0.86-2.08-2.13-2.08c-0.75,0-1.38,0.34-1.78,0.94c-0.21,0.32-0.34,0.72-0.35,1.26h-1.18c0.05-1.07,0.38-1.73,0.8-2.21
				c0.45-0.51,1.2-1.09,2.53-1.09c1.89,0,3.3,1.34,3.3,3.19c0,0.72-0.21,1.38-0.85,2.29c-0.45,0.62-1.02,1.28-1.46,1.78l-2.22,2.51
				h4.51v1.09H16.14z"/>
			<path class="st4" d="M26.27,177.58c-0.7-1.02-1.07-2.4-1.07-3.92s0.37-2.9,1.07-3.92c0.82-1.18,1.89-1.6,2.74-1.6
				s1.92,0.42,2.74,1.6c0.7,1.02,1.07,2.4,1.07,3.92s-0.37,2.9-1.07,3.92c-0.82,1.18-1.89,1.6-2.74,1.6S27.08,178.77,26.27,177.58z
				 M27.16,170.41c-0.58,0.91-0.78,2.13-0.78,3.25s0.21,2.34,0.78,3.25c0.56,0.9,1.3,1.18,1.84,1.18s1.28-0.29,1.84-1.18
				c0.58-0.91,0.78-2.13,0.78-3.25s-0.21-2.34-0.78-3.25c-0.56-0.9-1.3-1.18-1.84-1.18S27.73,169.51,27.16,170.41z"/>
			<path class="st4" d="M39.15,170.54c0,1.3-1.02,2.32-2.32,2.32c-1.3,0-2.32-1.02-2.32-2.32c0-1.3,1.02-2.32,2.32-2.32
				C38.13,168.22,39.15,169.24,39.15,170.54z M38.19,170.54c0-0.78-0.58-1.44-1.36-1.44c-0.75,0-1.36,0.64-1.36,1.44
				c0,0.8,0.61,1.44,1.36,1.44C37.61,171.98,38.19,171.32,38.19,170.54z M42.46,168.1l0.62,0.35l-6.23,10.74l-0.62-0.37L42.46,168.1
				z M44.82,176.78c0,1.3-1.02,2.32-2.32,2.32c-1.3,0-2.32-1.02-2.32-2.32s1.02-2.32,2.32-2.32
				C43.79,174.46,44.82,175.48,44.82,176.78z M43.86,176.78c0-0.78-0.58-1.44-1.36-1.44c-0.75,0-1.36,0.64-1.36,1.44
				c0,0.8,0.61,1.44,1.36,1.44C43.28,178.22,43.86,177.56,43.86,176.78z"/>
			<path class="st4" d="M19.6,202.43h-1.79l0.62-1.12h2.35v10.68H19.6V202.43z"/>
			<path class="st4" d="M30.53,202.4H27.1l-0.69,2.3c0.21-0.05,0.42-0.06,0.67-0.06c2.14,0,3.52,1.62,3.52,3.7
				c0,2.38-1.79,3.84-3.89,3.84c-0.86,0-1.66-0.24-2.38-0.83c-0.34-0.29-0.67-0.66-0.93-1.09l0.94-0.67
				c0.18,0.35,0.4,0.61,0.72,0.86c0.45,0.37,0.99,0.64,1.73,0.64c1.5,0,2.63-1.23,2.63-2.74c0-1.54-1.1-2.63-2.63-2.63
				c-0.38,0-1.1,0.06-2.06,0.74l1.55-5.15h4.24V202.4z"/>
			<path class="st4" d="M37.55,203.54c0,1.3-1.02,2.32-2.32,2.32c-1.3,0-2.32-1.02-2.32-2.32c0-1.3,1.02-2.32,2.32-2.32
				C36.53,201.22,37.55,202.24,37.55,203.54z M36.59,203.54c0-0.78-0.58-1.44-1.36-1.44c-0.75,0-1.36,0.64-1.36,1.44
				c0,0.8,0.61,1.44,1.36,1.44C36.01,204.98,36.59,204.32,36.59,203.54z M40.86,201.1l0.62,0.35l-6.23,10.74l-0.62-0.37L40.86,201.1
				z M43.22,209.78c0,1.3-1.02,2.32-2.32,2.32c-1.3,0-2.32-1.02-2.32-2.32s1.02-2.32,2.32-2.32
				C42.19,207.46,43.22,208.48,43.22,209.78z M42.26,209.78c0-0.78-0.58-1.44-1.36-1.44c-0.75,0-1.36,0.64-1.36,1.44
				c0,0.8,0.61,1.44,1.36,1.44C41.68,211.22,42.26,210.56,42.26,209.78z"/>
			<path class="st4" d="M19.6,235.43h-1.79l0.62-1.12h2.35v10.68H19.6V235.43z"/>
			<path class="st4" d="M25.66,243.58c-0.7-1.02-1.07-2.4-1.07-3.92s0.37-2.9,1.07-3.92c0.82-1.18,1.89-1.6,2.74-1.6
				s1.92,0.42,2.74,1.6c0.7,1.02,1.07,2.4,1.07,3.92s-0.37,2.9-1.07,3.92c-0.82,1.18-1.89,1.6-2.74,1.6S26.48,244.77,25.66,243.58z
				 M26.56,236.41c-0.58,0.91-0.78,2.13-0.78,3.25s0.21,2.34,0.78,3.25c0.56,0.9,1.3,1.18,1.84,1.18s1.28-0.29,1.84-1.18
				c0.58-0.91,0.78-2.13,0.78-3.25s-0.21-2.34-0.78-3.25c-0.56-0.9-1.3-1.18-1.84-1.18S27.12,235.51,26.56,236.41z"/>
			<path class="st4" d="M38.54,236.54c0,1.3-1.02,2.32-2.32,2.32c-1.3,0-2.32-1.02-2.32-2.32c0-1.3,1.02-2.32,2.32-2.32
				C37.52,234.22,38.54,235.24,38.54,236.54z M37.58,236.54c0-0.78-0.58-1.44-1.36-1.44c-0.75,0-1.36,0.64-1.36,1.44
				c0,0.8,0.61,1.44,1.36,1.44C37.01,237.98,37.58,237.32,37.58,236.54z M41.86,234.1l0.62,0.35l-6.23,10.74l-0.62-0.37L41.86,234.1
				z M44.21,242.78c0,1.3-1.02,2.32-2.32,2.32c-1.3,0-2.32-1.02-2.32-2.32s1.02-2.32,2.32-2.32
				C43.18,240.46,44.21,241.48,44.21,242.78z M43.25,242.78c0-0.78-0.58-1.44-1.36-1.44c-0.75,0-1.36,0.64-1.36,1.44
				c0,0.8,0.61,1.44,1.36,1.44C42.67,244.22,43.25,243.56,43.25,242.78z"/>
			<path class="st4" d="M23.01,268.4h-3.42l-0.69,2.3c0.21-0.05,0.42-0.06,0.67-0.06c2.14,0,3.52,1.62,3.52,3.7
				c0,2.38-1.79,3.84-3.89,3.84c-0.86,0-1.66-0.24-2.38-0.83c-0.34-0.29-0.67-0.66-0.93-1.09l0.94-0.67
				c0.18,0.35,0.4,0.61,0.72,0.86c0.45,0.37,0.99,0.64,1.73,0.64c1.5,0,2.63-1.23,2.63-2.74c0-1.54-1.1-2.63-2.63-2.63
				c-0.38,0-1.1,0.06-2.06,0.74l1.55-5.15h4.24V268.4z"/>
			<path class="st4" d="M30.03,269.54c0,1.3-1.02,2.32-2.32,2.32c-1.3,0-2.32-1.02-2.32-2.32c0-1.3,1.02-2.32,2.32-2.32
				C29.01,267.22,30.03,268.24,30.03,269.54z M29.07,269.54c0-0.78-0.58-1.44-1.36-1.44c-0.75,0-1.36,0.64-1.36,1.44
				c0,0.8,0.61,1.44,1.36,1.44C28.49,270.98,29.07,270.32,29.07,269.54z M33.34,267.1l0.62,0.35l-6.23,10.74l-0.62-0.37L33.34,267.1
				z M35.7,275.78c0,1.3-1.02,2.32-2.32,2.32c-1.3,0-2.32-1.02-2.32-2.32s1.02-2.32,2.32-2.32C34.67,273.46,35.7,274.48,35.7,275.78
				z M34.74,275.78c0-0.78-0.58-1.44-1.36-1.44c-0.75,0-1.36,0.64-1.36,1.44c0,0.8,0.61,1.44,1.36,1.44
				C34.16,277.22,34.74,276.56,34.74,275.78z"/>
			<path class="st4" d="M17.15,309.58c-0.7-1.02-1.07-2.4-1.07-3.92s0.37-2.9,1.07-3.92c0.82-1.18,1.89-1.6,2.74-1.6
				s1.92,0.42,2.74,1.6c0.7,1.02,1.07,2.4,1.07,3.92s-0.37,2.9-1.07,3.92c-0.82,1.18-1.89,1.6-2.74,1.6S17.97,310.77,17.15,309.58z
				 M18.05,302.41c-0.58,0.91-0.78,2.13-0.78,3.25s0.21,2.34,0.78,3.25c0.56,0.9,1.3,1.18,1.84,1.18s1.28-0.29,1.84-1.18
				c0.58-0.91,0.78-2.13,0.78-3.25s-0.21-2.34-0.78-3.25c-0.56-0.9-1.3-1.18-1.84-1.18S18.61,301.51,18.05,302.41z"/>
			<path class="st4" d="M30.03,302.54c0,1.3-1.02,2.32-2.32,2.32c-1.3,0-2.32-1.02-2.32-2.32c0-1.3,1.02-2.32,2.32-2.32
				C29.01,300.22,30.03,301.24,30.03,302.54z M29.07,302.54c0-0.78-0.58-1.44-1.36-1.44c-0.75,0-1.36,0.64-1.36,1.44
				c0,0.8,0.61,1.44,1.36,1.44C28.49,303.98,29.07,303.32,29.07,302.54z M33.34,300.1l0.62,0.35l-6.23,10.74l-0.62-0.37L33.34,300.1
				z M35.7,308.78c0,1.3-1.02,2.32-2.32,2.32c-1.3,0-2.32-1.02-2.32-2.32s1.02-2.32,2.32-2.32C34.67,306.46,35.7,307.48,35.7,308.78
				z M34.74,308.78c0-0.78-0.58-1.44-1.36-1.44c-0.75,0-1.36,0.64-1.36,1.44c0,0.8,0.61,1.44,1.36,1.44
				C34.16,310.22,34.74,309.56,34.74,308.78z"/>
		</g>
	</g>
	<line class="st5" x1="54.44" y1="68.33" x2="54.44" y2="322.7"/>
	<g>
		<g>
			<linearGradient id="SVGID_3_" gradientUnits="userSpaceOnUse" x1="317.1354" y1="211.1969" x2="393.1542" y2="287.2157">
				<stop  offset="0" style="stop-color:#3D597F"/>
				<stop  offset="0.3008" style="stop-color:#34537A"/>
				<stop  offset="0.8002" style="stop-color:#1B436D"/>
				<stop  offset="1" style="stop-color:#0F3C67"/>
			</linearGradient>
			<polygon class="st6" points="363.96,176.92 364.55,315.82 347.28,322.45 347.31,181.02 			"/>
		</g>
		<g>
			<linearGradient id="SVGID_4_" gradientUnits="userSpaceOnUse" x1="304.0272" y1="209.187" x2="382.2811" y2="287.4409">
				<stop  offset="0" style="stop-color:#3D597F"/>
				<stop  offset="0.3008" style="stop-color:#34537A"/>
				<stop  offset="0.8002" style="stop-color:#1B436D"/>
				<stop  offset="1" style="stop-color:#0F3C67"/>
			</linearGradient>
			<polygon class="st7" points="347.28,322.45 336.38,312.99 338.08,175.14 347.31,181.02 			"/>
		</g>
		<g>
			<linearGradient id="SVGID_5_" gradientUnits="userSpaceOnUse" x1="338.0773" y1="176.328" x2="363.9645" y2="176.328">
				<stop  offset="0" style="stop-color:#3D597F"/>
				<stop  offset="0.3008" style="stop-color:#34537A"/>
				<stop  offset="0.8002" style="stop-color:#1B436D"/>
				<stop  offset="1" style="stop-color:#0F3C67"/>
			</linearGradient>
			<polygon class="st8" points="347.31,181.02 338.08,175.14 354.77,171.63 363.96,176.92 			"/>
		</g>
		<g class="st9">
			<linearGradient id="SVGID_6_" gradientUnits="userSpaceOnUse" x1="340.7301" y1="307.8085" x2="340.7301" y2="175.1369">
				<stop  offset="0" style="stop-color:#3D597F"/>
				<stop  offset="0.3008" style="stop-color:#34537A"/>
				<stop  offset="0.8002" style="stop-color:#1B436D"/>
				<stop  offset="1" style="stop-color:#0F3C67"/>
			</linearGradient>
			<polygon class="st10" points="337.42,307.81 338.08,175.14 344.04,178.94 			"/>
		</g>
		<g class="st11">
			<g>
				<linearGradient id="SVGID_7_" gradientUnits="userSpaceOnUse" x1="338.0773" y1="178.0791" x2="363.9645" y2="178.0791">
					<stop  offset="0" style="stop-color:#3D597F"/>
					<stop  offset="0.3008" style="stop-color:#34537A"/>
					<stop  offset="0.8002" style="stop-color:#1B436D"/>
					<stop  offset="1" style="stop-color:#0F3C67"/>
				</linearGradient>
				<polyline class="st12" points="363.96,176.92 347.31,181.02 338.08,175.14 				"/>
			</g>
			<linearGradient id="SVGID_8_" gradientUnits="userSpaceOnUse" x1="347.2764" y1="251.7335" x2="347.311" y2="251.7335">
				<stop  offset="0" style="stop-color:#3D597F"/>
				<stop  offset="0.3008" style="stop-color:#34537A"/>
				<stop  offset="0.8002" style="stop-color:#1B436D"/>
				<stop  offset="1" style="stop-color:#0F3C67"/>
			</linearGradient>
			<line class="st13" x1="347.31" y1="181.02" x2="347.28" y2="322.45"/>
		</g>
		<g class="st14">
			<linearGradient id="SVGID_9_" gradientUnits="userSpaceOnUse" x1="346.4213" y1="178.7426" x2="346.4213" y2="171.6348">
				<stop  offset="0" style="stop-color:#3D597F"/>
				<stop  offset="0.3008" style="stop-color:#34537A"/>
				<stop  offset="0.8002" style="stop-color:#1B436D"/>
				<stop  offset="1" style="stop-color:#0F3C67"/>
			</linearGradient>
			<polygon class="st15" points="345.02,178.74 338.08,175.14 354.77,171.63 			"/>
		</g>
	</g>
	<g>
		<linearGradient id="SVGID_10_" gradientUnits="userSpaceOnUse" x1="303.6252" y1="230.9909" x2="366.2297" y2="293.5953">
			<stop  offset="0" style="stop-color:#6FB1C8"/>
			<stop  offset="0.1521" style="stop-color:#67A7C0"/>
			<stop  offset="0.4055" style="stop-color:#528EAB"/>
			<stop  offset="0.7268" style="stop-color:#306489"/>
			<stop  offset="1" style="stop-color:#0F3C67"/>
		</linearGradient>
		<polygon class="st16" points="343.88,204.37 343.38,316.45 327.47,321.72 327.51,207.11 		"/>
	</g>
	<g>
		<linearGradient id="SVGID_11_" gradientUnits="userSpaceOnUse" x1="291.6123" y1="229.5129" x2="355.6451" y2="293.5457">
			<stop  offset="0" style="stop-color:#6FB1C8"/>
			<stop  offset="0.1521" style="stop-color:#67A7C0"/>
			<stop  offset="0.4055" style="stop-color:#528EAB"/>
			<stop  offset="0.7268" style="stop-color:#306489"/>
			<stop  offset="1" style="stop-color:#0F3C67"/>
		</linearGradient>
		<polygon class="st17" points="327.47,321.72 318.4,314.6 318,203.13 327.51,207.11 		"/>
	</g>
	<g>
		<linearGradient id="SVGID_12_" gradientUnits="userSpaceOnUse" x1="317.9952" y1="203.9382" x2="343.8824" y2="203.9382">
			<stop  offset="0" style="stop-color:#6FB1C8"/>
			<stop  offset="0.1521" style="stop-color:#67A7C0"/>
			<stop  offset="0.4055" style="stop-color:#528EAB"/>
			<stop  offset="0.7268" style="stop-color:#306489"/>
			<stop  offset="1" style="stop-color:#0F3C67"/>
		</linearGradient>
		<polygon class="st18" points="327.51,207.11 318,203.13 334.66,200.77 343.88,204.37 		"/>
	</g>
	<g class="st9">
		<linearGradient id="SVGID_13_" gradientUnits="userSpaceOnUse" x1="321.2348" y1="314.5983" x2="321.2348" y2="203.13">
			<stop  offset="0" style="stop-color:#FFFFFF;stop-opacity:0.15"/>
			<stop  offset="1" style="stop-color:#FFFFFF"/>
		</linearGradient>
		<polygon class="st19" points="318.4,314.6 318,203.13 324.47,205.84 		"/>
	</g>
	<g>
		<g class="st20">
			<polyline class="st21" points="343.88,204.37 327.51,207.11 318,203.13 			"/>
		</g>
		<g class="st20">
			<polygon class="st22" points="328.07,207.11 327.48,321.72 326.95,207.11 			"/>
		</g>
	</g>
	<g class="st14">
		<linearGradient id="SVGID_14_" gradientUnits="userSpaceOnUse" x1="326.3289" y1="205.8406" x2="326.3289" y2="200.7672">
			<stop  offset="0" style="stop-color:#FFFFFF;stop-opacity:0.15"/>
			<stop  offset="0.9675" style="stop-color:#FFFFFF;stop-opacity:0.9724"/>
			<stop  offset="1" style="stop-color:#FFFFFF"/>
		</linearGradient>
		<polygon class="st23" points="324.47,205.84 318,203.13 334.66,200.77 		"/>
	</g>
	<g>
		<path class="st1" d="M344.27,165.92l2.34-2.71c0.16-0.19,0.6-0.7,0.75-0.93c0.29-0.41,0.36-0.72,0.36-0.98
			c0-0.72-0.52-1.25-1.28-1.25c-0.45,0-0.83,0.2-1.07,0.57c-0.13,0.19-0.2,0.43-0.21,0.76h-0.71c0.03-0.64,0.23-1.04,0.48-1.33
			c0.27-0.31,0.72-0.66,1.52-0.66c1.14,0,1.98,0.81,1.98,1.92c0,0.43-0.13,0.83-0.51,1.38c-0.27,0.38-0.62,0.77-0.88,1.07
			l-1.34,1.51h2.71v0.65H344.27z"/>
		<path class="st1" d="M349.82,165.07c-0.42-0.62-0.64-1.44-0.64-2.36c0-0.92,0.22-1.74,0.64-2.36c0.49-0.71,1.14-0.96,1.65-0.96
			c0.51,0,1.16,0.25,1.65,0.96c0.42,0.62,0.65,1.44,0.65,2.36c0,0.91-0.22,1.74-0.65,2.36c-0.49,0.71-1.14,0.96-1.65,0.96
			C350.96,166.03,350.31,165.78,349.82,165.07z M350.36,160.76c-0.35,0.55-0.47,1.28-0.47,1.96s0.13,1.41,0.47,1.95
			c0.34,0.54,0.78,0.71,1.11,0.71s0.77-0.17,1.11-0.71c0.35-0.55,0.47-1.28,0.47-1.95s-0.13-1.41-0.47-1.96
			c-0.34-0.54-0.78-0.71-1.11-0.71S350.7,160.22,350.36,160.76z"/>
		<path class="st1" d="M357.02,160.83c0,0.78-0.62,1.4-1.4,1.4s-1.4-0.62-1.4-1.4c0-0.78,0.62-1.4,1.4-1.4
			S357.02,160.06,357.02,160.83z M356.44,160.83c0-0.47-0.35-0.87-0.82-0.87c-0.45,0-0.82,0.38-0.82,0.87s0.37,0.87,0.82,0.87
			C356.1,161.7,356.44,161.31,356.44,160.83z M359.02,159.37l0.38,0.21l-3.75,6.46l-0.38-0.22L359.02,159.37z M360.43,164.59
			c0,0.78-0.62,1.4-1.4,1.4c-0.78,0-1.4-0.62-1.4-1.4c0-0.78,0.62-1.4,1.4-1.4C359.81,163.19,360.43,163.81,360.43,164.59z
			 M359.85,164.59c0-0.47-0.35-0.87-0.82-0.87c-0.45,0-0.82,0.38-0.82,0.87s0.37,0.87,0.82,0.87
			C359.51,165.46,359.85,165.06,359.85,164.59z"/>
	</g>
	<g>
		<path class="st4" d="M340.67,336.11c0,1.89-1.42,3.33-3.34,3.33c-1.92,0-3.34-1.44-3.34-3.33c0-1.89,1.42-3.33,3.34-3.33
			C339.25,332.77,340.67,334.22,340.67,336.11z M339.69,336.11c0-1.42-0.98-2.43-2.36-2.43c-1.38,0-2.36,1-2.36,2.43
			s0.98,2.43,2.36,2.43C338.7,338.53,339.69,337.53,339.69,336.11z"/>
		<path class="st4" d="M342.76,332.89c0.78,0,1.28,0.1,1.69,0.38c0.7,0.47,0.76,1.23,0.76,1.51c0,0.92-0.57,1.6-1.42,1.79l2,2.74
			h-1.18l-1.84-2.63h-0.17v2.63h-0.98v-6.42H342.76z M342.59,335.84h0.31c0.27,0,1.37-0.03,1.37-1.05c0-0.91-0.86-0.99-1.34-0.99
			h-0.34V335.84z"/>
		<path class="st4" d="M352.84,336.11c0,1.89-1.42,3.33-3.34,3.33c-1.92,0-3.34-1.44-3.34-3.33c0-1.89,1.42-3.33,3.34-3.33
			C351.42,332.77,352.84,334.22,352.84,336.11z M351.86,336.11c0-1.42-0.98-2.43-2.36-2.43c-1.38,0-2.36,1-2.36,2.43
			s0.98,2.43,2.36,2.43C350.87,338.53,351.86,337.53,351.86,336.11z"/>
	</g>
	<g>
		<g>
			<linearGradient id="SVGID_15_" gradientUnits="userSpaceOnUse" x1="258.0769" y1="251.631" x2="307.9106" y2="301.4647">
				<stop  offset="0" style="stop-color:#3D597F"/>
				<stop  offset="0.3008" style="stop-color:#34537A"/>
				<stop  offset="0.8002" style="stop-color:#1B436D"/>
				<stop  offset="1" style="stop-color:#0F3C67"/>
			</linearGradient>
			<polygon class="st24" points="291.65,230.94 291.61,317.76 274.34,322.16 274.37,235.33 			"/>
		</g>
		<g>
			<linearGradient id="SVGID_16_" gradientUnits="userSpaceOnUse" x1="244.3744" y1="248.8399" x2="296.014" y2="300.4795">
				<stop  offset="0" style="stop-color:#3D597F"/>
				<stop  offset="0.3008" style="stop-color:#34537A"/>
				<stop  offset="0.8002" style="stop-color:#1B436D"/>
				<stop  offset="1" style="stop-color:#0F3C67"/>
			</linearGradient>
			<polygon class="st25" points="274.34,322.16 264.48,312.45 264.52,228.7 274.37,235.33 			"/>
		</g>
		<g>
			<linearGradient id="SVGID_17_" gradientUnits="userSpaceOnUse" x1="264.5167" y1="229.8191" x2="291.6492" y2="229.8191">
				<stop  offset="0" style="stop-color:#3D597F"/>
				<stop  offset="0.3008" style="stop-color:#34537A"/>
				<stop  offset="0.8002" style="stop-color:#1B436D"/>
				<stop  offset="1" style="stop-color:#0F3C67"/>
			</linearGradient>
			<polygon class="st26" points="274.37,235.33 264.52,228.7 281.79,224.3 291.65,230.94 			"/>
		</g>
		<g class="st9">
			<linearGradient id="SVGID_18_" gradientUnits="userSpaceOnUse" x1="267.8249" y1="312.4511" x2="267.8249" y2="228.6976">
				<stop  offset="0" style="stop-color:#3D597F"/>
				<stop  offset="0.3008" style="stop-color:#34537A"/>
				<stop  offset="0.8002" style="stop-color:#1B436D"/>
				<stop  offset="1" style="stop-color:#0F3C67"/>
			</linearGradient>
			<polygon class="st27" points="264.48,312.45 264.52,228.7 271.17,233.18 			"/>
		</g>
		<g class="st11">
			<g>
				<linearGradient id="SVGID_19_" gradientUnits="userSpaceOnUse" x1="264.5167" y1="232.0163" x2="291.6492" y2="232.0163">
					<stop  offset="0" style="stop-color:#3D597F"/>
					<stop  offset="0.3008" style="stop-color:#34537A"/>
					<stop  offset="0.8002" style="stop-color:#1B436D"/>
					<stop  offset="1" style="stop-color:#0F3C67"/>
				</linearGradient>
				<polyline class="st28" points="291.65,230.94 274.37,235.33 264.52,228.7 				"/>
			</g>
			<linearGradient id="SVGID_20_" gradientUnits="userSpaceOnUse" x1="274.3384" y1="278.745" x2="274.373" y2="278.745">
				<stop  offset="0" style="stop-color:#3D597F"/>
				<stop  offset="0.3008" style="stop-color:#34537A"/>
				<stop  offset="0.8002" style="stop-color:#1B436D"/>
				<stop  offset="1" style="stop-color:#0F3C67"/>
			</linearGradient>
			<line class="st29" x1="274.37" y1="235.33" x2="274.34" y2="322.16"/>
		</g>
		<g class="st14">
			<linearGradient id="SVGID_21_" gradientUnits="userSpaceOnUse" x1="273.1548" y1="235.3222" x2="273.1548" y2="224.3033">
				<stop  offset="0" style="stop-color:#3D597F"/>
				<stop  offset="0.3008" style="stop-color:#34537A"/>
				<stop  offset="0.8002" style="stop-color:#1B436D"/>
				<stop  offset="1" style="stop-color:#0F3C67"/>
			</linearGradient>
			<polygon class="st30" points="271.25,235.32 264.52,228.7 281.79,224.3 			"/>
		</g>
	</g>
	<g>
		<g>
			<linearGradient id="SVGID_22_" gradientUnits="userSpaceOnUse" x1="240.0068" y1="257.9144" x2="285.0041" y2="302.9117">
				<stop  offset="0" style="stop-color:#6FB1C8"/>
				<stop  offset="0.1521" style="stop-color:#67A7C0"/>
				<stop  offset="0.4055" style="stop-color:#528EAB"/>
				<stop  offset="0.7268" style="stop-color:#306489"/>
				<stop  offset="1" style="stop-color:#0F3C67"/>
			</linearGradient>
			<polygon class="st31" points="270.47,239.4 270.44,317.47 254.54,321.43 254.57,243.35 			"/>
		</g>
		<g>
			<linearGradient id="SVGID_23_" gradientUnits="userSpaceOnUse" x1="227.4343" y1="255.4441" x2="273.9763" y2="301.9861">
				<stop  offset="0" style="stop-color:#6FB1C8"/>
				<stop  offset="0.1521" style="stop-color:#67A7C0"/>
				<stop  offset="0.4055" style="stop-color:#528EAB"/>
				<stop  offset="0.7268" style="stop-color:#306489"/>
				<stop  offset="1" style="stop-color:#0F3C67"/>
			</linearGradient>
			<polygon class="st32" points="254.54,321.43 245.46,312.7 245.49,237.38 254.57,243.35 			"/>
		</g>
		<g>
			<linearGradient id="SVGID_24_" gradientUnits="userSpaceOnUse" x1="245.4948" y1="238.3922" x2="270.4739" y2="238.3922">
				<stop  offset="0" style="stop-color:#6FB1C8"/>
				<stop  offset="0.1521" style="stop-color:#67A7C0"/>
				<stop  offset="0.4055" style="stop-color:#528EAB"/>
				<stop  offset="0.7268" style="stop-color:#306489"/>
				<stop  offset="1" style="stop-color:#0F3C67"/>
			</linearGradient>
			<polygon class="st33" points="254.57,243.35 245.49,237.38 261.4,233.43 270.47,239.4 			"/>
		</g>
		<g class="st9">
			<linearGradient id="SVGID_25_" gradientUnits="userSpaceOnUse" x1="248.5404" y1="312.6991" x2="248.5404" y2="237.3837">
				<stop  offset="0" style="stop-color:#6FB1C8"/>
				<stop  offset="0.1521" style="stop-color:#67A7C0"/>
				<stop  offset="0.4055" style="stop-color:#528EAB"/>
				<stop  offset="0.7268" style="stop-color:#306489"/>
				<stop  offset="1" style="stop-color:#0F3C67"/>
			</linearGradient>
			<polygon class="st34" points="245.46,312.7 245.49,237.38 251.62,241.41 			"/>
		</g>
		<g class="st35">
			<g>
				<linearGradient id="SVGID_26_" gradientUnits="userSpaceOnUse" x1="245.4948" y1="240.368" x2="270.4739" y2="240.368">
					<stop  offset="0" style="stop-color:#6FB1C8"/>
					<stop  offset="0.1521" style="stop-color:#67A7C0"/>
					<stop  offset="0.4055" style="stop-color:#528EAB"/>
					<stop  offset="0.7268" style="stop-color:#306489"/>
					<stop  offset="1" style="stop-color:#0F3C67"/>
				</linearGradient>
				<polyline class="st36" points="270.47,239.4 254.57,243.35 245.49,237.38 				"/>
			</g>
			<linearGradient id="SVGID_27_" gradientUnits="userSpaceOnUse" x1="254.537" y1="282.3888" x2="254.5689" y2="282.3888">
				<stop  offset="0" style="stop-color:#6FB1C8"/>
				<stop  offset="0.1521" style="stop-color:#67A7C0"/>
				<stop  offset="0.4055" style="stop-color:#528EAB"/>
				<stop  offset="0.7268" style="stop-color:#306489"/>
				<stop  offset="1" style="stop-color:#0F3C67"/>
			</linearGradient>
			<line class="st37" x1="254.57" y1="243.35" x2="254.54" y2="321.43"/>
		</g>
		<g class="st14">
			<linearGradient id="SVGID_28_" gradientUnits="userSpaceOnUse" x1="253.4473" y1="243.3408" x2="253.4473" y2="233.4321">
				<stop  offset="0" style="stop-color:#6FB1C8"/>
				<stop  offset="0.1521" style="stop-color:#67A7C0"/>
				<stop  offset="0.4055" style="stop-color:#528EAB"/>
				<stop  offset="0.7268" style="stop-color:#306489"/>
				<stop  offset="1" style="stop-color:#0F3C67"/>
			</linearGradient>
			<polygon class="st38" points="251.69,243.34 245.49,237.38 261.4,233.43 			"/>
		</g>
	</g>
	<g>
		<path class="st1" d="M249.95,224.46h-1.08l0.38-0.67h1.42v6.42h-0.71V224.46z"/>
		<path class="st1" d="M253.05,229.36c-0.42-0.62-0.64-1.44-0.64-2.36c0-0.92,0.22-1.74,0.64-2.36c0.49-0.71,1.14-0.96,1.65-0.96
			c0.51,0,1.16,0.25,1.65,0.96c0.42,0.62,0.65,1.44,0.65,2.36c0,0.91-0.22,1.74-0.65,2.36c-0.49,0.71-1.14,0.96-1.65,0.96
			C254.19,230.32,253.54,230.07,253.05,229.36z M253.59,225.04c-0.35,0.55-0.47,1.28-0.47,1.96s0.13,1.41,0.47,1.95
			c0.34,0.54,0.78,0.71,1.11,0.71s0.77-0.17,1.11-0.71c0.35-0.55,0.47-1.28,0.47-1.95s-0.13-1.41-0.47-1.96
			c-0.34-0.54-0.78-0.71-1.11-0.71S253.93,224.5,253.59,225.04z"/>
		<path class="st1" d="M260.25,225.12c0,0.78-0.62,1.4-1.4,1.4s-1.4-0.62-1.4-1.4c0-0.78,0.62-1.4,1.4-1.4
			S260.25,224.34,260.25,225.12z M259.67,225.12c0-0.47-0.35-0.87-0.82-0.87c-0.45,0-0.82,0.38-0.82,0.87s0.37,0.87,0.82,0.87
			C259.33,225.99,259.67,225.59,259.67,225.12z M262.24,223.66l0.38,0.21l-3.75,6.46l-0.38-0.22L262.24,223.66z M263.66,228.87
			c0,0.78-0.62,1.4-1.4,1.4c-0.78,0-1.4-0.62-1.4-1.4c0-0.78,0.62-1.4,1.4-1.4C263.04,227.48,263.66,228.09,263.66,228.87z
			 M263.08,228.87c0-0.47-0.35-0.87-0.82-0.87c-0.45,0-0.82,0.38-0.82,0.87s0.37,0.87,0.82,0.87
			C262.73,229.74,263.08,229.35,263.08,228.87z"/>
	</g>
	<g>
		<path class="st1" d="M272.77,216.06h-1.08l0.38-0.67h1.42v6.42h-0.71V216.06z"/>
		<path class="st1" d="M274.42,221.81l2.34-2.71c0.16-0.19,0.6-0.7,0.75-0.93c0.29-0.41,0.36-0.72,0.36-0.98
			c0-0.72-0.52-1.25-1.28-1.25c-0.45,0-0.83,0.2-1.07,0.57c-0.13,0.19-0.2,0.43-0.21,0.76h-0.71c0.03-0.64,0.23-1.04,0.48-1.33
			c0.27-0.31,0.72-0.66,1.52-0.66c1.14,0,1.98,0.81,1.98,1.92c0,0.43-0.13,0.83-0.51,1.38c-0.27,0.38-0.62,0.77-0.88,1.07
			l-1.34,1.51h2.71v0.65H274.42z"/>
		<path class="st1" d="M282.23,216.73c0,0.78-0.62,1.4-1.4,1.4s-1.4-0.62-1.4-1.4c0-0.78,0.62-1.4,1.4-1.4
			S282.23,215.95,282.23,216.73z M281.65,216.73c0-0.47-0.35-0.87-0.82-0.87c-0.45,0-0.82,0.38-0.82,0.87s0.37,0.87,0.82,0.87
			C281.31,217.6,281.65,217.2,281.65,216.73z M284.23,215.27l0.38,0.21l-3.75,6.46l-0.38-0.22L284.23,215.27z M285.64,220.48
			c0,0.78-0.62,1.4-1.4,1.4c-0.78,0-1.4-0.62-1.4-1.4c0-0.78,0.62-1.4,1.4-1.4C285.02,219.09,285.64,219.7,285.64,220.48z
			 M285.06,220.48c0-0.47-0.35-0.87-0.82-0.87c-0.45,0-0.82,0.38-0.82,0.87s0.37,0.87,0.82,0.87
			C284.72,221.35,285.06,220.96,285.06,220.48z"/>
	</g>
	<g>
		<path class="st4" d="M234.2,332.89c0.83,0,1.35,0.11,1.77,0.5c0.35,0.33,0.51,0.74,0.51,1.27c0,0.25-0.04,0.51-0.19,0.76
			c-0.14,0.25-0.34,0.38-0.48,0.44c0.12,0.03,0.51,0.13,0.83,0.46c0.35,0.37,0.42,0.81,0.42,1.2c0,0.46-0.12,0.83-0.42,1.16
			c-0.51,0.54-1.31,0.63-1.8,0.63h-1.61v-6.42H234.2z M234.21,335.65h0.3c0.24,0,0.57-0.03,0.8-0.25c0.22-0.21,0.25-0.51,0.25-0.73
			c0-0.19-0.03-0.42-0.23-0.62c-0.22-0.21-0.5-0.24-0.78-0.24h-0.34V335.65z M234.21,338.39h0.6c0.28,0,0.72-0.05,0.97-0.25
			c0.19-0.15,0.32-0.42,0.32-0.71c0-0.26-0.1-0.51-0.26-0.67c-0.27-0.26-0.67-0.29-1.01-0.29h-0.62V338.39z"/>
		<path class="st4" d="M244.09,336.11c0,1.89-1.42,3.33-3.34,3.33c-1.92,0-3.34-1.44-3.34-3.33c0-1.89,1.42-3.33,3.34-3.33
			C242.67,332.77,244.09,334.22,244.09,336.11z M243.11,336.11c0-1.42-0.98-2.43-2.36-2.43c-1.38,0-2.36,1-2.36,2.43
			s0.98,2.43,2.36,2.43C242.12,338.53,243.11,337.53,243.11,336.11z"/>
		<path class="st4" d="M246.01,332.89v5.5h1.89v0.92h-2.87v-6.42H246.01z"/>
		<path class="st4" d="M251.12,334.32c-0.06-0.14-0.14-0.28-0.29-0.4c-0.2-0.16-0.41-0.23-0.69-0.23c-0.6,0-0.91,0.36-0.91,0.77
			c0,0.19,0.07,0.53,0.69,0.78l0.64,0.26c1.18,0.48,1.51,1.16,1.51,1.89c0,1.22-0.87,2.06-2.07,2.06c-0.74,0-1.18-0.28-1.51-0.64
			c-0.35-0.39-0.5-0.81-0.54-1.25l0.97-0.21c0,0.32,0.12,0.62,0.27,0.82c0.18,0.23,0.45,0.38,0.84,0.38c0.6,0,1.06-0.43,1.06-1.08
			c0-0.65-0.5-0.92-0.92-1.1l-0.62-0.26c-0.53-0.22-1.31-0.66-1.31-1.63c0-0.87,0.67-1.7,1.88-1.7c0.69,0,1.09,0.26,1.29,0.43
			c0.17,0.15,0.36,0.38,0.49,0.65L251.12,334.32z"/>
		<path class="st4" d="M256.8,337.76h-2.74l-0.7,1.55h-1.06l3.2-6.8l3.04,6.8h-1.06L256.8,337.76z M256.4,336.84l-0.95-2.18
			l-0.99,2.18H256.4z"/>
		<path class="st4" d="M260.81,339.31l1.35-6.9l2.23,4.99l2.25-4.99l1.21,6.9h-1l-0.65-3.87l-1.87,4.17l-1.85-4.18l-0.67,3.88
			H260.81z"/>
		<path class="st4" d="M272.46,333.81h-2.56v1.63h2.48v0.92h-2.48v2.02h2.56v0.92h-3.54v-6.42h3.54V333.81z"/>
		<path class="st4" d="M274.79,335.96l-1.77-3.07h1.1l1.25,2.18l1.28-2.18h1.1l-1.85,3.07l1.94,3.35h-1.1l-1.41-2.46l-1.46,2.46
			h-1.1L274.79,335.96z"/>
		<path class="st4" d="M279.39,332.89v6.42h-0.98v-6.42H279.39z"/>
		<path class="st4" d="M285.4,334.39c-0.71-0.65-1.38-0.71-1.74-0.71c-1.4,0-2.34,1.03-2.34,2.45c0,1.36,0.98,2.41,2.35,2.41
			c0.77,0,1.37-0.39,1.73-0.74v1.17c-0.64,0.39-1.32,0.48-1.76,0.48c-1.17,0-1.9-0.53-2.27-0.89c-0.75-0.7-1.03-1.52-1.03-2.43
			c0-1.18,0.49-2,1.03-2.51c0.66-0.63,1.43-0.84,2.32-0.84c0.59,0,1.16,0.11,1.71,0.46V334.39z"/>
		<path class="st4" d="M290,337.76h-2.74l-0.7,1.55h-1.06l3.2-6.8l3.04,6.8h-1.06L290,337.76z M289.61,336.84l-0.95-2.18l-0.99,2.18
			H289.61z"/>
		<path class="st4" d="M292.26,339.31v-6.86l4.66,4.88v-4.45h0.98v6.82l-4.66-4.88v4.49H292.26z"/>
		<path class="st4" d="M302.92,337.76h-2.74l-0.7,1.55h-1.06l3.2-6.8l3.04,6.8h-1.06L302.92,337.76z M302.53,336.84l-0.95-2.18
			l-0.99,2.18H302.53z"/>
		<path class="st4" d="M246.52,344.44c0.9,0,1.68,0.1,2.39,0.63c0.78,0.59,1.23,1.52,1.23,2.59c0,1.07-0.44,1.99-1.29,2.59
			c-0.75,0.53-1.45,0.62-2.35,0.62h-1.33v-6.42H246.52z M246.16,349.94h0.42c0.48,0,1.15-0.04,1.7-0.45
			c0.44-0.34,0.88-0.95,0.88-1.83c0-0.85-0.41-1.51-0.87-1.85c-0.56-0.4-1.24-0.44-1.71-0.44h-0.42V349.94z"/>
		<path class="st4" d="M254.63,345.37h-2.56V347h2.48v0.92h-2.48v2.02h2.56v0.92h-3.54v-6.42h3.54V345.37z"/>
		<path class="st4" d="M257.89,344.44l1.79,4.48l1.79-4.48h1.06l-2.85,6.84l-2.85-6.84H257.89z"/>
		<path class="st4" d="M266.39,349.32h-2.74l-0.7,1.55h-1.06l3.2-6.8l3.04,6.8h-1.06L266.39,349.32z M265.99,348.39l-0.95-2.18
			l-0.99,2.18H265.99z"/>
		<path class="st4" d="M269.62,344.44v5.5h1.89v0.92h-2.87v-6.42H269.62z"/>
		<path class="st4" d="M278.23,347.66c0,1.89-1.42,3.33-3.34,3.33c-1.92,0-3.34-1.44-3.34-3.33c0-1.89,1.42-3.33,3.34-3.33
			C276.81,344.33,278.23,345.77,278.23,347.66z M277.25,347.66c0-1.42-0.98-2.43-2.36-2.43c-1.38,0-2.36,1-2.36,2.43
			s0.98,2.43,2.36,2.43C276.26,350.09,277.25,349.08,277.25,347.66z"/>
		<path class="st4" d="M280.32,344.44c0.78,0,1.28,0.1,1.69,0.38c0.7,0.47,0.76,1.23,0.76,1.51c0,0.92-0.57,1.6-1.42,1.79l2,2.74
			h-1.18l-1.84-2.63h-0.17v2.63h-0.98v-6.42H280.32z M280.15,347.39h0.31c0.27,0,1.37-0.03,1.37-1.05c0-0.91-0.86-0.99-1.34-0.99
			h-0.34V347.39z"/>
		<path class="st4" d="M287.57,345.37h-2.56V347h2.48v0.92h-2.48v2.02h2.56v0.92h-3.54v-6.42h3.54V345.37z"/>
		<path class="st4" d="M291.32,345.87c-0.06-0.14-0.14-0.28-0.29-0.4c-0.2-0.16-0.41-0.23-0.69-0.23c-0.6,0-0.91,0.36-0.91,0.77
			c0,0.19,0.07,0.53,0.69,0.78l0.64,0.26c1.18,0.48,1.51,1.16,1.51,1.89c0,1.22-0.87,2.06-2.07,2.06c-0.74,0-1.18-0.28-1.51-0.64
			c-0.35-0.39-0.5-0.81-0.54-1.25l0.97-0.21c0,0.32,0.12,0.62,0.27,0.82c0.18,0.23,0.45,0.38,0.84,0.38c0.6,0,1.06-0.43,1.06-1.08
			c0-0.65-0.5-0.92-0.92-1.1l-0.62-0.26c-0.53-0.22-1.31-0.66-1.31-1.63c0-0.87,0.67-1.7,1.88-1.7c0.69,0,1.09,0.26,1.29,0.43
			c0.17,0.15,0.36,0.38,0.49,0.65L291.32,345.87z"/>
	</g>
	<g>
		<g>
			<linearGradient id="SVGID_29_" gradientUnits="userSpaceOnUse" x1="185.2705" y1="258.0787" x2="230.9729" y2="303.781">
				<stop  offset="0" style="stop-color:#3D597F"/>
				<stop  offset="0.3008" style="stop-color:#34537A"/>
				<stop  offset="0.8002" style="stop-color:#1B436D"/>
				<stop  offset="1" style="stop-color:#0F3C67"/>
			</linearGradient>
			<polygon class="st39" points="216.78,239.79 216.74,318.01 199.47,322.07 199.5,243.85 			"/>
		</g>
		<g>
			<linearGradient id="SVGID_30_" gradientUnits="userSpaceOnUse" x1="171.7193" y1="255.6405" x2="218.8085" y2="302.7297">
				<stop  offset="0" style="stop-color:#3D597F"/>
				<stop  offset="0.3008" style="stop-color:#34537A"/>
				<stop  offset="0.8002" style="stop-color:#1B436D"/>
				<stop  offset="1" style="stop-color:#0F3C67"/>
			</linearGradient>
			<polygon class="st40" points="199.47,322.07 189.61,313.11 189.64,237.72 199.5,243.85 			"/>
		</g>
		<g>
			<linearGradient id="SVGID_31_" gradientUnits="userSpaceOnUse" x1="189.6446" y1="238.7515" x2="216.7771" y2="238.7515">
				<stop  offset="0" style="stop-color:#3D597F"/>
				<stop  offset="0.3008" style="stop-color:#34537A"/>
				<stop  offset="0.8002" style="stop-color:#1B436D"/>
				<stop  offset="1" style="stop-color:#0F3C67"/>
			</linearGradient>
			<polygon class="st41" points="199.5,243.85 189.64,237.72 206.92,233.65 216.78,239.79 			"/>
		</g>
		<g class="st9">
			<linearGradient id="SVGID_32_" gradientUnits="userSpaceOnUse" x1="192.9528" y1="313.1052" x2="192.9528" y2="237.7152">
				<stop  offset="0" style="stop-color:#3D597F"/>
				<stop  offset="0.3008" style="stop-color:#34537A"/>
				<stop  offset="0.8002" style="stop-color:#1B436D"/>
				<stop  offset="1" style="stop-color:#0F3C67"/>
			</linearGradient>
			<polygon class="st42" points="189.61,313.11 189.64,237.72 196.3,241.85 			"/>
		</g>
		<g class="st11">
			<g>
				<linearGradient id="SVGID_33_" gradientUnits="userSpaceOnUse" x1="189.6446" y1="240.7817" x2="216.7771" y2="240.7817">
					<stop  offset="0" style="stop-color:#3D597F"/>
					<stop  offset="0.3008" style="stop-color:#34537A"/>
					<stop  offset="0.8002" style="stop-color:#1B436D"/>
					<stop  offset="1" style="stop-color:#0F3C67"/>
				</linearGradient>
				<polyline class="st43" points="216.78,239.79 199.5,243.85 189.64,237.72 				"/>
			</g>
			<linearGradient id="SVGID_34_" gradientUnits="userSpaceOnUse" x1="199.4663" y1="282.9601" x2="199.5009" y2="282.9601">
				<stop  offset="0" style="stop-color:#3D597F"/>
				<stop  offset="0.3008" style="stop-color:#34537A"/>
				<stop  offset="0.8002" style="stop-color:#1B436D"/>
				<stop  offset="1" style="stop-color:#0F3C67"/>
			</linearGradient>
			<line class="st44" x1="199.5" y1="243.85" x2="199.47" y2="322.07"/>
		</g>
		<g class="st14">
			<linearGradient id="SVGID_35_" gradientUnits="userSpaceOnUse" x1="198.2827" y1="243.8364" x2="198.2827" y2="233.6548">
				<stop  offset="0" style="stop-color:#3D597F"/>
				<stop  offset="0.3008" style="stop-color:#34537A"/>
				<stop  offset="0.8002" style="stop-color:#1B436D"/>
				<stop  offset="1" style="stop-color:#0F3C67"/>
			</linearGradient>
			<polygon class="st45" points="196.37,243.84 189.64,237.72 206.92,233.65 			"/>
		</g>
	</g>
	<g>
		<g>
			<linearGradient id="SVGID_36_" gradientUnits="userSpaceOnUse" x1="166.545" y1="262.3328" x2="208.7217" y2="304.5094">
				<stop  offset="0" style="stop-color:#6FB1C8"/>
				<stop  offset="0.1521" style="stop-color:#67A7C0"/>
				<stop  offset="0.4055" style="stop-color:#528EAB"/>
				<stop  offset="0.7268" style="stop-color:#306489"/>
				<stop  offset="1" style="stop-color:#0F3C67"/>
			</linearGradient>
			<polygon class="st46" points="195.6,245.53 195.57,317.66 179.66,321.31 179.7,249.18 			"/>
		</g>
		<g>
			<linearGradient id="SVGID_37_" gradientUnits="userSpaceOnUse" x1="154.1089" y1="260.1805" x2="197.4526" y2="303.5242">
				<stop  offset="0" style="stop-color:#6FB1C8"/>
				<stop  offset="0.1521" style="stop-color:#67A7C0"/>
				<stop  offset="0.4055" style="stop-color:#528EAB"/>
				<stop  offset="0.7268" style="stop-color:#306489"/>
				<stop  offset="1" style="stop-color:#0F3C67"/>
			</linearGradient>
			<polygon class="st47" points="179.66,321.31 170.59,313.25 170.62,243.67 179.7,249.18 			"/>
		</g>
		<g>
			<linearGradient id="SVGID_38_" gradientUnits="userSpaceOnUse" x1="170.6227" y1="244.5984" x2="195.6018" y2="244.5984">
				<stop  offset="0" style="stop-color:#6FB1C8"/>
				<stop  offset="0.1521" style="stop-color:#67A7C0"/>
				<stop  offset="0.4055" style="stop-color:#528EAB"/>
				<stop  offset="0.7268" style="stop-color:#306489"/>
				<stop  offset="1" style="stop-color:#0F3C67"/>
			</linearGradient>
			<polygon class="st48" points="179.7,249.18 170.62,243.67 186.53,240.02 195.6,245.53 			"/>
		</g>
		<g class="st9">
			<linearGradient id="SVGID_39_" gradientUnits="userSpaceOnUse" x1="173.6683" y1="313.2498" x2="173.6683" y2="243.6667">
				<stop  offset="0" style="stop-color:#6FB1C8"/>
				<stop  offset="0.1521" style="stop-color:#67A7C0"/>
				<stop  offset="0.4055" style="stop-color:#528EAB"/>
				<stop  offset="0.7268" style="stop-color:#306489"/>
				<stop  offset="1" style="stop-color:#0F3C67"/>
			</linearGradient>
			<polygon class="st49" points="170.59,313.25 170.62,243.67 176.75,247.39 			"/>
		</g>
		<g class="st35">
			<g>
				<linearGradient id="SVGID_40_" gradientUnits="userSpaceOnUse" x1="170.6227" y1="246.4238" x2="195.6018" y2="246.4238">
					<stop  offset="0" style="stop-color:#6FB1C8"/>
					<stop  offset="0.1521" style="stop-color:#67A7C0"/>
					<stop  offset="0.4055" style="stop-color:#528EAB"/>
					<stop  offset="0.7268" style="stop-color:#306489"/>
					<stop  offset="1" style="stop-color:#0F3C67"/>
				</linearGradient>
				<polyline class="st50" points="195.6,245.53 179.7,249.18 170.62,243.67 				"/>
			</g>
			<linearGradient id="SVGID_41_" gradientUnits="userSpaceOnUse" x1="179.6649" y1="285.2465" x2="179.6968" y2="285.2465">
				<stop  offset="0" style="stop-color:#6FB1C8"/>
				<stop  offset="0.1521" style="stop-color:#67A7C0"/>
				<stop  offset="0.4055" style="stop-color:#528EAB"/>
				<stop  offset="0.7268" style="stop-color:#306489"/>
				<stop  offset="1" style="stop-color:#0F3C67"/>
			</linearGradient>
			<line class="st51" x1="179.7" y1="249.18" x2="179.66" y2="321.31"/>
		</g>
		<g class="st14">
			<linearGradient id="SVGID_42_" gradientUnits="userSpaceOnUse" x1="178.5752" y1="249.1704" x2="178.5752" y2="240.0158">
				<stop  offset="0" style="stop-color:#6FB1C8"/>
				<stop  offset="0.1521" style="stop-color:#67A7C0"/>
				<stop  offset="0.4055" style="stop-color:#528EAB"/>
				<stop  offset="0.7268" style="stop-color:#306489"/>
				<stop  offset="1" style="stop-color:#0F3C67"/>
			</linearGradient>
			<polygon class="st52" points="176.82,249.17 170.62,243.67 186.53,240.02 			"/>
		</g>
	</g>
	<g>
		<path class="st1" d="M176.5,235.59l1.47-2.05c-0.18,0.06-0.37,0.09-0.57,0.09c-1.23,0-2.08-0.92-2.08-2.12
			c0-1.28,0.92-2.21,2.21-2.21c1.51,0,2.22,1.17,2.22,2.19c0,0.24-0.05,0.81-0.53,1.47l-2.19,3.02L176.5,235.59z M176.03,231.49
			c0,0.86,0.64,1.48,1.51,1.48s1.49-0.65,1.49-1.48c0-0.86-0.61-1.53-1.5-1.53C176.65,229.96,176.03,230.62,176.03,231.49z"/>
		<path class="st1" d="M183.09,230.75c0,0.78-0.62,1.4-1.4,1.4s-1.4-0.62-1.4-1.4c0-0.78,0.62-1.4,1.4-1.4
			S183.09,229.97,183.09,230.75z M182.51,230.75c0-0.47-0.35-0.87-0.82-0.87c-0.45,0-0.82,0.38-0.82,0.87s0.37,0.87,0.82,0.87
			C182.17,231.61,182.51,231.22,182.51,230.75z M185.08,229.28l0.38,0.21l-3.75,6.46l-0.38-0.22L185.08,229.28z M186.5,234.5
			c0,0.78-0.62,1.4-1.4,1.4c-0.78,0-1.4-0.62-1.4-1.4c0-0.78,0.62-1.4,1.4-1.4C185.88,233.11,186.5,233.72,186.5,234.5z
			 M185.92,234.5c0-0.47-0.35-0.87-0.82-0.87c-0.45,0-0.82,0.38-0.82,0.87s0.37,0.87,0.82,0.87
			C185.58,235.37,185.92,234.97,185.92,234.5z"/>
	</g>
	<g>
		<path class="st1" d="M200.12,222.69h-1.08l0.38-0.67h1.42v6.42h-0.71V222.69z"/>
		<path class="st1" d="M203.22,227.59c-0.42-0.62-0.64-1.44-0.64-2.36c0-0.92,0.22-1.74,0.64-2.36c0.49-0.71,1.14-0.96,1.65-0.96
			c0.51,0,1.16,0.25,1.65,0.96c0.42,0.62,0.65,1.44,0.65,2.36c0,0.91-0.22,1.74-0.65,2.36c-0.49,0.71-1.14,0.96-1.65,0.96
			C204.36,228.55,203.71,228.3,203.22,227.59z M203.76,223.28c-0.35,0.55-0.47,1.28-0.47,1.96s0.13,1.41,0.47,1.95
			c0.34,0.54,0.78,0.71,1.11,0.71s0.77-0.17,1.11-0.71c0.35-0.55,0.47-1.28,0.47-1.95s-0.13-1.41-0.47-1.96
			c-0.34-0.54-0.78-0.71-1.11-0.71S204.1,222.74,203.76,223.28z"/>
		<path class="st1" d="M210.42,223.35c0,0.78-0.62,1.4-1.4,1.4s-1.4-0.62-1.4-1.4c0-0.78,0.62-1.4,1.4-1.4
			S210.42,222.58,210.42,223.35z M209.84,223.35c0-0.47-0.35-0.87-0.82-0.87c-0.45,0-0.82,0.38-0.82,0.87s0.37,0.87,0.82,0.87
			C209.5,224.22,209.84,223.83,209.84,223.35z M212.41,221.89l0.38,0.21l-3.75,6.46l-0.38-0.22L212.41,221.89z M213.83,227.11
			c0,0.78-0.62,1.4-1.4,1.4c-0.78,0-1.4-0.62-1.4-1.4c0-0.78,0.62-1.4,1.4-1.4C213.21,225.71,213.83,226.33,213.83,227.11z
			 M213.25,227.11c0-0.47-0.35-0.87-0.82-0.87c-0.45,0-0.82,0.38-0.82,0.87s0.37,0.87,0.82,0.87
			C212.91,227.98,213.25,227.58,213.25,227.11z"/>
	</g>
	<g>
		<path class="st4" d="M174.19,333.81h-2.23v1.63h2.16v0.92h-2.16v2.95h-0.98v-6.42h3.22V333.81z"/>
		<path class="st4" d="M181.39,336.11c0,1.89-1.42,3.33-3.34,3.33c-1.92,0-3.34-1.44-3.34-3.33c0-1.89,1.42-3.33,3.34-3.33
			C179.98,332.77,181.39,334.22,181.39,336.11z M180.41,336.11c0-1.42-0.98-2.43-2.36-2.43c-1.38,0-2.36,1-2.36,2.43
			s0.98,2.43,2.36,2.43C179.43,338.53,180.41,337.53,180.41,336.11z"/>
		<path class="st4" d="M182.34,339.31v-6.86l4.66,4.88v-4.45h0.98v6.82l-4.66-4.88v4.49H182.34z"/>
		<path class="st4" d="M190.58,332.89c0.9,0,1.68,0.1,2.39,0.63c0.78,0.59,1.23,1.52,1.23,2.59c0,1.07-0.44,1.99-1.29,2.59
			c-0.75,0.53-1.45,0.62-2.35,0.62h-1.33v-6.42H190.58z M190.21,338.39h0.42c0.48,0,1.15-0.04,1.7-0.45
			c0.44-0.34,0.88-0.95,0.88-1.83c0-0.85-0.41-1.51-0.87-1.85c-0.56-0.4-1.24-0.44-1.71-0.44h-0.42V338.39z"/>
		<path class="st4" d="M201.51,336.11c0,1.89-1.42,3.33-3.34,3.33c-1.92,0-3.34-1.44-3.34-3.33c0-1.89,1.42-3.33,3.34-3.33
			C200.1,332.77,201.51,334.22,201.51,336.11z M200.53,336.11c0-1.42-0.98-2.43-2.36-2.43c-1.38,0-2.36,1-2.36,2.43
			s0.98,2.43,2.36,2.43C199.55,338.53,200.53,337.53,200.53,336.11z"/>
		<path class="st4" d="M205.23,334.32c-0.06-0.14-0.14-0.28-0.29-0.4c-0.2-0.16-0.41-0.23-0.69-0.23c-0.6,0-0.91,0.36-0.91,0.77
			c0,0.19,0.07,0.53,0.69,0.78l0.64,0.26c1.18,0.48,1.51,1.16,1.51,1.89c0,1.22-0.87,2.06-2.07,2.06c-0.74,0-1.18-0.28-1.51-0.64
			c-0.35-0.39-0.5-0.81-0.54-1.25l0.97-0.21c0,0.32,0.12,0.62,0.27,0.82c0.18,0.23,0.45,0.38,0.84,0.38c0.6,0,1.06-0.43,1.06-1.08
			c0-0.65-0.5-0.92-0.92-1.1l-0.62-0.26c-0.53-0.22-1.31-0.66-1.31-1.63c0-0.87,0.67-1.7,1.88-1.7c0.69,0,1.09,0.26,1.29,0.43
			c0.17,0.15,0.36,0.38,0.49,0.65L205.23,334.32z"/>
		<path class="st4" d="M210.44,332.89c0.9,0,1.68,0.1,2.39,0.63c0.78,0.59,1.23,1.52,1.23,2.59c0,1.07-0.44,1.99-1.29,2.59
			c-0.75,0.53-1.45,0.62-2.35,0.62h-1.33v-6.42H210.44z M210.07,338.39h0.42c0.48,0,1.15-0.04,1.7-0.45
			c0.44-0.34,0.88-0.95,0.88-1.83c0-0.85-0.41-1.51-0.87-1.85c-0.56-0.4-1.24-0.44-1.71-0.44h-0.42V338.39z"/>
		<path class="st4" d="M218.55,333.81h-2.56v1.63h2.48v0.92h-2.48v2.02h2.56v0.92H215v-6.42h3.54V333.81z"/>
		<path class="st4" d="M174.65,344.44v6.42h-0.98v-6.42H174.65z"/>
		<path class="st4" d="M175.9,350.87v-6.86l4.66,4.88v-4.45h0.98v6.82l-4.66-4.88v4.49H175.9z"/>
		<path class="st4" d="M183.12,344.44l1.79,4.48l1.79-4.48h1.06l-2.85,6.84l-2.85-6.84H183.12z"/>
		<path class="st4" d="M191.83,345.37h-2.56V347h2.48v0.92h-2.48v2.02h2.56v0.92h-3.54v-6.42h3.54V345.37z"/>
		<path class="st4" d="M193.96,344.44c0.78,0,1.28,0.1,1.69,0.38c0.7,0.47,0.76,1.23,0.76,1.51c0,0.92-0.57,1.6-1.42,1.79l2,2.74
			h-1.18l-1.84-2.63h-0.17v2.63h-0.98v-6.42H193.96z M193.79,347.39h0.31c0.27,0,1.37-0.03,1.37-1.05c0-0.91-0.86-0.99-1.34-0.99
			h-0.34V347.39z"/>
		<path class="st4" d="M200.44,345.87c-0.06-0.14-0.14-0.28-0.29-0.4c-0.2-0.16-0.41-0.23-0.69-0.23c-0.6,0-0.91,0.36-0.91,0.77
			c0,0.19,0.07,0.53,0.69,0.78l0.64,0.26c1.18,0.48,1.51,1.16,1.51,1.89c0,1.22-0.87,2.06-2.07,2.06c-0.74,0-1.18-0.28-1.51-0.64
			c-0.35-0.39-0.5-0.81-0.54-1.25l0.97-0.21c0,0.32,0.12,0.62,0.27,0.82c0.18,0.23,0.45,0.38,0.84,0.38c0.6,0,1.06-0.43,1.06-1.08
			c0-0.65-0.5-0.92-0.92-1.1l-0.62-0.26c-0.53-0.22-1.31-0.66-1.31-1.63c0-0.87,0.67-1.7,1.88-1.7c0.69,0,1.09,0.26,1.29,0.43
			c0.17,0.15,0.36,0.38,0.49,0.65L200.44,345.87z"/>
		<path class="st4" d="M203.32,344.44v6.42h-0.98v-6.42H203.32z"/>
		<path class="st4" d="M210.95,347.66c0,1.89-1.42,3.33-3.34,3.33c-1.92,0-3.34-1.44-3.34-3.33c0-1.89,1.42-3.33,3.34-3.33
			C209.53,344.33,210.95,345.77,210.95,347.66z M209.97,347.66c0-1.42-0.98-2.43-2.36-2.43c-1.38,0-2.36,1-2.36,2.43
			s0.98,2.43,2.36,2.43C208.98,350.09,209.97,349.08,209.97,347.66z M206.75,343.48l1.33-1.34l0.83,0.58l-1.69,1.15L206.75,343.48z"
			/>
		<path class="st4" d="M211.89,350.87v-6.86l4.66,4.88v-4.45h0.98v6.82l-4.66-4.88v4.49H211.89z"/>
	</g>
	<g>
		<path class="st4" d="M111.92,335.85c-0.71-0.65-1.38-0.71-1.74-0.71c-1.4,0-2.34,1.03-2.34,2.45c0,1.36,0.98,2.41,2.35,2.41
			c0.77,0,1.37-0.39,1.73-0.74v1.17c-0.64,0.39-1.32,0.48-1.76,0.48c-1.17,0-1.9-0.53-2.27-0.89c-0.75-0.7-1.03-1.52-1.03-2.43
			c0-1.18,0.49-2,1.03-2.51c0.67-0.63,1.43-0.84,2.32-0.84c0.59,0,1.16,0.11,1.71,0.46V335.85z"/>
		<path class="st4" d="M116.39,335.27h-2.56v1.63h2.48v0.92h-2.48v2.02h2.56v0.92h-3.54v-6.42h3.54V335.27z"/>
		<path class="st4" d="M119.15,335.27v5.5h-0.98v-5.5h-1.47v-0.92h3.93v0.92H119.15z"/>
		<path class="st4" d="M124.74,335.27h-2.56v1.63h2.48v0.92h-2.48v2.02h2.56v0.92h-3.54v-6.42h3.54V335.27z"/>
		<path class="st4" d="M128.5,335.77c-0.06-0.14-0.14-0.28-0.29-0.4c-0.2-0.16-0.41-0.23-0.69-0.23c-0.6,0-0.91,0.36-0.91,0.77
			c0,0.19,0.07,0.53,0.69,0.78l0.64,0.26c1.18,0.48,1.51,1.16,1.51,1.89c0,1.22-0.87,2.06-2.07,2.06c-0.74,0-1.18-0.28-1.51-0.64
			c-0.35-0.39-0.5-0.81-0.54-1.25l0.97-0.21c0,0.32,0.12,0.62,0.27,0.82c0.18,0.23,0.45,0.38,0.84,0.38c0.6,0,1.06-0.43,1.06-1.08
			c0-0.65-0.5-0.92-0.92-1.1l-0.62-0.26c-0.53-0.22-1.31-0.66-1.31-1.63c0-0.87,0.67-1.7,1.88-1.7c0.69,0,1.09,0.26,1.29,0.43
			c0.17,0.15,0.36,0.38,0.49,0.65L128.5,335.77z"/>
	</g>
	<g>
		<path class="st4" d="M391.63,336.89h2.75v-2.54h0.98v6.42h-0.98v-2.96h-2.75v2.96h-0.98v-6.42h0.98V336.89z"/>
		<path class="st4" d="M400.4,339.22h-2.74l-0.7,1.55h-1.06l3.2-6.8l3.04,6.8h-1.06L400.4,339.22z M400,338.3l-0.95-2.18l-0.99,2.18
			H400z M398.39,333.39l1.33-1.34l0.83,0.58l-1.69,1.15L398.39,333.39z"/>
		<path class="st4" d="M403.33,334.35c0.83,0,1.35,0.11,1.77,0.5c0.35,0.33,0.51,0.74,0.51,1.27c0,0.25-0.04,0.51-0.19,0.76
			c-0.14,0.25-0.34,0.38-0.48,0.44c0.12,0.03,0.51,0.13,0.83,0.46c0.35,0.37,0.42,0.81,0.42,1.2c0,0.46-0.12,0.83-0.42,1.16
			c-0.51,0.54-1.31,0.63-1.8,0.63h-1.61v-6.42H403.33z M403.34,337.11h0.3c0.24,0,0.57-0.03,0.8-0.25c0.22-0.21,0.25-0.51,0.25-0.73
			c0-0.19-0.03-0.42-0.23-0.62c-0.22-0.21-0.5-0.24-0.78-0.24h-0.34V337.11z M403.34,339.85h0.6c0.28,0,0.72-0.05,0.97-0.25
			c0.19-0.15,0.32-0.42,0.32-0.71c0-0.26-0.1-0.51-0.26-0.67c-0.27-0.26-0.67-0.29-1.01-0.29h-0.62V339.85z"/>
		<path class="st4" d="M408.12,334.35v6.42h-0.98v-6.42H408.12z"/>
		<path class="st4" d="M411.15,335.27v5.5h-0.98v-5.5h-1.47v-0.92h3.93v0.92H411.15z"/>
		<path class="st4" d="M415.28,335.27v5.5h-0.98v-5.5h-1.47v-0.92h3.93v0.92H415.28z"/>
		<path class="st4" d="M420.72,339.22h-2.74l-0.7,1.55h-1.06l3.2-6.8l3.04,6.8h-1.06L420.72,339.22z M420.33,338.3l-0.95-2.18
			l-0.99,2.18H420.33z"/>
		<path class="st4" d="M427.86,334.35c0.83,0,1.35,0.11,1.77,0.5c0.35,0.33,0.51,0.74,0.51,1.27c0,0.25-0.04,0.51-0.19,0.76
			c-0.14,0.25-0.34,0.38-0.48,0.44c0.12,0.03,0.51,0.13,0.83,0.46c0.35,0.37,0.42,0.81,0.42,1.2c0,0.46-0.12,0.83-0.42,1.16
			c-0.51,0.54-1.31,0.63-1.8,0.63h-1.61v-6.42H427.86z M427.86,337.11h0.3c0.24,0,0.57-0.03,0.8-0.25c0.22-0.21,0.25-0.51,0.25-0.73
			c0-0.19-0.03-0.42-0.23-0.62c-0.22-0.21-0.5-0.24-0.78-0.24h-0.34V337.11z M427.86,339.85h0.6c0.28,0,0.72-0.05,0.97-0.25
			c0.19-0.15,0.32-0.42,0.32-0.71c0-0.26-0.1-0.51-0.26-0.67c-0.27-0.26-0.67-0.29-1.01-0.29h-0.62V339.85z"/>
		<path class="st4" d="M432.88,338l-2.11-3.65h1.12l1.48,2.57l1.48-2.57h1.12l-2.11,3.65v2.77h-0.98V338z"/>
		<path class="st4" d="M405.62,347.41c-0.71-0.65-1.38-0.71-1.74-0.71c-1.4,0-2.34,1.03-2.34,2.45c0,1.36,0.98,2.41,2.35,2.41
			c0.77,0,1.37-0.39,1.73-0.74v1.17c-0.64,0.39-1.32,0.48-1.76,0.48c-1.17,0-1.9-0.53-2.27-0.89c-0.75-0.7-1.03-1.52-1.03-2.43
			c0-1.18,0.49-2,1.03-2.51c0.66-0.63,1.43-0.84,2.32-0.84c0.59,0,1.16,0.11,1.71,0.46V347.41z"/>
		<path class="st4" d="M411.1,347.41c-0.71-0.65-1.38-0.71-1.74-0.71c-1.4,0-2.34,1.03-2.34,2.45c0,1.36,0.98,2.41,2.35,2.41
			c0.77,0,1.37-0.39,1.73-0.74v1.17c-0.64,0.39-1.32,0.48-1.76,0.48c-1.17,0-1.9-0.53-2.27-0.89c-0.75-0.7-1.03-1.52-1.03-2.43
			c0-1.18,0.49-2,1.03-2.51c0.66-0.63,1.43-0.84,2.32-0.84c0.59,0,1.16,0.11,1.71,0.46V347.41z"/>
		<path class="st4" d="M413,345.9v6.42h-0.98v-6.42H413z"/>
		<path class="st4" d="M414.06,352.33l1.35-6.9l2.23,4.99l2.25-4.99l1.21,6.9h-1l-0.65-3.87l-1.87,4.17l-1.85-4.18l-0.67,3.88
			H414.06z"/>
		<path class="st4" d="M425.94,350.78h-2.74l-0.7,1.55h-1.06l3.2-6.8l3.04,6.8h-1.06L425.94,350.78z M425.55,349.85l-0.95-2.18
			l-0.99,2.18H425.55z"/>
	</g>
	<g>
		<g>
			<linearGradient id="SVGID_43_" gradientUnits="userSpaceOnUse" x1="113.38" y1="270.3857" x2="151.514" y2="308.5197">
				<stop  offset="0" style="stop-color:#3D597F"/>
				<stop  offset="0.3008" style="stop-color:#34537A"/>
				<stop  offset="0.8002" style="stop-color:#1B436D"/>
				<stop  offset="1" style="stop-color:#0F3C67"/>
			</linearGradient>
			<polygon class="st53" points="141.1,256.79 141.07,318.97 123.79,322.11 123.83,259.94 			"/>
		</g>
		<g>
			<linearGradient id="SVGID_44_" gradientUnits="userSpaceOnUse" x1="100.2427" y1="268.9135" x2="138.6168" y2="307.2876">
				<stop  offset="0" style="stop-color:#3D597F"/>
				<stop  offset="0.3008" style="stop-color:#34537A"/>
				<stop  offset="0.8002" style="stop-color:#1B436D"/>
				<stop  offset="1" style="stop-color:#0F3C67"/>
			</linearGradient>
			<polygon class="st54" points="123.79,322.11 113.94,315.16 113.97,255.19 123.83,259.94 			"/>
		</g>
		<g>
			<linearGradient id="SVGID_45_" gradientUnits="userSpaceOnUse" x1="113.9699" y1="255.9895" x2="141.1024" y2="255.9895">
				<stop  offset="0" style="stop-color:#3D597F"/>
				<stop  offset="0.3008" style="stop-color:#34537A"/>
				<stop  offset="0.8002" style="stop-color:#1B436D"/>
				<stop  offset="1" style="stop-color:#0F3C67"/>
			</linearGradient>
			<polygon class="st55" points="123.83,259.94 113.97,255.19 131.25,252.04 141.1,256.79 			"/>
		</g>
		<g class="st9">
			<linearGradient id="SVGID_46_" gradientUnits="userSpaceOnUse" x1="117.278" y1="315.1637" x2="117.278" y2="255.1864">
				<stop  offset="0" style="stop-color:#3D597F"/>
				<stop  offset="0.3008" style="stop-color:#34537A"/>
				<stop  offset="0.8002" style="stop-color:#1B436D"/>
				<stop  offset="1" style="stop-color:#0F3C67"/>
			</linearGradient>
			<polygon class="st56" points="113.94,315.16 113.97,255.19 120.62,258.39 			"/>
		</g>
		<g class="st11">
			<g>
				<linearGradient id="SVGID_47_" gradientUnits="userSpaceOnUse" x1="113.9699" y1="257.5629" x2="141.1024" y2="257.5629">
					<stop  offset="0" style="stop-color:#3D597F"/>
					<stop  offset="0.3008" style="stop-color:#34537A"/>
					<stop  offset="0.8002" style="stop-color:#1B436D"/>
					<stop  offset="1" style="stop-color:#0F3C67"/>
				</linearGradient>
				<polyline class="st57" points="141.1,256.79 123.83,259.94 113.97,255.19 				"/>
			</g>
			<linearGradient id="SVGID_48_" gradientUnits="userSpaceOnUse" x1="123.7916" y1="291.0262" x2="123.8262" y2="291.0262">
				<stop  offset="0" style="stop-color:#3D597F"/>
				<stop  offset="0.3008" style="stop-color:#34537A"/>
				<stop  offset="0.8002" style="stop-color:#1B436D"/>
				<stop  offset="1" style="stop-color:#0F3C67"/>
			</linearGradient>
			<line class="st58" x1="123.83" y1="259.94" x2="123.79" y2="322.11"/>
		</g>
		<g class="st14">
			<linearGradient id="SVGID_49_" gradientUnits="userSpaceOnUse" x1="122.608" y1="259.9303" x2="122.608" y2="252.0395">
				<stop  offset="0" style="stop-color:#3D597F"/>
				<stop  offset="0.3008" style="stop-color:#34537A"/>
				<stop  offset="0.8002" style="stop-color:#1B436D"/>
				<stop  offset="1" style="stop-color:#0F3C67"/>
			</linearGradient>
			<polygon class="st59" points="120.7,259.93 113.97,255.19 131.25,252.04 			"/>
		</g>
	</g>
	<g>
		<g>
			<linearGradient id="SVGID_50_" gradientUnits="userSpaceOnUse" x1="95.0517" y1="275.6768" x2="128.8655" y2="309.4906">
				<stop  offset="0" style="stop-color:#6FB1C8"/>
				<stop  offset="0.1521" style="stop-color:#67A7C0"/>
				<stop  offset="0.4055" style="stop-color:#528EAB"/>
				<stop  offset="0.7268" style="stop-color:#306489"/>
				<stop  offset="1" style="stop-color:#0F3C67"/>
			</linearGradient>
			<polygon class="st60" points="119.93,263.95 119.9,318.46 103.99,321.22 104.02,266.71 			"/>
		</g>
		<g>
			<linearGradient id="SVGID_51_" gradientUnits="userSpaceOnUse" x1="83.0196" y1="274.4673" x2="116.8813" y2="308.329">
				<stop  offset="0" style="stop-color:#6FB1C8"/>
				<stop  offset="0.1521" style="stop-color:#67A7C0"/>
				<stop  offset="0.4055" style="stop-color:#528EAB"/>
				<stop  offset="0.7268" style="stop-color:#306489"/>
				<stop  offset="1" style="stop-color:#0F3C67"/>
			</linearGradient>
			<polygon class="st61" points="103.99,321.22 94.92,315.13 94.95,262.54 104.02,266.71 			"/>
		</g>
		<g>
			<linearGradient id="SVGID_52_" gradientUnits="userSpaceOnUse" x1="94.948" y1="263.243" x2="119.9271" y2="263.243">
				<stop  offset="0" style="stop-color:#6FB1C8"/>
				<stop  offset="0.1521" style="stop-color:#67A7C0"/>
				<stop  offset="0.4055" style="stop-color:#528EAB"/>
				<stop  offset="0.7268" style="stop-color:#306489"/>
				<stop  offset="1" style="stop-color:#0F3C67"/>
			</linearGradient>
			<polygon class="st62" points="104.02,266.71 94.95,262.54 110.85,259.78 119.93,263.95 			"/>
		</g>
		<g class="st9">
			<linearGradient id="SVGID_53_" gradientUnits="userSpaceOnUse" x1="97.9936" y1="315.1271" x2="97.9936" y2="262.5389">
				<stop  offset="0" style="stop-color:#6FB1C8"/>
				<stop  offset="0.1521" style="stop-color:#67A7C0"/>
				<stop  offset="0.4055" style="stop-color:#528EAB"/>
				<stop  offset="0.7268" style="stop-color:#306489"/>
				<stop  offset="1" style="stop-color:#0F3C67"/>
			</linearGradient>
			<polygon class="st63" points="94.92,315.13 94.95,262.54 101.07,265.35 			"/>
		</g>
		<g class="st35">
			<g>
				<linearGradient id="SVGID_54_" gradientUnits="userSpaceOnUse" x1="94.948" y1="264.6227" x2="119.9271" y2="264.6227">
					<stop  offset="0" style="stop-color:#6FB1C8"/>
					<stop  offset="0.1521" style="stop-color:#67A7C0"/>
					<stop  offset="0.4055" style="stop-color:#528EAB"/>
					<stop  offset="0.7268" style="stop-color:#306489"/>
					<stop  offset="1" style="stop-color:#0F3C67"/>
				</linearGradient>
				<polyline class="st64" points="119.93,263.95 104.02,266.71 94.95,262.54 				"/>
			</g>
			<linearGradient id="SVGID_55_" gradientUnits="userSpaceOnUse" x1="103.9902" y1="293.9633" x2="104.0221" y2="293.9633">
				<stop  offset="0" style="stop-color:#6FB1C8"/>
				<stop  offset="0.1521" style="stop-color:#67A7C0"/>
				<stop  offset="0.4055" style="stop-color:#528EAB"/>
				<stop  offset="0.7268" style="stop-color:#306489"/>
				<stop  offset="1" style="stop-color:#0F3C67"/>
			</linearGradient>
			<line class="st65" x1="104.02" y1="266.71" x2="103.99" y2="321.22"/>
		</g>
		<g class="st14">
			<linearGradient id="SVGID_56_" gradientUnits="userSpaceOnUse" x1="102.9005" y1="266.6984" x2="102.9005" y2="259.7797">
				<stop  offset="0" style="stop-color:#6FB1C8"/>
				<stop  offset="0.1521" style="stop-color:#67A7C0"/>
				<stop  offset="0.4055" style="stop-color:#528EAB"/>
				<stop  offset="0.7268" style="stop-color:#306489"/>
				<stop  offset="1" style="stop-color:#0F3C67"/>
			</linearGradient>
			<polygon class="st66" points="101.14,266.7 94.95,262.54 110.85,259.78 			"/>
		</g>
	</g>
	<g>
		<path class="st1" d="M102.31,249.07l-1.47,2.05c0.18-0.06,0.37-0.09,0.57-0.09c1.23,0,2.08,0.92,2.08,2.12
			c0,1.28-0.92,2.2-2.21,2.2c-1.51,0-2.22-1.17-2.22-2.19c0-0.24,0.05-0.8,0.53-1.47l2.19-3.03L102.31,249.07z M102.77,253.17
			c0-0.86-0.64-1.48-1.51-1.48s-1.49,0.64-1.49,1.48c0,0.86,0.61,1.53,1.5,1.53C102.15,254.7,102.77,254.04,102.77,253.17z"/>
		<path class="st1" d="M106.82,250.16c0,0.78-0.62,1.4-1.4,1.4s-1.4-0.62-1.4-1.4c0-0.78,0.62-1.4,1.4-1.4
			S106.82,249.38,106.82,250.16z M106.25,250.16c0-0.47-0.35-0.87-0.82-0.87c-0.45,0-0.82,0.38-0.82,0.87s0.37,0.87,0.82,0.87
			C105.9,251.03,106.25,250.63,106.25,250.16z M108.82,248.7l0.38,0.21l-3.75,6.46l-0.38-0.22L108.82,248.7z M110.23,253.91
			c0,0.78-0.62,1.4-1.4,1.4c-0.78,0-1.4-0.62-1.4-1.4c0-0.78,0.62-1.4,1.4-1.4C109.62,252.52,110.23,253.13,110.23,253.91z
			 M109.65,253.91c0-0.47-0.35-0.87-0.82-0.87c-0.45,0-0.82,0.38-0.82,0.87s0.37,0.87,0.82,0.87
			C109.31,254.78,109.65,254.39,109.65,253.91z"/>
	</g>
	<g>
		<path class="st1" d="M129.78,241.42h-3.51v-0.65h4.72l-4.29,6.58l-0.56-0.38L129.78,241.42z"/>
		<path class="st1" d="M133.92,242.1c0,0.78-0.62,1.4-1.4,1.4s-1.4-0.62-1.4-1.4c0-0.78,0.62-1.4,1.4-1.4
			S133.92,241.32,133.92,242.1z M133.34,242.1c0-0.47-0.35-0.87-0.82-0.87c-0.45,0-0.82,0.38-0.82,0.87s0.37,0.87,0.82,0.87
			C133,242.97,133.34,242.57,133.34,242.1z M135.91,240.64l0.38,0.21l-3.75,6.46l-0.38-0.22L135.91,240.64z M137.33,245.86
			c0,0.78-0.62,1.4-1.4,1.4c-0.78,0-1.4-0.62-1.4-1.4c0-0.78,0.62-1.4,1.4-1.4C136.71,244.46,137.33,245.08,137.33,245.86z
			 M136.75,245.86c0-0.47-0.35-0.87-0.82-0.87c-0.45,0-0.82,0.38-0.82,0.87s0.37,0.87,0.82,0.87
			C136.41,246.72,136.75,246.33,136.75,245.86z"/>
	</g>
	<g>
		<g>
			<linearGradient id="SVGID_57_" gradientUnits="userSpaceOnUse" x1="362.8613" y1="131.4996" x2="489.9035" y2="258.5419">
				<stop  offset="0" style="stop-color:#3D597F"/>
				<stop  offset="0.3008" style="stop-color:#34537A"/>
				<stop  offset="0.8002" style="stop-color:#1B436D"/>
				<stop  offset="1" style="stop-color:#0F3C67"/>
			</linearGradient>
			<polygon class="st67" points="436.13,73.23 436.09,312.35 418.81,318.98 418.85,75.51 			"/>
		</g>
		<g>
			<linearGradient id="SVGID_58_" gradientUnits="userSpaceOnUse" x1="349.887" y1="128.9243" x2="479.3801" y2="258.4174">
				<stop  offset="0" style="stop-color:#3D597F"/>
				<stop  offset="0.3008" style="stop-color:#34537A"/>
				<stop  offset="0.8002" style="stop-color:#1B436D"/>
				<stop  offset="1" style="stop-color:#0F3C67"/>
			</linearGradient>
			<polygon class="st68" points="418.81,318.98 408.96,310.37 408.99,69.82 418.85,75.51 			"/>
		</g>
		<g>
			<linearGradient id="SVGID_59_" gradientUnits="userSpaceOnUse" x1="408.9927" y1="71.6476" x2="436.1252" y2="71.6476">
				<stop  offset="0" style="stop-color:#3D597F"/>
				<stop  offset="0.3008" style="stop-color:#34537A"/>
				<stop  offset="0.8002" style="stop-color:#1B436D"/>
				<stop  offset="1" style="stop-color:#0F3C67"/>
			</linearGradient>
			<polygon class="st69" points="418.85,75.51 408.99,69.82 426.55,67.78 436.13,73.23 			"/>
		</g>
		<g class="st9">
			<linearGradient id="SVGID_60_" gradientUnits="userSpaceOnUse" x1="412.2628" y1="304.346" x2="412.2628" y2="69.8186">
				<stop  offset="0" style="stop-color:#3D597F"/>
				<stop  offset="0.3008" style="stop-color:#34537A"/>
				<stop  offset="0.8002" style="stop-color:#1B436D"/>
				<stop  offset="1" style="stop-color:#0F3C67"/>
			</linearGradient>
			<polygon class="st70" points="408.96,304.35 408.99,69.82 415.57,73.62 			"/>
		</g>
		<g class="st20">
			<g>
				<linearGradient id="SVGID_61_" gradientUnits="userSpaceOnUse" x1="408.9927" y1="72.6652" x2="436.1252" y2="72.6652">
					<stop  offset="0" style="stop-color:#3D597F"/>
					<stop  offset="0.3008" style="stop-color:#34537A"/>
					<stop  offset="0.8002" style="stop-color:#1B436D"/>
					<stop  offset="1" style="stop-color:#0F3C67"/>
				</linearGradient>
				<polyline class="st71" points="436.13,73.23 418.85,75.51 408.99,69.82 				"/>
			</g>
			<linearGradient id="SVGID_62_" gradientUnits="userSpaceOnUse" x1="418.8144" y1="197.2475" x2="418.849" y2="197.2475">
				<stop  offset="0" style="stop-color:#3D597F"/>
				<stop  offset="0.3008" style="stop-color:#34537A"/>
				<stop  offset="0.8002" style="stop-color:#1B436D"/>
				<stop  offset="1" style="stop-color:#0F3C67"/>
			</linearGradient>
			<line class="st72" x1="418.85" y1="75.51" x2="418.81" y2="318.98"/>
		</g>
		<g class="st14">
			<linearGradient id="SVGID_63_" gradientUnits="userSpaceOnUse" x1="417.7708" y1="73.6165" x2="417.7708" y2="67.7832">
				<stop  offset="0" style="stop-color:#3D597F"/>
				<stop  offset="0.3008" style="stop-color:#34537A"/>
				<stop  offset="0.8002" style="stop-color:#1B436D"/>
				<stop  offset="1" style="stop-color:#0F3C67"/>
			</linearGradient>
			<polygon class="st73" points="415.57,73.62 408.99,69.82 426.55,67.78 			"/>
		</g>
	</g>
	<g>
		<path class="st1" d="M414.92,56.99c0.02-0.36,0.13-0.68,0.3-0.94c0.42-0.66,1.11-0.75,1.49-0.75c1.21,0,1.81,0.85,1.81,1.73
			c0,0.46-0.17,1.1-0.83,1.42c0.22,0.09,0.92,0.44,0.92,1.55c0,1.2-0.88,1.93-1.97,1.93c-0.67,0-1.44-0.28-1.79-1.11
			c-0.1-0.23-0.13-0.44-0.14-0.67h0.71c0.03,0.23,0.11,0.47,0.23,0.65c0.21,0.31,0.59,0.48,0.99,0.48c0.71,0,1.26-0.59,1.26-1.3
			c0-0.37-0.14-0.86-0.63-1.08c-0.2-0.1-0.48-0.14-0.73-0.13v-0.64c0.25,0.02,0.53-0.03,0.73-0.13c0.2-0.11,0.54-0.38,0.54-0.95
			c0-0.57-0.31-1.1-1.1-1.1c-0.26,0-0.58,0.05-0.83,0.37c-0.13,0.16-0.23,0.41-0.25,0.67H414.92z"/>
		<path class="st1" d="M423.05,55.65l-1.47,2.05c0.18-0.06,0.37-0.09,0.57-0.09c1.23,0,2.08,0.92,2.08,2.12
			c0,1.28-0.92,2.2-2.21,2.2c-1.51,0-2.22-1.17-2.22-2.19c0-0.24,0.05-0.8,0.53-1.47l2.19-3.03L423.05,55.65z M423.51,59.75
			c0-0.86-0.64-1.48-1.51-1.48s-1.49,0.64-1.49,1.48c0,0.86,0.61,1.53,1.5,1.53C422.9,61.28,423.51,60.62,423.51,59.75z"/>
		<path class="st1" d="M427.57,56.74c0,0.78-0.62,1.4-1.4,1.4s-1.4-0.62-1.4-1.4c0-0.78,0.62-1.4,1.4-1.4S427.57,55.96,427.57,56.74
			z M426.99,56.74c0-0.47-0.35-0.87-0.82-0.87c-0.45,0-0.82,0.38-0.82,0.87s0.37,0.87,0.82,0.87
			C426.64,57.6,426.99,57.21,426.99,56.74z M429.56,55.27l0.38,0.21l-3.75,6.46l-0.38-0.22L429.56,55.27z M430.97,60.49
			c0,0.78-0.62,1.4-1.4,1.4c-0.78,0-1.4-0.62-1.4-1.4c0-0.78,0.62-1.4,1.4-1.4C430.36,59.09,430.97,59.71,430.97,60.49z
			 M430.4,60.49c0-0.47-0.35-0.87-0.82-0.87c-0.45,0-0.82,0.38-0.82,0.87s0.37,0.87,0.82,0.87C430.05,61.36,430.4,60.96,430.4,60.49
			z"/>
	</g>
	<g>
		<g>
			<path class="st74" d="M110.24,228.69c6.46-0.44,12.92-1.23,19.34-2.17c3.22-0.43,6.42-0.99,9.62-1.49
				c3.2-0.55,6.39-1.14,9.58-1.71c12.75-2.42,25.39-5.4,37.9-8.8l4.7-1.24l4.67-1.34c3.11-0.91,6.23-1.78,9.33-2.72
				c6.17-1.97,12.37-3.81,18.47-5.98c3.06-1.06,6.13-2.08,9.17-3.16l9.09-3.37l4.54-1.69c1.49-0.58,2.96-1.21,4.43-1.81
				c2.97-1.15,5.83-2.57,8.73-3.87c11.47-5.53,22.35-12.17,32.57-19.59c10.24-7.41,20.03-15.36,29.45-23.73
				c18.84-16.74,36.14-35.13,52.01-54.69l0.62,0.35c-3.04,5.48-6.53,10.72-10.12,15.91c-3.63,5.16-7.44,10.22-11.44,15.14
				c-3.97,4.95-8.2,9.73-12.5,14.45c-4.33,4.7-8.88,9.23-13.51,13.68c-4.66,4.43-9.56,8.65-14.58,12.74
				c-5.06,4.05-10.29,7.91-15.7,11.56c-5.44,3.6-10.98,7.07-16.73,10.23c-5.69,3.25-11.6,6.14-17.59,8.85
				c-3.04,1.28-6.03,2.65-9.14,3.77c-1.54,0.58-3.08,1.19-4.63,1.74l-4.63,1.58l-9.26,3.16c-3.1,1.01-6.23,1.96-9.34,2.95
				c-6.2,2.02-12.52,3.72-18.78,5.54c-3.15,0.86-6.31,1.66-9.47,2.49l-4.74,1.23l-4.77,1.13c-12.71,3-25.52,5.56-38.41,7.57
				c-3.23,0.47-6.45,0.96-9.68,1.4c-3.24,0.39-6.47,0.85-9.71,1.17c-6.48,0.69-12.98,1.23-19.5,1.42L110.24,228.69z"/>
			<polygon class="st74" points="380.68,85.42 378.42,113.24 371.92,95.05 352.51,93.34 			"/>
		</g>
	</g>
	<g>
		<path class="st1" d="M321.5,190.38h-1.08l0.38-0.67h1.42v6.42h-0.71V190.38z"/>
		<path class="st1" d="M327.53,190.36h-2.06l-0.41,1.39c0.13-0.03,0.25-0.04,0.4-0.04c1.29,0,2.12,0.97,2.12,2.22
			c0,1.43-1.08,2.31-2.34,2.31c-0.52,0-1-0.14-1.43-0.5c-0.2-0.17-0.4-0.4-0.56-0.66l0.57-0.4c0.11,0.21,0.24,0.37,0.43,0.52
			c0.27,0.22,0.6,0.38,1.04,0.38c0.91,0,1.58-0.74,1.58-1.65c0-0.92-0.66-1.58-1.58-1.58c-0.23,0-0.66,0.04-1.24,0.44l0.93-3.1h2.55
			V190.36z"/>
		<path class="st1" d="M331.21,191.05c0,0.78-0.62,1.4-1.4,1.4s-1.4-0.62-1.4-1.4c0-0.78,0.62-1.4,1.4-1.4
			S331.21,190.27,331.21,191.05z M330.63,191.05c0-0.47-0.35-0.87-0.82-0.87c-0.45,0-0.82,0.38-0.82,0.87s0.37,0.87,0.82,0.87
			C330.28,191.91,330.63,191.52,330.63,191.05z M333.2,189.58l0.38,0.21l-3.75,6.46l-0.38-0.22L333.2,189.58z M334.62,194.8
			c0,0.78-0.62,1.4-1.4,1.4c-0.78,0-1.4-0.62-1.4-1.4c0-0.78,0.62-1.4,1.4-1.4C334,193.41,334.62,194.02,334.62,194.8z
			 M334.04,194.8c0-0.47-0.35-0.87-0.82-0.87c-0.45,0-0.82,0.38-0.82,0.87s0.37,0.87,0.82,0.87
			C333.69,195.67,334.04,195.27,334.04,194.8z"/>
	</g>
	<path class="st75" d="M82.64,82.13"/>
	<g>
		<g>
			<linearGradient id="SVGID_64_" gradientUnits="userSpaceOnUse" x1="366.2913" y1="209.3552" x2="442.3101" y2="285.374">
				<stop  offset="0" style="stop-color:#6FB1C8"/>
				<stop  offset="0.1521" style="stop-color:#67A7C0"/>
				<stop  offset="0.4055" style="stop-color:#528EAB"/>
				<stop  offset="0.7268" style="stop-color:#306489"/>
				<stop  offset="1" style="stop-color:#0F3C67"/>
			</linearGradient>
			<polygon class="st76" points="413.12,175.08 413.71,313.98 396.43,320.6 396.47,179.18 			"/>
		</g>
		<g>
			<linearGradient id="SVGID_65_" gradientUnits="userSpaceOnUse" x1="353.1831" y1="207.3453" x2="431.437" y2="285.5992">
				<stop  offset="0" style="stop-color:#6FB1C8"/>
				<stop  offset="0.1521" style="stop-color:#67A7C0"/>
				<stop  offset="0.4055" style="stop-color:#528EAB"/>
				<stop  offset="0.7268" style="stop-color:#306489"/>
				<stop  offset="1" style="stop-color:#0F3C67"/>
			</linearGradient>
			<polygon class="st77" points="396.43,320.6 385.54,311.15 387.23,173.3 396.47,179.18 			"/>
		</g>
		<g>
			<linearGradient id="SVGID_66_" gradientUnits="userSpaceOnUse" x1="387.2332" y1="174.4864" x2="413.1204" y2="174.4864">
				<stop  offset="0" style="stop-color:#6FB1C8"/>
				<stop  offset="0.1521" style="stop-color:#67A7C0"/>
				<stop  offset="0.4055" style="stop-color:#528EAB"/>
				<stop  offset="0.7268" style="stop-color:#306489"/>
				<stop  offset="1" style="stop-color:#0F3C67"/>
			</linearGradient>
			<polygon class="st78" points="396.47,179.18 387.23,173.3 403.92,169.79 413.12,175.08 			"/>
		</g>
		<g class="st9">
			<linearGradient id="SVGID_67_" gradientUnits="userSpaceOnUse" x1="389.886" y1="305.9669" x2="389.886" y2="173.2952">
				<stop  offset="0" style="stop-color:#6FB1C8"/>
				<stop  offset="0.1521" style="stop-color:#67A7C0"/>
				<stop  offset="0.4055" style="stop-color:#528EAB"/>
				<stop  offset="0.7268" style="stop-color:#306489"/>
				<stop  offset="1" style="stop-color:#0F3C67"/>
			</linearGradient>
			<polygon class="st79" points="386.58,305.97 387.23,173.3 393.2,177.1 			"/>
		</g>
		<g class="st11">
			<g>
				<linearGradient id="SVGID_68_" gradientUnits="userSpaceOnUse" x1="387.2332" y1="176.2374" x2="413.1204" y2="176.2374">
					<stop  offset="0" style="stop-color:#6FB1C8"/>
					<stop  offset="0.1521" style="stop-color:#67A7C0"/>
					<stop  offset="0.4055" style="stop-color:#528EAB"/>
					<stop  offset="0.7268" style="stop-color:#306489"/>
					<stop  offset="1" style="stop-color:#0F3C67"/>
				</linearGradient>
				<polyline class="st80" points="413.12,175.08 396.47,179.18 387.23,173.3 				"/>
			</g>
			<linearGradient id="SVGID_69_" gradientUnits="userSpaceOnUse" x1="396.4323" y1="249.8918" x2="396.4669" y2="249.8918">
				<stop  offset="0" style="stop-color:#6FB1C8"/>
				<stop  offset="0.1521" style="stop-color:#67A7C0"/>
				<stop  offset="0.4055" style="stop-color:#528EAB"/>
				<stop  offset="0.7268" style="stop-color:#306489"/>
				<stop  offset="1" style="stop-color:#0F3C67"/>
			</linearGradient>
			<line class="st81" x1="396.47" y1="179.18" x2="396.43" y2="320.6"/>
		</g>
		<g class="st14">
			<linearGradient id="SVGID_70_" gradientUnits="userSpaceOnUse" x1="395.5772" y1="176.9009" x2="395.5772" y2="169.7931">
				<stop  offset="0" style="stop-color:#6FB1C8"/>
				<stop  offset="0.1521" style="stop-color:#67A7C0"/>
				<stop  offset="0.4055" style="stop-color:#528EAB"/>
				<stop  offset="0.7268" style="stop-color:#306489"/>
				<stop  offset="1" style="stop-color:#0F3C67"/>
			</linearGradient>
			<polygon class="st82" points="394.17,176.9 387.23,173.3 403.92,169.79 			"/>
		</g>
	</g>
	<g>
		<path class="st1" d="M390.43,164.08l2.34-2.71c0.16-0.19,0.6-0.7,0.75-0.93c0.29-0.41,0.36-0.72,0.36-0.98
			c0-0.72-0.52-1.25-1.28-1.25c-0.45,0-0.83,0.2-1.07,0.57c-0.13,0.19-0.2,0.43-0.21,0.76h-0.71c0.03-0.64,0.23-1.04,0.48-1.33
			c0.27-0.31,0.72-0.66,1.52-0.66c1.14,0,1.98,0.81,1.98,1.92c0,0.43-0.13,0.83-0.51,1.38c-0.27,0.38-0.62,0.77-0.88,1.07
			l-1.34,1.51h2.71v0.65H390.43z"/>
		<path class="st1" d="M395.98,163.23c-0.42-0.62-0.64-1.44-0.64-2.36c0-0.92,0.22-1.74,0.64-2.36c0.49-0.71,1.14-0.96,1.65-0.96
			c0.51,0,1.16,0.25,1.65,0.96c0.42,0.62,0.65,1.44,0.65,2.36c0,0.91-0.22,1.74-0.65,2.36c-0.49,0.71-1.14,0.96-1.65,0.96
			C397.11,164.19,396.47,163.94,395.98,163.23z M396.52,158.92c-0.35,0.55-0.47,1.28-0.47,1.96s0.13,1.41,0.47,1.95
			c0.34,0.54,0.78,0.71,1.11,0.71s0.77-0.17,1.11-0.71c0.35-0.55,0.47-1.28,0.47-1.95s-0.13-1.41-0.47-1.96
			c-0.34-0.54-0.78-0.71-1.11-0.71S396.85,158.38,396.52,158.92z"/>
		<path class="st1" d="M403.18,158.99c0,0.78-0.62,1.4-1.4,1.4s-1.4-0.62-1.4-1.4c0-0.78,0.62-1.4,1.4-1.4
			S403.18,158.21,403.18,158.99z M402.6,158.99c0-0.47-0.35-0.87-0.82-0.87c-0.45,0-0.82,0.38-0.82,0.87s0.37,0.87,0.82,0.87
			C402.25,159.86,402.6,159.47,402.6,158.99z M405.17,157.53l0.38,0.21l-3.75,6.46l-0.38-0.22L405.17,157.53z M406.59,162.75
			c0,0.78-0.62,1.4-1.4,1.4c-0.78,0-1.4-0.62-1.4-1.4c0-0.78,0.62-1.4,1.4-1.4C405.97,161.35,406.59,161.97,406.59,162.75z
			 M406.01,162.75c0-0.47-0.35-0.87-0.82-0.87c-0.45,0-0.82,0.38-0.82,0.87s0.37,0.87,0.82,0.87
			C405.66,163.62,406.01,163.22,406.01,162.75z"/>
	</g>
	<g>
		<path class="st4" d="M21.92,359.01h-2.39v1.52h2.32v0.86h-2.32v1.89h2.39v0.86h-3.31v-6h3.31V359.01z"/>
		<path class="st4" d="M23.75,358.14v5.14h1.76v0.86h-2.68v-6H23.75z"/>
		<path class="st4" d="M31.25,359.01h-2.39v1.52h2.32v0.86h-2.32v1.89h2.39v0.86h-3.31v-6h3.31V359.01z"/>
		<path class="st4" d="M36.61,359.55c-0.67-0.6-1.29-0.67-1.63-0.67c-1.31,0-2.19,0.96-2.19,2.29c0,1.27,0.92,2.25,2.2,2.25
			c0.72,0,1.28-0.37,1.62-0.69v1.09c-0.6,0.36-1.23,0.45-1.65,0.45c-1.09,0-1.77-0.5-2.13-0.83c-0.7-0.66-0.96-1.42-0.96-2.27
			c0-1.11,0.46-1.87,0.96-2.35c0.62-0.59,1.34-0.78,2.17-0.78c0.55,0,1.08,0.1,1.6,0.43V359.55z"/>
		<path class="st4" d="M43.25,361.15c0,1.76-1.32,3.12-3.12,3.12c-1.8,0-3.12-1.35-3.12-3.12s1.32-3.12,3.12-3.12
			C41.92,358.03,43.25,359.38,43.25,361.15z M42.33,361.15c0-1.33-0.92-2.27-2.21-2.27c-1.29,0-2.21,0.94-2.21,2.27
			c0,1.33,0.92,2.27,2.21,2.27C41.41,363.42,42.33,362.48,42.33,361.15z"/>
		<path class="st4" d="M44.13,364.15v-6.41l4.36,4.56v-4.16h0.92v6.37l-4.36-4.56v4.2H44.13z"/>
		<path class="st4" d="M56.53,361.15c0,1.76-1.32,3.12-3.12,3.12c-1.8,0-3.12-1.35-3.12-3.12s1.32-3.12,3.12-3.12
			C55.21,358.03,56.53,359.38,56.53,361.15z M55.61,361.15c0-1.33-0.92-2.27-2.21-2.27c-1.29,0-2.21,0.94-2.21,2.27
			c0,1.33,0.92,2.27,2.21,2.27C54.7,363.42,55.61,362.48,55.61,361.15z"/>
		<path class="st4" d="M57.05,364.15l1.26-6.46l2.09,4.66l2.11-4.66l1.13,6.46h-0.94l-0.61-3.62l-1.75,3.9l-1.73-3.91l-0.63,3.63
			H57.05z"/>
		<path class="st4" d="M65.55,358.14v6h-0.92v-6H65.55z"/>
		<path class="st4" d="M69.31,359.47c-0.05-0.13-0.13-0.26-0.27-0.38c-0.19-0.15-0.39-0.22-0.65-0.22c-0.56,0-0.85,0.33-0.85,0.72
			c0,0.18,0.06,0.5,0.65,0.73l0.6,0.24c1.11,0.45,1.41,1.08,1.41,1.76c0,1.14-0.81,1.93-1.94,1.93c-0.69,0-1.11-0.26-1.41-0.6
			c-0.32-0.36-0.47-0.76-0.5-1.17l0.91-0.2c0,0.3,0.11,0.58,0.25,0.77c0.17,0.22,0.42,0.36,0.78,0.36c0.56,0,0.99-0.41,0.99-1.01
			c0-0.61-0.47-0.86-0.86-1.03l-0.58-0.24c-0.5-0.21-1.22-0.62-1.22-1.52c0-0.81,0.63-1.58,1.76-1.58c0.65,0,1.02,0.24,1.21,0.41
			c0.16,0.14,0.33,0.35,0.46,0.6L69.31,359.47z"/>
		<path class="st4" d="M72.58,359.01v5.14h-0.92v-5.14h-1.38v-0.86h3.67v0.86H72.58z"/>
		<path class="st4" d="M77.66,362.7H75.1l-0.66,1.45h-0.99l2.99-6.36l2.84,6.36h-0.99L77.66,362.7z M77.29,361.83l-0.89-2.04
			l-0.93,2.04H77.29z"/>
	</g>
	<g>
		<g>
			<path class="st4" d="M22.92,27.72c1.78,0,2.69,0.46,3.29,0.97c0.99,0.83,1.28,1.93,1.28,2.9c0,1.26-0.5,2.36-1.51,3.04
				c-0.33,0.23-0.79,0.45-1.41,0.56l4.02,5.44h-3.13l-3.44-5.19H21.7v5.19h-2.51V27.72H22.92z M21.7,33.66h0.72
				c0.48,0,2.48-0.06,2.48-1.96c0-1.92-1.97-1.93-2.44-1.93H21.7V33.66z"/>
			<path class="st4" d="M36.93,29.89h-4.64v2.88h4.45v2.17h-4.45v3.52h4.64v2.17h-7.16V27.72h7.16V29.89z"/>
			<path class="st4" d="M38.85,40.62V27.72h1.74l7.86,8.61v-8.61h2.51v12.91h-1.74l-7.86-8.63v8.63H38.85z"/>
			<path class="st4" d="M56.75,27.72c1.8,0,3.37,0.19,4.8,1.26c1.57,1.18,2.48,3.06,2.48,5.2c0,2.15-0.89,4.01-2.59,5.21
				c-1.51,1.06-2.92,1.24-4.72,1.24h-3.33V27.72H56.75z M55.9,38.46h0.77c0.64,0,2.03-0.04,3.15-0.85c1.03-0.74,1.61-2.05,1.61-3.42
				c0-1.35-0.56-2.67-1.59-3.44c-1.04-0.77-2.32-0.85-3.17-0.85H55.9V38.46z"/>
			<path class="st4" d="M68.34,27.72v12.91h-2.51V27.72H68.34z"/>
			<path class="st4" d="M72.5,27.72h1.82l3.42,8.2l3.58-8.2h1.82l2.17,12.91h-2.55l-1.16-7.95l-3.46,7.95h-0.85l-3.31-7.95
				l-1.32,7.95H70.1L72.5,27.72z"/>
			<path class="st4" d="M89.59,27.72v12.91h-2.51V27.72H89.59z"/>
			<path class="st4" d="M99.16,29.89h-4.64v2.88h4.45v2.17h-4.45v3.52h4.64v2.17h-7.16V27.72h7.16V29.89z"/>
			<path class="st4" d="M101.08,40.62V27.72h1.74l7.86,8.61v-8.61h2.51v12.91h-1.74l-7.86-8.63v8.63H101.08z"/>
			<path class="st4" d="M119.68,29.89v10.74h-2.51V29.89h-2.9v-2.17h8.32v2.17H119.68z"/>
			<path class="st4" d="M136.24,34.18c0,3.93-2.82,6.73-6.89,6.73s-6.89-2.81-6.89-6.73s2.82-6.75,6.89-6.75
				S136.24,30.25,136.24,34.18z M133.65,34.18c0-2.61-1.78-4.47-4.29-4.47s-4.29,1.86-4.29,4.47c0,2.61,1.78,4.45,4.29,4.45
				S133.65,36.79,133.65,34.18z"/>
			<path class="st4" d="M144.39,30.66c-0.75-1.01-1.64-1.1-2.11-1.1c-1.35,0-1.78,0.85-1.78,1.51c0,0.31,0.1,0.6,0.41,0.87
				c0.31,0.29,0.74,0.45,1.55,0.74c1.01,0.35,1.95,0.7,2.61,1.3c0.58,0.52,1.1,1.39,1.1,2.71c0,2.52-1.82,4.24-4.49,4.24
				c-2.38,0-3.77-1.45-4.45-2.44l1.64-1.57c0.62,1.26,1.8,1.72,2.71,1.72c1.14,0,1.99-0.7,1.99-1.78c0-0.46-0.15-0.83-0.5-1.16
				c-0.48-0.45-1.26-0.7-1.99-0.95c-0.68-0.23-1.49-0.54-2.15-1.12c-0.43-0.37-1.03-1.08-1.03-2.4c0-1.9,1.28-3.79,4.14-3.79
				c0.81,0,2.34,0.15,3.66,1.51L144.39,30.66z"/>
			<path class="st4" d="M155.2,27.72c1.8,0,3.37,0.19,4.8,1.26c1.57,1.18,2.48,3.06,2.48,5.2c0,2.15-0.89,4.01-2.59,5.21
				c-1.51,1.06-2.92,1.24-4.72,1.24h-3.33V27.72H155.2z M154.35,38.46h0.77c0.64,0,2.03-0.04,3.15-0.85
				c1.03-0.74,1.61-2.05,1.61-3.42c0-1.35-0.56-2.67-1.59-3.44c-1.04-0.77-2.32-0.85-3.17-0.85h-0.77V38.46z"/>
			<path class="st4" d="M171.44,29.89h-4.64v2.88h4.45v2.17h-4.45v3.52h4.64v2.17h-7.16V27.72h7.16V29.89z"/>
			<path class="st4" d="M179.86,27.72v12.91h-2.51V27.72H179.86z"/>
			<path class="st4" d="M182.28,40.62V27.72h1.74l7.86,8.61v-8.61h2.51v12.91h-1.74l-7.86-8.63v8.63H182.28z"/>
			<path class="st4" d="M203.15,30.66c-0.75-1.01-1.64-1.1-2.11-1.1c-1.35,0-1.78,0.85-1.78,1.51c0,0.31,0.1,0.6,0.41,0.87
				c0.31,0.29,0.74,0.45,1.55,0.74c1.01,0.35,1.95,0.7,2.61,1.3c0.58,0.52,1.1,1.39,1.1,2.71c0,2.52-1.82,4.24-4.49,4.24
				c-2.38,0-3.77-1.45-4.45-2.44l1.64-1.57c0.62,1.26,1.8,1.72,2.71,1.72c1.14,0,1.99-0.7,1.99-1.78c0-0.46-0.15-0.83-0.5-1.16
				c-0.48-0.45-1.26-0.7-1.99-0.95c-0.68-0.23-1.49-0.54-2.15-1.12c-0.43-0.37-1.03-1.08-1.03-2.4c0-1.9,1.28-3.79,4.14-3.79
				c0.81,0,2.34,0.15,3.66,1.51L203.15,30.66z"/>
			<path class="st4" d="M210.49,29.89v10.74h-2.51V29.89h-2.9v-2.17h8.32v2.17H210.49z"/>
			<path class="st4" d="M218.19,27.72c1.78,0,2.69,0.46,3.29,0.97c0.99,0.83,1.28,1.93,1.28,2.9c0,1.26-0.5,2.36-1.51,3.04
				c-0.33,0.23-0.79,0.45-1.41,0.56l4.02,5.44h-3.13l-3.44-5.19h-0.31v5.19h-2.51V27.72H218.19z M216.97,33.66h0.72
				c0.48,0,2.48-0.06,2.48-1.96c0-1.92-1.97-1.93-2.44-1.93h-0.75V33.66z"/>
			<path class="st4" d="M227.56,27.72v8.11c0,0.99,0.33,1.59,0.62,1.92c0.37,0.45,1.04,0.89,2.05,0.89c1.01,0,1.68-0.44,2.05-0.89
				c0.29-0.33,0.62-0.93,0.62-1.92v-8.11h2.51v7.89c0,1.22-0.19,2.46-0.97,3.44c-0.93,1.22-2.55,1.86-4.22,1.86
				c-1.66,0-3.29-0.64-4.22-1.86c-0.77-0.99-0.97-2.22-0.97-3.44v-7.89H227.56z"/>
			<path class="st4" d="M239.57,27.72h1.82l3.42,8.2l3.58-8.2h1.82l2.17,12.91h-2.55l-1.16-7.95l-3.46,7.95h-0.85l-3.31-7.95
				l-1.32,7.95h-2.55L239.57,27.72z"/>
			<path class="st4" d="M261.3,29.89h-4.64v2.88h4.45v2.17h-4.45v3.52h4.64v2.17h-7.16V27.72h7.16V29.89z"/>
			<path class="st4" d="M263.22,40.62V27.72h1.74l7.86,8.61v-8.61h2.51v12.91h-1.74l-7.86-8.63v8.63H263.22z"/>
			<path class="st4" d="M281.81,29.89v10.74h-2.51V29.89h-2.9v-2.17h8.32v2.17H281.81z"/>
			<path class="st4" d="M298.38,34.18c0,3.93-2.82,6.73-6.89,6.73s-6.89-2.81-6.89-6.73s2.82-6.75,6.89-6.75
				S298.38,30.25,298.38,34.18z M295.78,34.18c0-2.61-1.78-4.47-4.29-4.47s-4.29,1.86-4.29,4.47c0,2.61,1.78,4.45,4.29,4.45
				S295.78,36.79,295.78,34.18z"/>
			<path class="st4" d="M306.52,30.66c-0.75-1.01-1.64-1.1-2.11-1.1c-1.35,0-1.78,0.85-1.78,1.51c0,0.31,0.1,0.6,0.41,0.87
				c0.31,0.29,0.74,0.45,1.55,0.74c1.01,0.35,1.95,0.7,2.61,1.3c0.58,0.52,1.1,1.39,1.1,2.71c0,2.52-1.82,4.24-4.49,4.24
				c-2.38,0-3.77-1.45-4.45-2.44l1.64-1.57c0.62,1.26,1.8,1.72,2.71,1.72c1.14,0,1.99-0.7,1.99-1.78c0-0.46-0.15-0.83-0.5-1.16
				c-0.48-0.45-1.26-0.7-1.99-0.95c-0.68-0.23-1.49-0.54-2.15-1.12c-0.43-0.37-1.03-1.08-1.03-2.4c0-1.9,1.28-3.79,4.14-3.79
				c0.81,0,2.34,0.15,3.66,1.51L306.52,30.66z"/>
			<path class="st4" d="M317.34,27.72c1.8,0,3.37,0.19,4.8,1.26c1.57,1.18,2.48,3.06,2.48,5.2c0,2.15-0.89,4.01-2.59,5.21
				c-1.51,1.06-2.92,1.24-4.72,1.24h-3.33V27.72H317.34z M316.49,38.46h0.77c0.64,0,2.03-0.04,3.15-0.85
				c1.03-0.74,1.61-2.05,1.61-3.42c0-1.35-0.56-2.67-1.59-3.44c-1.04-0.77-2.32-0.85-3.17-0.85h-0.77V38.46z"/>
			<path class="st4" d="M333.58,29.89h-4.64v2.88h4.45v2.17h-4.45v3.52h4.64v2.17h-7.16V27.72h7.16V29.89z"/>
			<path class="st4" d="M341.99,27.72v12.91h-2.51V27.72H341.99z"/>
			<path class="st4" d="M344.41,40.62V27.72h1.74l7.86,8.61v-8.61h2.51v12.91h-1.74l-7.86-8.63v8.63H344.41z"/>
			<path class="st4" d="M360.26,27.72l3.44,8.67l3.44-8.67h2.75l-5.46,12.91h-1.51l-5.42-12.91H360.26z"/>
			<path class="st4" d="M378.04,29.89h-4.64v2.88h4.45v2.17h-4.45v3.52h4.64v2.17h-7.16V27.72h7.16V29.89z"/>
			<path class="st4" d="M383.69,27.72c1.78,0,2.69,0.46,3.29,0.97c0.99,0.83,1.28,1.93,1.28,2.9c0,1.26-0.5,2.36-1.51,3.04
				c-0.33,0.23-0.79,0.45-1.41,0.56l4.02,5.44h-3.13l-3.44-5.19h-0.31v5.19h-2.51V27.72H383.69z M382.47,33.66h0.72
				c0.48,0,2.48-0.06,2.48-1.96c0-1.92-1.97-1.93-2.44-1.93h-0.75V33.66z"/>
			<path class="st4" d="M396.89,30.66c-0.75-1.01-1.64-1.1-2.11-1.1c-1.35,0-1.78,0.85-1.78,1.51c0,0.31,0.1,0.6,0.41,0.87
				c0.31,0.29,0.74,0.45,1.55,0.74c1.01,0.35,1.95,0.7,2.61,1.3c0.58,0.52,1.1,1.39,1.1,2.71c0,2.52-1.82,4.24-4.49,4.24
				c-2.38,0-3.77-1.45-4.45-2.44l1.64-1.57c0.62,1.26,1.8,1.72,2.71,1.72c1.14,0,1.99-0.7,1.99-1.78c0-0.46-0.15-0.83-0.5-1.16
				c-0.48-0.45-1.26-0.7-1.99-0.95c-0.68-0.23-1.49-0.54-2.15-1.12c-0.43-0.37-1.03-1.08-1.03-2.4c0-1.9,1.28-3.79,4.14-3.79
				c0.81,0,2.34,0.15,3.66,1.51L396.89,30.66z"/>
			<path class="st4" d="M402.87,27.72v12.91h-2.51V27.72H402.87z"/>
			<path class="st4" d="M418.45,34.18c0,3.93-2.82,6.73-6.89,6.73s-6.89-2.81-6.89-6.73s2.82-6.75,6.89-6.75
				S418.45,30.25,418.45,34.18z M415.85,34.18c0-2.61-1.78-4.47-4.29-4.47s-4.29,1.86-4.29,4.47c0,2.61,1.78,4.45,4.29,4.45
				S415.85,36.79,415.85,34.18z M410.01,25.57l2.71-2.75l1.74,1.35l-3.37,2.36L410.01,25.57z"/>
			<path class="st4" d="M420.25,40.62V27.72h1.74l7.86,8.61v-8.61h2.51v12.91h-1.74l-7.86-8.63v8.63H420.25z"/>
		</g>
	</g>
</g>
<linearGradient id="SVGID_71_" gradientUnits="userSpaceOnUse" x1="-88.9026" y1="100.781" x2="-68.2369" y2="121.1134">
	<stop  offset="0" style="stop-color:#6FB1C8"/>
	<stop  offset="0.1521" style="stop-color:#67A7C0"/>
	<stop  offset="0.4055" style="stop-color:#528EAB"/>
	<stop  offset="0.7268" style="stop-color:#306489"/>
	<stop  offset="1" style="stop-color:#0F3C67"/>
</linearGradient>
<rect x="-87.84" y="101.68" class="st83" width="18.65" height="18.65"/>
<linearGradient id="SVGID_72_" gradientUnits="userSpaceOnUse" x1="-94.5228" y1="126.6478" x2="-68.1907" y2="148.9801">
	<stop  offset="0" style="stop-color:#3D597F"/>
	<stop  offset="0.3008" style="stop-color:#34537A"/>
	<stop  offset="0.8002" style="stop-color:#1B436D"/>
	<stop  offset="1" style="stop-color:#0F3C67"/>
</linearGradient>
<rect x="-87.84" y="130.9" class="st84" width="18.65" height="18.65"/>
</svg>
