<?xml version="1.0" encoding="utf-8"?>
<!-- Generator: Adobe Illustrator 24.3.0, SVG Export Plug-In . SVG Version: 6.00 Build 0)  -->
<svg version="1.1" id="Capa_1" xmlns:svgjs="http://svgjs.com/svgjs"
	 xmlns="http://www.w3.org/2000/svg" xmlns:xlink="http://www.w3.org/1999/xlink" x="0px" y="0px" viewBox="0 0 512 512"
	 style="enable-background:new 0 0 512 512;" xml:space="preserve">
<style type="text/css">
	.st0{fill:#002B53;}
</style>
<g>
	<path class="st0" d="M76.8,341.3C38.6,341.3,0,353.1,0,375.5v102.4C0,500.3,38.6,512,76.8,512s76.8-11.7,76.8-34.1V375.5
		C153.6,353.1,115,341.3,76.8,341.3z M76.8,358.4c38.8,0,59.7,12.1,59.7,17.1s-20.9,17.1-59.7,17.1s-59.7-12.1-59.7-17.1
		C17.1,370.5,38,358.4,76.8,358.4z M76.8,494.9c-38.8,0-59.7-12.1-59.7-17.1v-11.9c18.7,8.5,39.2,12.6,59.7,11.9
		c20.6,0.6,41-3.5,59.7-11.9v11.9C136.5,482.8,115.6,494.9,76.8,494.9z M76.8,460.8c-38.8,0-59.7-12.1-59.7-17.1v-11.9
		c18.7,8.5,39.2,12.6,59.7,11.9c20.6,0.6,41-3.5,59.7-11.9v11.9C136.5,448.7,115.6,460.8,76.8,460.8z M76.8,426.7
		c-38.8,0-59.7-12.1-59.7-17.1v-11.9c18.7,8.5,39.2,12.6,59.7,11.9c20.6,0.6,41-3.5,59.7-11.9v11.9
		C136.5,414.6,115.6,426.7,76.8,426.7z"/>
	<path class="st0" d="M256,273.1c-38.2,0-76.8,11.7-76.8,34.1v170.7c0,22.4,38.6,34.1,76.8,34.1s76.8-11.7,76.8-34.1V307.2
		C332.8,284.8,294.2,273.1,256,273.1z M256,290.1c38.8,0,59.7,12.1,59.7,17.1s-20.9,17.1-59.7,17.1s-59.7-12.1-59.7-17.1
		C196.3,302.3,217.2,290.1,256,290.1z M256,494.9c-38.8,0-59.7-12.1-59.7-17.1v-11.9c18.7,8.5,39.2,12.6,59.7,11.9
		c20.6,0.6,41-3.5,59.7-11.9v11.9C315.7,482.8,294.8,494.9,256,494.9z M256,460.8c-38.8,0-59.7-12.1-59.7-17.1v-11.9
		c18.7,8.5,39.2,12.6,59.7,11.9c20.6,0.6,41-3.5,59.7-11.9v11.9C315.7,448.7,294.8,460.8,256,460.8z M256,426.7
		c-38.8,0-59.7-12.1-59.7-17.1v-11.9c18.7,8.5,39.2,12.6,59.7,11.9c20.6,0.6,41-3.5,59.7-11.9v11.9
		C315.7,414.6,294.8,426.7,256,426.7z M256,392.5c-38.8,0-59.7-12.1-59.7-17.1v-11.9c18.7,8.5,39.2,12.6,59.7,11.9
		c20.6,0.6,41-3.5,59.7-11.9v11.9C315.7,380.4,294.8,392.5,256,392.5z M256,358.4c-38.8,0-59.7-12.1-59.7-17.1v-11.9
		c18.7,8.5,39.2,12.6,59.7,11.9c20.6,0.6,41-3.5,59.7-11.9v11.9C315.7,346.3,294.8,358.4,256,358.4z"/>
	<path class="st0" d="M435.2,170.7c-38.2,0-76.8,11.7-76.8,34.1v273.1c0,22.4,38.6,34.1,76.8,34.1s76.8-11.7,76.8-34.1V204.8
		C512,182.4,473.4,170.7,435.2,170.7z M435.2,187.7c38.8,0,59.7,12.1,59.7,17.1c0,4.9-20.9,17.1-59.7,17.1s-59.7-12.1-59.7-17.1
		C375.5,199.9,396.4,187.7,435.2,187.7z M435.2,494.9c-38.8,0-59.7-12.1-59.7-17.1v-11.9c18.7,8.5,39.2,12.6,59.7,11.9
		c20.6,0.6,41-3.5,59.7-11.9v11.9C494.9,482.8,474,494.9,435.2,494.9z M435.2,460.8c-38.8,0-59.7-12.1-59.7-17.1v-11.9
		c18.7,8.5,39.2,12.6,59.7,11.9c20.6,0.6,41-3.5,59.7-11.9v11.9C494.9,448.7,474,460.8,435.2,460.8z M435.2,426.7
		c-38.8,0-59.7-12.1-59.7-17.1v-11.9c18.7,8.5,39.2,12.6,59.7,11.9c20.6,0.6,41-3.5,59.7-11.9v11.9
		C494.9,414.6,474,426.7,435.2,426.7z M435.2,392.5c-38.8,0-59.7-12.1-59.7-17.1v-11.9c18.7,8.5,39.2,12.6,59.7,11.9
		c20.6,0.6,41-3.5,59.7-11.9v11.9C494.9,380.4,474,392.5,435.2,392.5z M435.2,358.4c-38.8,0-59.7-12.1-59.7-17.1v-11.9
		c18.7,8.5,39.2,12.6,59.7,11.9c20.6,0.6,41-3.5,59.7-11.9v11.9C494.9,346.3,474,358.4,435.2,358.4z M435.2,324.3
		c-38.8,0-59.7-12.1-59.7-17.1v-11.9c18.7,8.5,39.2,12.6,59.7,11.9c20.6,0.6,41-3.5,59.7-11.9v11.9
		C494.9,312.2,474,324.3,435.2,324.3z M435.2,290.1c-38.8,0-59.7-12.1-59.7-17.1v-11.9c18.7,8.5,39.2,12.6,59.7,11.9
		c20.6,0.6,41-3.5,59.7-11.9V273C494.9,278,474,290.1,435.2,290.1z M435.2,256c-38.8,0-59.7-12.1-59.7-17.1V227
		c18.7,8.5,39.2,12.6,59.7,11.9c20.6,0.6,41-3.5,59.7-11.9v11.9C494.9,243.9,474,256,435.2,256z"/>
	<path class="st0" d="M418.1,0v17.1h64.7L320.7,179.2H141.9L2.9,300.8l11.3,12.9l134.1-117.4h179.5L494.9,29.1v64.7H512V0H418.1z"/>
</g>
</svg>
