<?xml version="1.0" encoding="utf-8"?>
<!-- Generator: Adobe Illustrator 24.3.0, SVG Export Plug-In . SVG Version: 6.00 Build 0)  -->
<svg version="1.1" id="Capa_1" xmlns="http://www.w3.org/2000/svg" xmlns:xlink="http://www.w3.org/1999/xlink" x="0px" y="0px"
	 viewBox="0 0 280 240" style="enable-background:new 0 0 280 240;" xml:space="preserve">
<style type="text/css">
	.st0{fill:#E30613;}
	.st1{enable-background:new    ;}
	.st2{fill:#FFFFFF;}
</style>
<polygon class="st0" points="280,29.5 34.5,240 0,240 0,210.4 245.5,0 280,0 "/>
<g class="st1">
	<path class="st2" d="M98.3,147.2c-0.5-0.3-1.1-0.4-1.8-0.4c-1,0-1.7,0.4-2.5,1c-1.7,1.5-1.7,3.2-0.7,4.4c0.5,0.5,1.5,1.3,3.8,0.5
		l2.4-0.8c4.5-1.5,7.1-0.4,8.8,1.6c3,3.4,2.6,7.9-0.8,10.8c-2.1,1.8-4,2.1-5.8,1.9c-1.9-0.2-3.4-1-4.6-2.2l2.2-3
		c0.8,0.9,1.8,1.4,2.8,1.6c1.1,0.2,2.2,0,3.3-1c1.7-1.5,1.9-3.8,0.3-5.6c-1.6-1.8-3.7-1.4-5.3-0.8l-2.4,0.8c-2,0.7-5.3,1.3-7.6-1.4
		c-2.1-2.4-2.2-6.4,1.1-9.3c1.9-1.7,3.7-1.9,4.7-1.9c0.9,0,1.9,0.2,3,0.6L98.3,147.2z"/>
	<path class="st2" d="M122.8,140.6c3,3.5,2.6,8.3-0.8,11.3s-8.3,2.7-11.3-0.7c-3.1-3.5-2.6-8.3,0.9-11.3S119.7,137.1,122.8,140.6z
		 M120.1,142.9c-2.3-2.6-4.9-2.2-6.5-0.7s-2.5,4-0.2,6.6c1.9,2.2,4.4,2.5,6.5,0.7C122,147.7,122,145.1,120.1,142.9z"/>
	<path class="st2" d="M116,121.8l17.1,19.7l-2.6,2.3l-17.1-19.7L116,121.8z"/>
	<path class="st2" d="M127.7,111.7l2.6-2.3l17.1,19.7l-2.6,2.3l-1-1.2c0,2.4-1.3,3.8-2.1,4.5c-3.5,3.1-8.1,1.9-10.8-1.3
		c-3.2-3.7-2.7-8.2,0.3-10.8c0.8-0.7,2.5-1.8,4.8-1.3L127.7,111.7z M133.7,131.2c1.7,2,4.4,2.5,6.3,0.9c1.7-1.5,2.2-4,0.1-6.4
		c-2.2-2.5-4.7-2.3-6.4-0.9C131.7,126.4,131.9,129.1,133.7,131.2z"/>
	<path class="st2" d="M167.6,95.7c4.6,5.3,4.2,12.8-1.2,17.5c-5.4,4.7-12.9,4.1-17.5-1.2c-4.6-5.3-4.2-12.8,1.3-17.5
		C155.5,89.8,163,90.4,167.6,95.7z M164.9,98.1c-3.5-4-8.7-4.4-12.5-1.1c-3.9,3.4-4.2,8.6-0.7,12.6c3.5,4,8.7,4.4,12.5,1.1
		C168.1,107.3,168.4,102.1,164.9,98.1z"/>
	<path class="st2" d="M171.2,88.5l5.7,6.5c0.6,0.7,1.3,1.4,2.3,1.6c0.8,0.2,1.7-0.1,2.4-0.7c0.8-0.7,1.1-1.5,1-2.3
		c-0.1-1-0.7-1.8-1.3-2.5l-5.7-6.5l2.6-2.3l5.7,6.6c1.3,1.5,2.2,2.8,2,4.8c-0.1,1.9-1.2,3.5-2.5,4.6c-1.2,1-2.9,1.9-4.8,1.7
		c-2-0.1-3.2-1.2-4.5-2.7l-5.7-6.6L171.2,88.5z"/>
	<path class="st2" d="M186.5,79.5l7.8,8.9l-2.7,2.3l-7.8-8.9l-1.1,1l-2.1-2.4l1.1-1l-3.6-4.2l2.6-2.3l3.6,4.2l2-1.8l2.1,2.4
		L186.5,79.5z"/>
</g>
</svg>
