<?xml version="1.0" encoding="utf-8"?>
<!-- Generator: Adobe Illustrator 24.2.3, SVG Export Plug-In . SVG Version: 6.00 Build 0)  -->
<svg version="1.1" id="Capa_1" xmlns="http://www.w3.org/2000/svg" xmlns:xlink="http://www.w3.org/1999/xlink" x="0px" y="0px"
	 viewBox="0 0 478.99 384.25" style="enable-background:new 0 0 478.99 384.25;" xml:space="preserve">
<style type="text/css">
	.st0{opacity:0.1;fill:#002856;}
	.st1{fill:url(#SVGID_1_);}
	.st2{fill:#002856;}
	.st3{fill:url(#SVGID_2_);}
	.st4{fill:none;stroke:#002856;stroke-miterlimit:10;}
	.st5{fill:url(#SVGID_3_);}
	.st6{fill:url(#SVGID_4_);}
	.st7{fill:url(#SVGID_5_);}
	.st8{opacity:0.2;}
	.st9{fill:url(#SVGID_6_);}
	.st10{opacity:0.53;}
	.st11{fill:#818BD7;}
	.st12{opacity:0.35;}
	.st13{fill:url(#SVGID_7_);}
	.st14{fill:url(#SVGID_8_);}
	.st15{fill:url(#SVGID_9_);}
	.st16{fill:#6FB1C8;}
	.st17{fill:url(#SVGID_10_);}
	.st18{opacity:0.46;}
	.st19{fill:#ABCFDE;}
	.st20{fill:url(#SVGID_11_);}
	.st21{fill:url(#SVGID_12_);}
	.st22{fill:url(#SVGID_13_);}
	.st23{fill:url(#SVGID_14_);}
	.st24{fill:url(#SVGID_15_);}
	.st25{fill:url(#SVGID_16_);}
	.st26{fill:url(#SVGID_17_);}
	.st27{fill:url(#SVGID_18_);}
	.st28{fill:url(#SVGID_19_);}
	.st29{fill:url(#SVGID_20_);}
	.st30{fill:url(#SVGID_21_);}
	.st31{fill:url(#SVGID_22_);}
	.st32{fill:url(#SVGID_23_);}
	.st33{fill:url(#SVGID_24_);}
	.st34{fill:url(#SVGID_25_);}
	.st35{fill:url(#SVGID_26_);}
	.st36{fill:url(#SVGID_27_);}
	.st37{fill:url(#SVGID_28_);}
	.st38{fill:url(#SVGID_29_);}
	.st39{fill:url(#SVGID_30_);}
	.st40{fill:url(#SVGID_31_);}
	.st41{fill:url(#SVGID_32_);}
	.st42{fill:url(#SVGID_33_);}
	.st43{fill:url(#SVGID_34_);}
	.st44{fill:url(#SVGID_35_);}
	.st45{fill:url(#SVGID_36_);}
	.st46{fill:url(#SVGID_37_);}
	.st47{fill:url(#SVGID_38_);}
	.st48{fill:url(#SVGID_39_);}
	.st49{fill:url(#SVGID_40_);}
	.st50{fill:url(#SVGID_41_);}
	.st51{fill:url(#SVGID_42_);}
	.st52{fill:url(#SVGID_43_);}
	.st53{fill:url(#SVGID_44_);}
	.st54{fill:url(#SVGID_45_);}
	.st55{fill:url(#SVGID_46_);}
	.st56{fill:url(#SVGID_47_);}
</style>
<rect x="85.03" y="299.41" class="st0" width="349.75" height="15.55"/>
<g>
	<linearGradient id="SVGID_1_" gradientUnits="userSpaceOnUse" x1="107.3184" y1="115.1162" x2="127.9841" y2="135.4485">
		<stop  offset="0" style="stop-color:#6FB1C8"/>
		<stop  offset="0.1521" style="stop-color:#67A7C0"/>
		<stop  offset="0.4055" style="stop-color:#528EAB"/>
		<stop  offset="0.7268" style="stop-color:#306489"/>
		<stop  offset="1" style="stop-color:#0F3C67"/>
	</linearGradient>
	<rect x="108.38" y="116.01" class="st1" width="18.65" height="18.65"/>
	<g>
		<path class="st2" d="M140.38,117.19c0.78,0,1.28,0.1,1.69,0.38c0.7,0.47,0.76,1.23,0.76,1.51c0,0.92-0.57,1.6-1.42,1.79l2,2.74
			h-1.18l-1.84-2.63h-0.17v2.63h-0.98v-6.42H140.38z M140.22,120.14h0.31c0.27,0,1.37-0.03,1.37-1.05c0-0.91-0.86-0.99-1.34-0.99
			h-0.34V120.14z"/>
		<path class="st2" d="M147.63,118.12h-2.56v1.63h2.48v0.92h-2.48v2.02h2.56v0.92h-3.54v-6.42h3.54V118.12z"/>
		<path class="st2" d="M148.61,123.62v-6.86l4.66,4.88v-4.45h0.98v6.82l-4.66-4.88v4.49H148.61z"/>
		<path class="st2" d="M156.85,117.19c0.9,0,1.68,0.1,2.39,0.63c0.78,0.59,1.23,1.52,1.23,2.59c0,1.07-0.44,1.99-1.29,2.59
			c-0.75,0.53-1.45,0.62-2.35,0.62h-1.33v-6.42H156.85z M156.49,122.69h0.42c0.48,0,1.15-0.04,1.7-0.45
			c0.44-0.34,0.88-0.95,0.88-1.83c0-0.85-0.41-1.51-0.87-1.85c-0.56-0.4-1.24-0.44-1.71-0.44h-0.42V122.69z"/>
		<path class="st2" d="M162.4,117.19v6.42h-0.98v-6.42H162.4z"/>
		<path class="st2" d="M163.46,123.62l1.35-6.9l2.23,4.99l2.25-4.99l1.21,6.9h-1l-0.65-3.87l-1.87,4.17l-1.85-4.18l-0.67,3.88
			H163.46z"/>
		<path class="st2" d="M172.55,117.19v6.42h-0.98v-6.42H172.55z"/>
		<path class="st2" d="M177.34,118.12h-2.56v1.63h2.48v0.92h-2.48v2.02h2.56v0.92h-3.54v-6.42h3.54V118.12z"/>
		<path class="st2" d="M178.33,123.62v-6.86l4.66,4.88v-4.45h0.98v6.82l-4.66-4.88v4.49H178.33z"/>
		<path class="st2" d="M187,118.12v5.5h-0.98v-5.5h-1.47v-0.92h3.93v0.92H187z"/>
		<path class="st2" d="M195.23,120.41c0,1.89-1.42,3.33-3.34,3.33c-1.92,0-3.34-1.44-3.34-3.33c0-1.89,1.42-3.33,3.34-3.33
			C193.82,117.08,195.23,118.52,195.23,120.41z M194.25,120.41c0-1.42-0.98-2.43-2.36-2.43c-1.38,0-2.36,1-2.36,2.43
			s0.98,2.43,2.36,2.43C193.27,122.84,194.25,121.83,194.25,120.41z"/>
		<path class="st2" d="M139.04,135.17l1.35-6.9l2.23,4.99l2.25-4.99l1.21,6.9h-1l-0.65-3.87l-1.87,4.17l-1.85-4.18l-0.67,3.88
			H139.04z"/>
		<path class="st2" d="M149,126.75l-1.34,1.55l-0.55-0.26l0.94-1.63L149,126.75z M148.13,128.75v6.42h-0.98v-6.42H148.13z"/>
		<path class="st2" d="M149.38,135.17v-6.86l4.66,4.88v-4.45h0.98v6.82l-4.66-4.88v4.49H149.38z"/>
		<path class="st2" d="M157.26,128.75v6.42h-0.98v-6.42H157.26z"/>
		<path class="st2" d="M158.32,135.17l1.35-6.9l2.23,4.99l2.25-4.99l1.21,6.9h-1l-0.65-3.87l-1.87,4.17l-1.85-4.18l-0.67,3.88
			H158.32z"/>
		<path class="st2" d="M172.8,131.96c0,1.89-1.42,3.33-3.34,3.33c-1.92,0-3.34-1.44-3.34-3.33c0-1.89,1.42-3.33,3.34-3.33
			C171.38,128.63,172.8,130.08,172.8,131.96z M171.82,131.96c0-1.42-0.98-2.43-2.36-2.43c-1.38,0-2.36,1-2.36,2.43
			s0.98,2.43,2.36,2.43C170.83,134.39,171.82,133.39,171.82,131.96z"/>
		<path class="st2" d="M179.47,133.62h-2.74l-0.7,1.55h-1.06l3.2-6.8l3.04,6.8h-1.06L179.47,133.62z M179.08,132.69l-0.95-2.18
			l-0.99,2.18H179.08z"/>
		<path class="st2" d="M181.72,135.17v-6.86l4.66,4.88v-4.45h0.98v6.82l-4.66-4.88v4.49H181.72z"/>
		<path class="st2" d="M189.6,128.75v3.87c0,0.35,0.01,0.77,0.2,1.11c0.19,0.33,0.63,0.66,1.19,0.66s1-0.34,1.19-0.66
			c0.19-0.34,0.2-0.76,0.2-1.11v-3.87h0.98v4.13c0,0.51-0.11,1.13-0.6,1.67c-0.34,0.37-0.91,0.75-1.78,0.75s-1.44-0.38-1.78-0.75
			c-0.49-0.54-0.6-1.16-0.6-1.67v-4.13H189.6z"/>
		<path class="st2" d="M198.4,133.62h-2.74l-0.7,1.55h-1.06l3.2-6.8l3.04,6.8h-1.06L198.4,133.62z M198,132.69l-0.95-2.18
			l-0.99,2.18H198z"/>
		<path class="st2" d="M201.63,128.75v5.5h1.89v0.92h-2.87v-6.42H201.63z"/>
	</g>
	<linearGradient id="SVGID_2_" gradientUnits="userSpaceOnUse" x1="101.6982" y1="140.9829" x2="128.0303" y2="163.3152">
		<stop  offset="0" style="stop-color:#3D597F"/>
		<stop  offset="0.3008" style="stop-color:#34537A"/>
		<stop  offset="0.8002" style="stop-color:#1B436D"/>
		<stop  offset="1" style="stop-color:#0F3C67"/>
	</linearGradient>
	<rect x="108.38" y="145.24" class="st3" width="18.65" height="18.65"/>
	<g>
		<path class="st2" d="M140.38,142.87c0.78,0,1.28,0.1,1.69,0.38c0.7,0.47,0.76,1.23,0.76,1.51c0,0.92-0.57,1.6-1.42,1.79l2,2.74
			h-1.18l-1.84-2.63h-0.17v2.63h-0.98v-6.42H140.38z M140.22,145.81h0.31c0.27,0,1.37-0.03,1.37-1.05c0-0.91-0.86-0.99-1.34-0.99
			h-0.34V145.81z"/>
		<path class="st2" d="M147.63,143.79h-2.56v1.63h2.48v0.92h-2.48v2.02h2.56v0.92h-3.54v-6.42h3.54V143.79z"/>
		<path class="st2" d="M148.61,149.29v-6.86l4.66,4.88v-4.45h0.98v6.82l-4.66-4.88v4.49H148.61z"/>
		<path class="st2" d="M156.85,142.87c0.9,0,1.68,0.1,2.39,0.63c0.78,0.59,1.23,1.52,1.23,2.59c0,1.07-0.44,1.99-1.29,2.59
			c-0.75,0.53-1.45,0.62-2.35,0.62h-1.33v-6.42H156.85z M156.49,148.36h0.42c0.48,0,1.15-0.04,1.7-0.45
			c0.44-0.34,0.88-0.95,0.88-1.83c0-0.85-0.41-1.51-0.87-1.85c-0.56-0.4-1.24-0.44-1.71-0.44h-0.42V148.36z"/>
		<path class="st2" d="M162.4,142.87v6.42h-0.98v-6.42H162.4z"/>
		<path class="st2" d="M163.46,149.29l1.35-6.9l2.23,4.99l2.25-4.99l1.21,6.9h-1l-0.65-3.87l-1.87,4.17l-1.85-4.18l-0.67,3.88
			H163.46z"/>
		<path class="st2" d="M172.55,142.87v6.42h-0.98v-6.42H172.55z"/>
		<path class="st2" d="M177.34,143.79h-2.56v1.63h2.48v0.92h-2.48v2.02h2.56v0.92h-3.54v-6.42h3.54V143.79z"/>
		<path class="st2" d="M178.33,149.29v-6.86l4.66,4.88v-4.45h0.98v6.82l-4.66-4.88v4.49H178.33z"/>
		<path class="st2" d="M187,143.79v5.5h-0.98v-5.5h-1.47v-0.92h3.93v0.92H187z"/>
		<path class="st2" d="M195.23,146.08c0,1.89-1.42,3.33-3.34,3.33c-1.92,0-3.34-1.44-3.34-3.33c0-1.89,1.42-3.33,3.34-3.33
			C193.82,142.75,195.23,144.19,195.23,146.08z M194.25,146.08c0-1.42-0.98-2.43-2.36-2.43c-1.38,0-2.36,1-2.36,2.43
			s0.98,2.43,2.36,2.43C193.27,148.51,194.25,147.51,194.25,146.08z"/>
		<path class="st2" d="M139.04,160.84l1.35-6.9l2.23,4.99l2.25-4.99l1.21,6.9h-1l-0.65-3.87l-1.87,4.17l-1.85-4.18l-0.67,3.88
			H139.04z"/>
		<path class="st2" d="M150.92,159.29h-2.74l-0.7,1.55h-1.06l3.2-6.8l3.04,6.8h-1.06L150.92,159.29z M150.53,158.37l-0.95-2.18
			l-0.99,2.18H150.53z M148.92,153.46l1.33-1.34l0.83,0.58l-1.69,1.15L148.92,153.46z"/>
		<path class="st2" d="M154.52,157.49l-1.77-3.07h1.1l1.25,2.18l1.28-2.18h1.1l-1.85,3.07l1.94,3.35h-1.1l-1.41-2.46l-1.46,2.46
			h-1.1L154.52,157.49z"/>
		<path class="st2" d="M159.13,154.42v6.42h-0.98v-6.42H159.13z"/>
		<path class="st2" d="M160.19,160.84l1.35-6.9l2.23,4.99l2.25-4.99l1.21,6.9h-1l-0.65-3.87l-1.87,4.17l-1.85-4.18l-0.67,3.88
			H160.19z"/>
		<path class="st2" d="M174.67,157.64c0,1.89-1.42,3.33-3.34,3.33c-1.92,0-3.34-1.44-3.34-3.33c0-1.89,1.42-3.33,3.34-3.33
			C173.25,154.3,174.67,155.75,174.67,157.64z M173.68,157.64c0-1.42-0.98-2.43-2.36-2.43c-1.38,0-2.36,1-2.36,2.43
			s0.98,2.43,2.36,2.43C172.7,160.06,173.68,159.06,173.68,157.64z"/>
		<path class="st2" d="M181.34,159.29h-2.74l-0.7,1.55h-1.06l3.2-6.8l3.04,6.8h-1.06L181.34,159.29z M180.94,158.37l-0.95-2.18
			l-0.99,2.18H180.94z"/>
		<path class="st2" d="M183.59,160.84v-6.86l4.66,4.88v-4.45h0.98v6.82l-4.66-4.88v4.49H183.59z"/>
		<path class="st2" d="M191.47,154.42v3.87c0,0.35,0.01,0.77,0.2,1.11c0.19,0.33,0.63,0.66,1.19,0.66s1-0.34,1.19-0.66
			c0.19-0.34,0.2-0.76,0.2-1.11v-3.87h0.98v4.13c0,0.51-0.11,1.13-0.6,1.67c-0.34,0.37-0.91,0.75-1.78,0.75s-1.44-0.38-1.78-0.75
			c-0.49-0.54-0.6-1.16-0.6-1.67v-4.13H191.47z"/>
		<path class="st2" d="M200.27,159.29h-2.74l-0.7,1.55h-1.06l3.2-6.8l3.04,6.8h-1.06L200.27,159.29z M199.87,158.37l-0.95-2.18
			l-0.99,2.18H199.87z"/>
		<path class="st2" d="M203.5,154.42v5.5h1.89v0.92h-2.87v-6.42H203.5z"/>
	</g>
	<g>
		<path class="st2" d="M34.07,352.94h-2.45v1.78H34v0.63h-2.38v2.33h2.45v0.63h-3.11v-6h3.11V352.94z"/>
		<path class="st2" d="M36.14,352.31v5.38h1.66v0.63h-2.32v-6H36.14z"/>
		<path class="st2" d="M44.26,352.94h-2.45v1.78h2.38v0.63h-2.38v2.33h2.45v0.63h-3.12v-6h3.12V352.94z"/>
		<path class="st2" d="M50.26,353.63c-0.19-0.19-0.48-0.41-0.78-0.56c-0.31-0.14-0.68-0.23-1.04-0.23c-1.39,0-2.41,1.12-2.41,2.5
			c0,1.63,1.32,2.45,2.42,2.45c0.41,0,0.8-0.12,1.12-0.28c0.34-0.17,0.58-0.4,0.69-0.5v0.83c-0.67,0.48-1.36,0.59-1.81,0.59
			c-1.78,0-3.11-1.35-3.11-3.09c0-1.79,1.34-3.13,3.14-3.13c0.36,0,1.05,0.05,1.77,0.59V353.63z"/>
		<path class="st2" d="M51.34,355.31c0-1.79,1.4-3.11,3.12-3.11s3.12,1.31,3.12,3.11c0,1.78-1.39,3.11-3.12,3.11
			S51.34,357.1,51.34,355.31z M52.02,355.31c0,1.38,1.09,2.48,2.44,2.48s2.44-1.1,2.44-2.48s-1.09-2.48-2.44-2.48
			S52.02,353.94,52.02,355.31z"/>
		<path class="st2" d="M58.99,358.31v-6.26l4.68,4.91v-4.65h0.67v6.28l-4.68-4.91v4.64H58.99z"/>
		<path class="st2" d="M65.74,355.31c0-1.79,1.4-3.11,3.12-3.11s3.12,1.31,3.12,3.11c0,1.78-1.39,3.11-3.12,3.11
			S65.74,357.1,65.74,355.31z M66.42,355.31c0,1.38,1.09,2.48,2.44,2.48s2.44-1.1,2.44-2.48s-1.09-2.48-2.44-2.48
			S66.42,353.94,66.42,355.31z"/>
		<path class="st2" d="M73.18,358.31l1-6.34l2.3,5.07l2.35-5.08l0.94,6.35h-0.68l-0.57-4.18l-2.04,4.43l-2.02-4.43l-0.59,4.18H73.18
			z"/>
		<path class="st2" d="M82,352.31v6h-0.67v-6H82z"/>
		<path class="st2" d="M86.41,353.49c-0.08-0.16-0.22-0.34-0.35-0.45c-0.12-0.09-0.33-0.21-0.67-0.21c-0.59,0-1.01,0.37-1.01,0.93
			c0,0.23,0.06,0.37,0.22,0.52c0.18,0.18,0.41,0.28,0.63,0.38l0.58,0.25c0.35,0.15,0.68,0.31,0.93,0.57
			c0.31,0.31,0.43,0.66,0.43,1.09c0,1.11-0.82,1.85-1.9,1.85c-0.4,0-0.89-0.08-1.31-0.49c-0.3-0.29-0.48-0.7-0.56-1.06l0.65-0.18
			c0.04,0.31,0.19,0.58,0.36,0.76c0.26,0.26,0.56,0.33,0.86,0.33c0.82,0,1.21-0.58,1.21-1.19c0-0.27-0.08-0.5-0.3-0.7
			c-0.17-0.16-0.41-0.27-0.72-0.41l-0.54-0.25c-0.23-0.11-0.53-0.23-0.8-0.5c-0.26-0.25-0.41-0.53-0.41-0.98
			c0-0.93,0.71-1.55,1.68-1.55c0.37,0,0.67,0.07,0.96,0.27c0.24,0.16,0.45,0.41,0.58,0.67L86.41,353.49z"/>
		<path class="st2" d="M89.67,352.94v5.37H89v-5.37h-1.46v-0.63h3.58v0.63H89.67z"/>
		<path class="st2" d="M95.11,356.62h-2.56l-0.72,1.69H91.1l2.76-6.29l2.69,6.29h-0.74L95.11,356.62z M94.85,355.99l-1.01-2.4
			l-1.03,2.4H94.85z"/>
	</g>
	<g>
		<g>
			<path class="st2" d="M25.46,67.11c0.03-0.59,0.22-1.12,0.49-1.55c0.7-1.09,1.82-1.24,2.46-1.24c2,0,2.98,1.39,2.98,2.85
				c0,0.76-0.29,1.81-1.36,2.34c0.36,0.14,1.52,0.73,1.52,2.55c0,1.98-1.44,3.18-3.25,3.18c-1.09,0-2.38-0.46-2.95-1.82
				c-0.16-0.38-0.22-0.73-0.24-1.11h1.17c0.05,0.38,0.17,0.78,0.38,1.06c0.35,0.51,0.97,0.79,1.63,0.79c1.17,0,2.08-0.97,2.08-2.14
				c0-0.6-0.24-1.41-1.05-1.77c-0.33-0.16-0.79-0.24-1.2-0.22V69c0.41,0.03,0.87-0.05,1.2-0.22c0.33-0.17,0.89-0.62,0.89-1.57
				c0-0.93-0.51-1.8-1.8-1.8c-0.43,0-0.95,0.08-1.36,0.6c-0.21,0.27-0.38,0.67-0.41,1.11H25.46z"/>
			<path class="st2" d="M40.51,65.57h-3.39l-0.68,2.28c0.21-0.05,0.41-0.06,0.67-0.06c2.12,0,3.48,1.6,3.48,3.66
				c0,2.36-1.77,3.8-3.85,3.8c-0.86,0-1.65-0.24-2.36-0.82c-0.33-0.29-0.67-0.65-0.92-1.08l0.93-0.67c0.17,0.35,0.4,0.6,0.71,0.86
				c0.44,0.36,0.98,0.63,1.71,0.63c1.49,0,2.6-1.22,2.6-2.71c0-1.52-1.09-2.6-2.6-2.6c-0.38,0-1.09,0.06-2.04,0.73l1.54-5.1h4.2
				V65.57z"/>
			<path class="st2" d="M47.46,66.7c0,1.28-1.01,2.3-2.3,2.3s-2.3-1.01-2.3-2.3c0-1.28,1.01-2.3,2.3-2.3S47.46,65.42,47.46,66.7z
				 M46.51,66.7c0-0.78-0.57-1.43-1.35-1.43c-0.74,0-1.35,0.63-1.35,1.43c0,0.79,0.6,1.42,1.35,1.42
				C45.94,68.12,46.51,67.48,46.51,66.7z M50.73,64.29l0.62,0.35l-6.16,10.63l-0.62-0.36L50.73,64.29z M53.06,72.88
				c0,1.28-1.01,2.3-2.3,2.3c-1.28,0-2.3-1.01-2.3-2.3s1.01-2.3,2.3-2.3C52.05,70.58,53.06,71.59,53.06,72.88z M52.11,72.88
				c0-0.78-0.57-1.43-1.35-1.43c-0.74,0-1.35,0.63-1.35,1.43s0.6,1.42,1.35,1.42C51.54,74.3,52.11,73.65,52.11,72.88z"/>
			<path class="st2" d="M25.46,100.81c0.03-0.59,0.22-1.12,0.49-1.55c0.7-1.09,1.82-1.24,2.46-1.24c2,0,2.98,1.39,2.98,2.85
				c0,0.76-0.29,1.81-1.36,2.34c0.36,0.14,1.52,0.73,1.52,2.55c0,1.98-1.44,3.18-3.25,3.18c-1.09,0-2.38-0.46-2.95-1.82
				c-0.16-0.38-0.22-0.73-0.24-1.11h1.17c0.05,0.38,0.17,0.78,0.38,1.06c0.35,0.51,0.97,0.79,1.63,0.79c1.17,0,2.08-0.97,2.08-2.14
				c0-0.6-0.24-1.41-1.05-1.77c-0.33-0.16-0.79-0.24-1.2-0.22v-1.05c0.41,0.03,0.87-0.05,1.2-0.22c0.33-0.17,0.89-0.62,0.89-1.57
				c0-0.93-0.51-1.81-1.8-1.81c-0.43,0-0.95,0.08-1.36,0.6c-0.21,0.27-0.38,0.67-0.41,1.11H25.46z"/>
			<path class="st2" d="M35.31,107.37c-0.7-1.01-1.06-2.38-1.06-3.88s0.36-2.87,1.06-3.88c0.81-1.17,1.87-1.58,2.71-1.58
				c0.84,0,1.9,0.41,2.71,1.58c0.7,1.01,1.06,2.38,1.06,3.88s-0.36,2.87-1.06,3.88c-0.81,1.17-1.87,1.58-2.71,1.58
				C37.18,108.95,36.12,108.54,35.31,107.37z M36.2,100.27c-0.57,0.9-0.78,2.11-0.78,3.21s0.21,2.31,0.78,3.22
				c0.55,0.89,1.28,1.17,1.82,1.17c0.54,0,1.27-0.29,1.82-1.17c0.57-0.9,0.78-2.11,0.78-3.22s-0.21-2.31-0.78-3.21
				c-0.55-0.89-1.28-1.17-1.82-1.17C37.48,99.1,36.75,99.38,36.2,100.27z"/>
			<path class="st2" d="M48.06,100.4c0,1.28-1.01,2.3-2.3,2.3s-2.3-1.01-2.3-2.3c0-1.28,1.01-2.3,2.3-2.3S48.06,99.11,48.06,100.4z
				 M47.11,100.4c0-0.78-0.57-1.42-1.35-1.42c-0.74,0-1.35,0.63-1.35,1.42c0,0.79,0.6,1.43,1.35,1.43
				C46.54,101.82,47.11,101.17,47.11,100.4z M51.34,97.99l0.62,0.35l-6.16,10.63l-0.62-0.36L51.34,97.99z M53.66,106.57
				c0,1.28-1.01,2.3-2.3,2.3c-1.28,0-2.3-1.01-2.3-2.3s1.01-2.3,2.3-2.3C52.65,104.28,53.66,105.29,53.66,106.57z M52.71,106.57
				c0-0.78-0.57-1.43-1.35-1.43c-0.74,0-1.35,0.63-1.35,1.43s0.6,1.43,1.35,1.43C52.14,108,52.71,107.35,52.71,106.57z"/>
			<path class="st2" d="M24.89,142.46l3.85-4.45c0.27-0.32,0.98-1.16,1.24-1.54c0.48-0.68,0.59-1.19,0.59-1.62
				c0-1.19-0.86-2.06-2.11-2.06c-0.74,0-1.36,0.33-1.76,0.93c-0.21,0.32-0.33,0.71-0.35,1.25h-1.17c0.05-1.06,0.38-1.71,0.79-2.19
				c0.44-0.51,1.19-1.08,2.5-1.08c1.87,0,3.26,1.33,3.26,3.15c0,0.71-0.21,1.36-0.84,2.27c-0.44,0.62-1.01,1.27-1.44,1.76l-2.2,2.49
				h4.47v1.08H24.89z"/>
			<path class="st2" d="M40.52,132.97h-3.39l-0.68,2.28c0.21-0.05,0.41-0.06,0.67-0.06c2.12,0,3.48,1.6,3.48,3.66
				c0,2.36-1.77,3.8-3.85,3.8c-0.86,0-1.65-0.24-2.36-0.82c-0.33-0.29-0.67-0.65-0.92-1.08l0.93-0.67c0.17,0.35,0.4,0.6,0.71,0.86
				c0.44,0.36,0.98,0.63,1.71,0.63c1.49,0,2.6-1.22,2.6-2.71c0-1.52-1.09-2.6-2.6-2.6c-0.38,0-1.09,0.06-2.04,0.73l1.54-5.1h4.2
				V132.97z"/>
			<path class="st2" d="M47.47,134.1c0,1.28-1.01,2.3-2.3,2.3s-2.3-1.01-2.3-2.3c0-1.28,1.01-2.3,2.3-2.3S47.47,132.81,47.47,134.1z
				 M46.52,134.1c0-0.78-0.57-1.43-1.35-1.43c-0.74,0-1.35,0.63-1.35,1.43c0,0.79,0.6,1.42,1.35,1.42
				C45.95,135.52,46.52,134.87,46.52,134.1z M50.75,131.69l0.62,0.35l-6.16,10.63l-0.62-0.36L50.75,131.69z M53.08,140.27
				c0,1.28-1.01,2.3-2.3,2.3c-1.28,0-2.3-1.01-2.3-2.3s1.01-2.3,2.3-2.3C52.06,137.98,53.08,138.99,53.08,140.27z M52.13,140.27
				c0-0.78-0.57-1.43-1.35-1.43c-0.74,0-1.35,0.63-1.35,1.43s0.6,1.42,1.35,1.42C51.56,141.7,52.13,141.05,52.13,140.27z"/>
			<path class="st2" d="M24.89,176.16l3.85-4.45c0.27-0.32,0.98-1.16,1.24-1.54c0.48-0.68,0.59-1.19,0.59-1.62
				c0-1.19-0.86-2.06-2.11-2.06c-0.74,0-1.36,0.33-1.76,0.93c-0.21,0.32-0.33,0.71-0.35,1.25h-1.17c0.05-1.06,0.38-1.71,0.79-2.19
				c0.44-0.51,1.19-1.08,2.5-1.08c1.87,0,3.26,1.33,3.26,3.15c0,0.71-0.21,1.36-0.84,2.26c-0.44,0.62-1.01,1.27-1.44,1.76l-2.2,2.49
				h4.47v1.08H24.89z"/>
			<path class="st2" d="M34.92,174.76c-0.7-1.01-1.06-2.38-1.06-3.88s0.36-2.87,1.06-3.88c0.81-1.17,1.87-1.58,2.71-1.58
				c0.84,0,1.9,0.41,2.71,1.58c0.7,1.01,1.06,2.38,1.06,3.88s-0.36,2.87-1.06,3.88c-0.81,1.17-1.87,1.58-2.71,1.58
				C36.79,176.35,35.72,175.94,34.92,174.76z M35.8,167.67c-0.57,0.9-0.78,2.11-0.78,3.21s0.21,2.31,0.78,3.22
				c0.55,0.89,1.28,1.17,1.82,1.17c0.54,0,1.27-0.29,1.82-1.17c0.57-0.9,0.78-2.11,0.78-3.22s-0.21-2.31-0.78-3.21
				c-0.55-0.89-1.28-1.17-1.82-1.17C37.09,166.5,36.36,166.78,35.8,167.67z"/>
			<path class="st2" d="M47.66,167.79c0,1.28-1.01,2.3-2.3,2.3s-2.3-1.01-2.3-2.3c0-1.28,1.01-2.3,2.3-2.3
				S47.66,166.51,47.66,167.79z M46.71,167.79c0-0.78-0.57-1.42-1.35-1.42c-0.74,0-1.35,0.63-1.35,1.42c0,0.79,0.6,1.43,1.35,1.43
				C46.14,169.22,46.71,168.57,46.71,167.79z M50.94,165.39l0.62,0.35l-6.16,10.63L44.78,176L50.94,165.39z M53.27,173.97
				c0,1.28-1.01,2.3-2.3,2.3c-1.28,0-2.3-1.01-2.3-2.3s1.01-2.3,2.3-2.3C52.26,171.67,53.27,172.69,53.27,173.97z M52.32,173.97
				c0-0.78-0.57-1.43-1.35-1.43c-0.74,0-1.35,0.63-1.35,1.43s0.6,1.43,1.35,1.43C51.75,175.4,52.32,174.75,52.32,173.97z"/>
			<path class="st2" d="M28.31,200.4h-1.77l0.62-1.11h2.33v10.56h-1.17V200.4z"/>
			<path class="st2" d="M39.13,200.37h-3.39l-0.68,2.28c0.21-0.05,0.41-0.06,0.67-0.06c2.12,0,3.48,1.6,3.48,3.66
				c0,2.36-1.77,3.8-3.85,3.8c-0.86,0-1.65-0.24-2.36-0.82c-0.33-0.29-0.67-0.65-0.92-1.08l0.93-0.67c0.17,0.35,0.4,0.6,0.71,0.86
				c0.44,0.36,0.98,0.63,1.71,0.63c1.49,0,2.6-1.22,2.6-2.71c0-1.52-1.09-2.6-2.6-2.6c-0.38,0-1.09,0.06-2.04,0.73l1.54-5.1h4.2
				V200.37z"/>
			<path class="st2" d="M46.08,201.49c0,1.28-1.01,2.3-2.3,2.3s-2.3-1.01-2.3-2.3c0-1.28,1.01-2.3,2.3-2.3
				S46.08,200.21,46.08,201.49z M45.13,201.49c0-0.78-0.57-1.43-1.35-1.43c-0.74,0-1.35,0.63-1.35,1.43c0,0.79,0.6,1.42,1.35,1.42
				C44.56,202.92,45.13,202.27,45.13,201.49z M49.36,199.08l0.62,0.35l-6.16,10.63l-0.62-0.36L49.36,199.08z M51.68,207.67
				c0,1.28-1.01,2.3-2.3,2.3c-1.28,0-2.3-1.01-2.3-2.3s1.01-2.3,2.3-2.3C50.67,205.37,51.68,206.39,51.68,207.67z M50.73,207.67
				c0-0.78-0.57-1.43-1.35-1.43c-0.74,0-1.35,0.63-1.35,1.43s0.6,1.42,1.35,1.42C50.16,209.09,50.73,208.45,50.73,207.67z"/>
			<path class="st2" d="M28.31,234.1h-1.77l0.62-1.11h2.33v10.56h-1.17V234.1z"/>
			<path class="st2" d="M34.31,242.16c-0.7-1.01-1.06-2.38-1.06-3.88s0.36-2.87,1.06-3.88c0.81-1.17,1.87-1.58,2.71-1.58
				c0.84,0,1.9,0.41,2.71,1.58c0.7,1.01,1.06,2.38,1.06,3.88s-0.36,2.87-1.06,3.88c-0.81,1.17-1.87,1.58-2.71,1.58
				C36.18,243.74,35.12,243.33,34.31,242.16z M35.2,235.06c-0.57,0.9-0.78,2.11-0.78,3.21s0.21,2.31,0.78,3.22
				c0.55,0.89,1.28,1.17,1.82,1.17c0.54,0,1.27-0.29,1.82-1.17c0.57-0.9,0.78-2.11,0.78-3.22s-0.21-2.31-0.78-3.21
				c-0.55-0.89-1.28-1.17-1.82-1.17C36.48,233.89,35.76,234.18,35.2,235.06z"/>
			<path class="st2" d="M47.06,235.19c0,1.28-1.01,2.3-2.3,2.3s-2.3-1.01-2.3-2.3c0-1.28,1.01-2.3,2.3-2.3
				S47.06,233.91,47.06,235.19z M46.11,235.19c0-0.78-0.57-1.42-1.35-1.42c-0.74,0-1.35,0.63-1.35,1.42c0,0.79,0.6,1.43,1.35,1.43
				C45.54,236.62,46.11,235.97,46.11,235.19z M50.34,232.78l0.62,0.35l-6.16,10.63l-0.62-0.36L50.34,232.78z M52.67,241.37
				c0,1.28-1.01,2.3-2.3,2.3c-1.28,0-2.3-1.01-2.3-2.3s1.01-2.3,2.3-2.3C51.65,239.07,52.67,240.08,52.67,241.37z M51.72,241.37
				c0-0.78-0.57-1.43-1.35-1.43c-0.74,0-1.35,0.63-1.35,1.43s0.6,1.43,1.35,1.43C51.15,242.79,51.72,242.14,51.72,241.37z"/>
			<path class="st2" d="M31.69,267.76H28.3l-0.68,2.28c0.21-0.05,0.41-0.06,0.67-0.06c2.12,0,3.48,1.6,3.48,3.66
				c0,2.36-1.77,3.8-3.85,3.8c-0.86,0-1.65-0.24-2.36-0.82c-0.33-0.29-0.67-0.65-0.92-1.08l0.93-0.67c0.17,0.35,0.4,0.6,0.71,0.86
				c0.44,0.36,0.98,0.63,1.71,0.63c1.49,0,2.6-1.22,2.6-2.71c0-1.52-1.09-2.6-2.6-2.6c-0.38,0-1.09,0.06-2.04,0.73l1.54-5.1h4.2
				V267.76z"/>
			<path class="st2" d="M38.64,268.89c0,1.28-1.01,2.3-2.3,2.3s-2.3-1.01-2.3-2.3c0-1.28,1.01-2.3,2.3-2.3S38.64,267.6,38.64,268.89
				z M37.69,268.89c0-0.78-0.57-1.42-1.35-1.42c-0.74,0-1.35,0.63-1.35,1.42c0,0.79,0.6,1.43,1.35,1.43
				C37.12,270.31,37.69,269.66,37.69,268.89z M41.92,266.48l0.62,0.35l-6.16,10.63l-0.62-0.36L41.92,266.48z M44.24,275.06
				c0,1.28-1.01,2.3-2.3,2.3c-1.28,0-2.3-1.01-2.3-2.3s1.01-2.3,2.3-2.3C43.23,272.77,44.24,273.78,44.24,275.06z M43.29,275.06
				c0-0.78-0.57-1.43-1.35-1.43c-0.74,0-1.35,0.63-1.35,1.43s0.6,1.43,1.35,1.43C42.72,276.49,43.29,275.84,43.29,275.06z"/>
			<path class="st2" d="M25.89,309.56c-0.7-1.01-1.06-2.38-1.06-3.88s0.36-2.87,1.06-3.88c0.81-1.17,1.87-1.58,2.71-1.58
				c0.84,0,1.9,0.41,2.71,1.58c0.7,1.01,1.06,2.38,1.06,3.88s-0.36,2.87-1.06,3.88c-0.81,1.17-1.87,1.58-2.71,1.58
				C27.76,311.14,26.7,310.73,25.89,309.56z M26.78,302.46c-0.57,0.9-0.78,2.11-0.78,3.21s0.21,2.31,0.78,3.22
				c0.55,0.89,1.28,1.17,1.82,1.17c0.54,0,1.27-0.29,1.82-1.17c0.57-0.9,0.78-2.11,0.78-3.22s-0.21-2.31-0.78-3.21
				c-0.55-0.89-1.28-1.17-1.82-1.17C28.06,301.29,27.33,301.57,26.78,302.46z"/>
			<path class="st2" d="M38.64,302.59c0,1.28-1.01,2.3-2.3,2.3s-2.3-1.01-2.3-2.3c0-1.28,1.01-2.3,2.3-2.3S38.64,301.3,38.64,302.59
				z M37.69,302.59c0-0.78-0.57-1.43-1.35-1.43c-0.74,0-1.35,0.63-1.35,1.43c0,0.79,0.6,1.42,1.35,1.42
				C37.12,304.01,37.69,303.36,37.69,302.59z M41.92,300.18l0.62,0.35l-6.16,10.63l-0.62-0.36L41.92,300.18z M44.24,308.76
				c0,1.28-1.01,2.3-2.3,2.3c-1.28,0-2.3-1.01-2.3-2.3s1.01-2.3,2.3-2.3C43.23,306.47,44.24,307.48,44.24,308.76z M43.29,308.76
				c0-0.78-0.57-1.43-1.35-1.43c-0.74,0-1.35,0.63-1.35,1.43s0.6,1.42,1.35,1.42C42.72,310.19,43.29,309.54,43.29,308.76z"/>
		</g>
	</g>
	<line class="st4" x1="63.2" y1="63.52" x2="63.2" y2="314.6"/>
	<g>
		<g>
			<linearGradient id="SVGID_3_" gradientUnits="userSpaceOnUse" x1="314.0493" y1="202.0362" x2="386.8341" y2="274.821">
				<stop  offset="0" style="stop-color:#3D597F"/>
				<stop  offset="0.3008" style="stop-color:#34537A"/>
				<stop  offset="0.8002" style="stop-color:#1B436D"/>
				<stop  offset="1" style="stop-color:#0F3C67"/>
			</linearGradient>
			<polygon class="st5" points="359.26,169.37 359.85,301.81 342.57,308.43 342.61,173.48 			"/>
		</g>
		<g>
			<linearGradient id="SVGID_4_" gradientUnits="userSpaceOnUse" x1="300.9411" y1="200.0262" x2="375.961" y2="275.0461">
				<stop  offset="0" style="stop-color:#3D597F"/>
				<stop  offset="0.3008" style="stop-color:#34537A"/>
				<stop  offset="0.8002" style="stop-color:#1B436D"/>
				<stop  offset="1" style="stop-color:#0F3C67"/>
			</linearGradient>
			<polygon class="st6" points="342.57,308.43 331.68,298.98 333.37,167.59 342.61,173.48 			"/>
		</g>
		<g>
			<linearGradient id="SVGID_5_" gradientUnits="userSpaceOnUse" x1="333.3742" y1="168.7843" x2="359.2614" y2="168.7843">
				<stop  offset="0" style="stop-color:#3D597F"/>
				<stop  offset="0.3008" style="stop-color:#34537A"/>
				<stop  offset="0.8002" style="stop-color:#1B436D"/>
				<stop  offset="1" style="stop-color:#0F3C67"/>
			</linearGradient>
			<polygon class="st7" points="342.61,173.48 333.37,167.59 350.06,164.09 359.26,169.37 			"/>
		</g>
		<g class="st8">
			<linearGradient id="SVGID_6_" gradientUnits="userSpaceOnUse" x1="336.027" y1="293.7968" x2="336.027" y2="167.5931">
				<stop  offset="0" style="stop-color:#FFFFFF;stop-opacity:0.15"/>
				<stop  offset="1" style="stop-color:#FFFFFF"/>
			</linearGradient>
			<polygon class="st9" points="332.72,293.8 333.37,167.59 339.34,171.39 			"/>
		</g>
		<g class="st10">
			<g>
				<g>
					<path class="st11" d="M359.26,169.37c-1.36,0.47-2.73,0.87-4.09,1.31c-1.37,0.41-2.75,0.81-4.12,1.19
						c-2.76,0.76-5.52,1.48-8.3,2.15l-0.23,0.06l-0.2-0.13c-1.53-0.99-3.05-2-4.54-3.06c-0.75-0.52-1.49-1.06-2.22-1.61
						c-0.72-0.56-1.46-1.1-2.17-1.69c0.83,0.39,1.63,0.84,2.45,1.25c0.8,0.43,1.61,0.87,2.4,1.33c1.59,0.91,3.14,1.86,4.69,2.83
						l-0.43-0.07c2.77-0.7,5.56-1.35,8.35-1.96c1.4-0.3,2.8-0.59,4.2-0.86C356.44,169.87,357.84,169.59,359.26,169.37z"/>
				</g>
			</g>
			<g>
				<polygon class="st11" points="343.17,173.48 342.57,308.43 342.05,173.48 				"/>
			</g>
		</g>
		<g class="st12">
			<linearGradient id="SVGID_7_" gradientUnits="userSpaceOnUse" x1="341.7182" y1="171.1988" x2="341.7182" y2="164.091">
				<stop  offset="0" style="stop-color:#FFFFFF;stop-opacity:0.15"/>
				<stop  offset="0.9675" style="stop-color:#FFFFFF;stop-opacity:0.9724"/>
				<stop  offset="1" style="stop-color:#FFFFFF"/>
			</linearGradient>
			<polygon class="st13" points="340.31,171.2 333.37,167.59 350.06,164.09 			"/>
		</g>
	</g>
	<g>
		<g>
			<linearGradient id="SVGID_8_" gradientUnits="userSpaceOnUse" x1="300.5391" y1="227.2343" x2="359.9095" y2="286.6047">
				<stop  offset="0" style="stop-color:#6FB1C8"/>
				<stop  offset="0.1521" style="stop-color:#67A7C0"/>
				<stop  offset="0.4055" style="stop-color:#528EAB"/>
				<stop  offset="0.7268" style="stop-color:#306489"/>
				<stop  offset="1" style="stop-color:#0F3C67"/>
			</linearGradient>
			<polygon class="st14" points="339.18,202.23 338.68,307.84 322.77,313.11 322.8,204.97 			"/>
		</g>
		<g>
			<linearGradient id="SVGID_9_" gradientUnits="userSpaceOnUse" x1="288.5262" y1="225.7563" x2="349.325" y2="286.5551">
				<stop  offset="0" style="stop-color:#6FB1C8"/>
				<stop  offset="1" style="stop-color:#435C82"/>
			</linearGradient>
			<polygon class="st15" points="322.77,313.11 313.7,305.99 313.29,200.99 322.8,204.97 			"/>
		</g>
		<g>
			<polygon class="st16" points="322.8,204.97 313.29,200.99 329.96,198.63 339.18,202.23 			"/>
		</g>
		<g class="st8">
			<linearGradient id="SVGID_10_" gradientUnits="userSpaceOnUse" x1="316.5316" y1="305.9907" x2="316.5316" y2="200.9904">
				<stop  offset="0" style="stop-color:#FFFFFF;stop-opacity:0.15"/>
				<stop  offset="1" style="stop-color:#FFFFFF"/>
			</linearGradient>
			<polygon class="st17" points="313.7,305.99 313.29,200.99 319.77,203.7 			"/>
		</g>
		<g class="st18">
			<g>
				<g>
					<path class="st19" d="M339.18,202.23c-1.34,0.36-2.7,0.65-4.05,0.97c-1.35,0.3-2.71,0.58-4.07,0.85
						c-2.72,0.53-5.44,1.02-8.17,1.47l-0.16,0.03l-0.14-0.06c-1.58-0.67-3.15-1.37-4.7-2.11c-0.78-0.36-1.55-0.75-2.32-1.14
						c-0.76-0.41-1.53-0.79-2.28-1.23c0.84,0.22,1.65,0.5,2.48,0.76c0.82,0.27,1.63,0.55,2.44,0.85c1.62,0.58,3.22,1.21,4.81,1.86
						l-0.3-0.04c2.73-0.47,5.46-0.89,8.2-1.27c1.37-0.19,2.74-0.36,4.12-0.52C336.42,202.5,337.79,202.33,339.18,202.23z"/>
				</g>
			</g>
			<g>
				<polygon class="st19" points="323.36,204.97 322.77,313.11 322.24,204.97 				"/>
			</g>
		</g>
		<g class="st12">
			<linearGradient id="SVGID_11_" gradientUnits="userSpaceOnUse" x1="321.6258" y1="203.7009" x2="321.6258" y2="198.6276">
				<stop  offset="0" style="stop-color:#FFFFFF;stop-opacity:0.15"/>
				<stop  offset="0.9675" style="stop-color:#FFFFFF;stop-opacity:0.9724"/>
				<stop  offset="1" style="stop-color:#FFFFFF"/>
			</linearGradient>
			<polygon class="st20" points="319.77,203.7 313.29,200.99 329.96,198.63 			"/>
		</g>
	</g>
	<g>
		<path class="st2" d="M316.93,188.64h-1.08l0.38-0.67h1.42v6.42h-0.71V188.64z"/>
		<path class="st2" d="M322.95,188.62h-2.06l-0.41,1.39c0.13-0.03,0.25-0.04,0.4-0.04c1.29,0,2.12,0.97,2.12,2.22
			c0,1.43-1.08,2.31-2.34,2.31c-0.52,0-1-0.14-1.43-0.5c-0.2-0.17-0.4-0.4-0.56-0.66l0.57-0.4c0.11,0.21,0.24,0.37,0.43,0.52
			c0.27,0.22,0.6,0.38,1.04,0.38c0.91,0,1.58-0.74,1.58-1.65c0-0.92-0.66-1.58-1.58-1.58c-0.23,0-0.66,0.04-1.24,0.44l0.93-3.1h2.55
			V188.62z"/>
		<path class="st2" d="M326.63,189.31c0,0.78-0.62,1.4-1.4,1.4s-1.4-0.62-1.4-1.4c0-0.78,0.62-1.4,1.4-1.4
			S326.63,188.53,326.63,189.31z M326.05,189.31c0-0.47-0.35-0.87-0.82-0.87c-0.45,0-0.82,0.38-0.82,0.87s0.37,0.87,0.82,0.87
			C325.71,190.17,326.05,189.78,326.05,189.31z M328.62,187.84l0.38,0.21l-3.75,6.46l-0.38-0.22L328.62,187.84z M330.04,193.06
			c0,0.78-0.62,1.4-1.4,1.4c-0.78,0-1.4-0.62-1.4-1.4c0-0.78,0.62-1.4,1.4-1.4C329.42,191.67,330.04,192.28,330.04,193.06z
			 M329.46,193.06c0-0.47-0.35-0.87-0.82-0.87c-0.45,0-0.82,0.38-0.82,0.87s0.37,0.87,0.82,0.87
			C329.12,193.93,329.46,193.54,329.46,193.06z"/>
	</g>
	<g>
		<path class="st2" d="M338.7,159.97l2.34-2.71c0.16-0.19,0.6-0.7,0.75-0.93c0.29-0.41,0.36-0.72,0.36-0.98
			c0-0.72-0.52-1.25-1.28-1.25c-0.45,0-0.83,0.2-1.07,0.57c-0.13,0.19-0.2,0.43-0.21,0.76h-0.71c0.03-0.64,0.23-1.04,0.48-1.33
			c0.27-0.31,0.72-0.66,1.52-0.66c1.14,0,1.98,0.81,1.98,1.92c0,0.43-0.13,0.83-0.51,1.38c-0.27,0.38-0.62,0.77-0.88,1.07
			l-1.34,1.51h2.71v0.65H338.7z"/>
		<path class="st2" d="M344.24,159.12c-0.42-0.62-0.64-1.44-0.64-2.36c0-0.92,0.22-1.74,0.64-2.36c0.49-0.71,1.14-0.96,1.65-0.96
			c0.51,0,1.16,0.25,1.65,0.96c0.42,0.62,0.65,1.44,0.65,2.36c0,0.91-0.22,1.74-0.65,2.36c-0.49,0.71-1.14,0.96-1.65,0.96
			C345.38,160.08,344.73,159.83,344.24,159.12z M344.78,154.81c-0.35,0.55-0.47,1.28-0.47,1.96s0.13,1.41,0.47,1.95
			c0.34,0.54,0.78,0.71,1.11,0.71s0.77-0.17,1.11-0.71c0.35-0.55,0.47-1.28,0.47-1.95s-0.13-1.41-0.47-1.96
			c-0.34-0.54-0.78-0.71-1.11-0.71S345.12,154.27,344.78,154.81z"/>
		<path class="st2" d="M351.45,154.88c0,0.78-0.62,1.4-1.4,1.4s-1.4-0.62-1.4-1.4c0-0.78,0.62-1.4,1.4-1.4
			S351.45,154.1,351.45,154.88z M350.87,154.88c0-0.47-0.35-0.87-0.82-0.87c-0.45,0-0.82,0.38-0.82,0.87s0.37,0.87,0.82,0.87
			C350.52,155.75,350.87,155.36,350.87,154.88z M353.44,153.42l0.38,0.21l-3.75,6.46l-0.38-0.22L353.44,153.42z M354.85,158.64
			c0,0.78-0.62,1.4-1.4,1.4c-0.78,0-1.4-0.62-1.4-1.4c0-0.78,0.62-1.4,1.4-1.4C354.24,157.24,354.85,157.86,354.85,158.64z
			 M354.28,158.64c0-0.47-0.35-0.87-0.82-0.87c-0.45,0-0.82,0.38-0.82,0.87s0.37,0.87,0.82,0.87
			C353.93,159.51,354.28,159.11,354.28,158.64z"/>
	</g>
	<g>
		<path class="st2" d="M335.97,328c0,1.89-1.42,3.33-3.34,3.33c-1.92,0-3.34-1.44-3.34-3.33c0-1.89,1.42-3.33,3.34-3.33
			C334.55,324.67,335.97,326.11,335.97,328z M334.98,328c0-1.42-0.98-2.43-2.36-2.43c-1.38,0-2.36,1-2.36,2.43s0.98,2.43,2.36,2.43
			C334,330.42,334.98,329.42,334.98,328z"/>
		<path class="st2" d="M338.05,324.78c0.78,0,1.28,0.1,1.69,0.38c0.7,0.47,0.76,1.23,0.76,1.51c0,0.92-0.57,1.6-1.42,1.79l2,2.74
			h-1.18l-1.84-2.63h-0.17v2.63h-0.98v-6.42H338.05z M337.89,327.73h0.31c0.27,0,1.37-0.03,1.37-1.05c0-0.91-0.86-0.99-1.34-0.99
			h-0.34V327.73z"/>
		<path class="st2" d="M348.14,328c0,1.89-1.42,3.33-3.34,3.33c-1.92,0-3.34-1.44-3.34-3.33c0-1.89,1.42-3.33,3.34-3.33
			C346.72,324.67,348.14,326.11,348.14,328z M347.15,328c0-1.42-0.98-2.43-2.36-2.43c-1.38,0-2.36,1-2.36,2.43s0.98,2.43,2.36,2.43
			C346.17,330.42,347.15,329.42,347.15,328z"/>
	</g>
	<g>
		<g>
			<linearGradient id="SVGID_12_" gradientUnits="userSpaceOnUse" x1="255.3738" y1="248.7394" x2="301.2075" y2="294.5731">
				<stop  offset="0" style="stop-color:#3D597F"/>
				<stop  offset="0.3008" style="stop-color:#34537A"/>
				<stop  offset="0.8002" style="stop-color:#1B436D"/>
				<stop  offset="1" style="stop-color:#0F3C67"/>
			</linearGradient>
			<polygon class="st21" points="286.95,230.05 286.91,308.87 269.64,313.26 269.67,234.44 			"/>
		</g>
		<g>
			<linearGradient id="SVGID_13_" gradientUnits="userSpaceOnUse" x1="241.6713" y1="245.9483" x2="289.3109" y2="293.5879">
				<stop  offset="0" style="stop-color:#3D597F"/>
				<stop  offset="0.3008" style="stop-color:#34537A"/>
				<stop  offset="0.8002" style="stop-color:#1B436D"/>
				<stop  offset="1" style="stop-color:#0F3C67"/>
			</linearGradient>
			<polygon class="st22" points="269.64,313.26 259.78,303.56 259.81,227.81 269.67,234.44 			"/>
		</g>
		<g>
			<linearGradient id="SVGID_14_" gradientUnits="userSpaceOnUse" x1="259.8136" y1="228.9275" x2="286.946" y2="228.9275">
				<stop  offset="0" style="stop-color:#3D597F"/>
				<stop  offset="0.3008" style="stop-color:#34537A"/>
				<stop  offset="0.8002" style="stop-color:#1B436D"/>
				<stop  offset="1" style="stop-color:#0F3C67"/>
			</linearGradient>
			<polygon class="st23" points="269.67,234.44 259.81,227.81 277.09,223.41 286.95,230.05 			"/>
		</g>
		<g class="st8">
			<linearGradient id="SVGID_15_" gradientUnits="userSpaceOnUse" x1="263.1217" y1="303.5595" x2="263.1217" y2="227.806">
				<stop  offset="0" style="stop-color:#FFFFFF;stop-opacity:0.15"/>
				<stop  offset="1" style="stop-color:#FFFFFF"/>
			</linearGradient>
			<polygon class="st24" points="259.78,303.56 259.81,227.81 266.46,232.28 			"/>
		</g>
		<g class="st10">
			<g>
				<g>
					<path class="st11" d="M286.95,230.05c-1.41,0.5-2.83,0.92-4.25,1.38c-1.42,0.44-2.85,0.85-4.28,1.26
						c-2.86,0.81-5.73,1.57-8.61,2.29l-0.24,0.06l-0.2-0.14c-1.64-1.12-3.26-2.25-4.85-3.43c-0.8-0.58-1.59-1.19-2.37-1.79
						c-0.77-0.62-1.57-1.22-2.32-1.87c0.89,0.46,1.74,0.96,2.61,1.45c0.86,0.5,1.71,1,2.55,1.52c1.69,1.03,3.35,2.11,5,3.21
						l-0.45-0.08c2.88-0.75,5.76-1.45,8.66-2.1c1.45-0.33,2.9-0.64,4.36-0.94C284.02,230.59,285.47,230.29,286.95,230.05z"/>
				</g>
			</g>
			<g>
				<polygon class="st11" points="270.23,234.44 269.64,313.26 269.11,234.44 				"/>
			</g>
		</g>
		<g class="st12">
			<linearGradient id="SVGID_16_" gradientUnits="userSpaceOnUse" x1="268.4517" y1="234.4306" x2="268.4517" y2="223.4117">
				<stop  offset="0" style="stop-color:#FFFFFF;stop-opacity:0.15"/>
				<stop  offset="0.9675" style="stop-color:#FFFFFF;stop-opacity:0.9724"/>
				<stop  offset="1" style="stop-color:#FFFFFF"/>
			</linearGradient>
			<polygon class="st25" points="266.54,234.43 259.81,227.81 277.09,223.41 			"/>
		</g>
	</g>
	<g>
		<g>
			<linearGradient id="SVGID_17_" gradientUnits="userSpaceOnUse" x1="237.3036" y1="255.1705" x2="278.301" y2="296.1678">
				<stop  offset="0" style="stop-color:#6FB1C8"/>
				<stop  offset="0.1521" style="stop-color:#67A7C0"/>
				<stop  offset="0.4055" style="stop-color:#528EAB"/>
				<stop  offset="0.7268" style="stop-color:#306489"/>
				<stop  offset="1" style="stop-color:#0F3C67"/>
			</linearGradient>
			<polygon class="st26" points="265.77,238.66 265.74,308.73 249.83,312.68 249.87,242.61 			"/>
		</g>
		<g>
			<linearGradient id="SVGID_18_" gradientUnits="userSpaceOnUse" x1="224.7312" y1="252.7002" x2="267.2732" y2="295.2422">
				<stop  offset="0" style="stop-color:#6FB1C8"/>
				<stop  offset="1" style="stop-color:#435C82"/>
			</linearGradient>
			<polygon class="st27" points="249.83,312.68 240.76,303.96 240.79,236.64 249.87,242.61 			"/>
		</g>
		<g>
			<polygon class="st16" points="249.87,242.61 240.79,236.64 256.7,232.69 265.77,238.66 			"/>
		</g>
		<g class="st8">
			<linearGradient id="SVGID_19_" gradientUnits="userSpaceOnUse" x1="243.8373" y1="303.9552" x2="243.8373" y2="236.6397">
				<stop  offset="0" style="stop-color:#FFFFFF;stop-opacity:0.15"/>
				<stop  offset="1" style="stop-color:#FFFFFF"/>
			</linearGradient>
			<polygon class="st28" points="240.76,303.96 240.79,236.64 246.91,240.67 			"/>
		</g>
		<g class="st18">
			<g>
				<g>
					<path class="st19" d="M265.77,238.66c-1.29,0.46-2.6,0.85-3.91,1.27c-1.31,0.4-2.62,0.78-3.94,1.15
						c-2.63,0.73-5.27,1.43-7.93,2.07l-0.24,0.06l-0.2-0.13c-1.51-1-3-2.03-4.46-3.1c-0.74-0.53-1.46-1.07-2.18-1.63
						c-0.71-0.57-1.44-1.11-2.13-1.71c0.82,0.4,1.61,0.85,2.41,1.28c0.79,0.44,1.58,0.89,2.36,1.36c1.56,0.92,3.09,1.89,4.61,2.87
						l-0.44-0.07c2.65-0.67,5.31-1.3,7.98-1.88c1.34-0.29,2.67-0.57,4.02-0.83C263.07,239.13,264.41,238.86,265.77,238.66z"/>
				</g>
			</g>
			<g>
				<polygon class="st19" points="250.43,242.61 249.83,312.68 249.3,242.61 				"/>
			</g>
		</g>
		<g class="st12">
			<linearGradient id="SVGID_20_" gradientUnits="userSpaceOnUse" x1="248.7442" y1="242.5969" x2="248.7442" y2="232.6881">
				<stop  offset="0" style="stop-color:#FFFFFF;stop-opacity:0.15"/>
				<stop  offset="0.9675" style="stop-color:#FFFFFF;stop-opacity:0.9724"/>
				<stop  offset="1" style="stop-color:#FFFFFF"/>
			</linearGradient>
			<polygon class="st29" points="246.99,242.6 240.79,236.64 256.7,232.69 			"/>
		</g>
	</g>
	<g>
		<path class="st2" d="M245.6,222.71h-1.08l0.38-0.67h1.42v6.42h-0.71V222.71z"/>
		<path class="st2" d="M248.7,227.61c-0.42-0.62-0.64-1.44-0.64-2.36c0-0.92,0.22-1.74,0.64-2.36c0.49-0.71,1.14-0.96,1.65-0.96
			c0.51,0,1.16,0.25,1.65,0.96c0.42,0.62,0.65,1.44,0.65,2.36c0,0.91-0.22,1.74-0.65,2.36c-0.49,0.71-1.14,0.96-1.65,0.96
			C249.84,228.57,249.19,228.32,248.7,227.61z M249.24,223.3c-0.35,0.55-0.47,1.28-0.47,1.96s0.13,1.41,0.47,1.95
			c0.34,0.54,0.78,0.71,1.11,0.71s0.77-0.17,1.11-0.71c0.35-0.55,0.47-1.28,0.47-1.95s-0.13-1.41-0.47-1.96
			c-0.34-0.54-0.78-0.71-1.11-0.71S249.58,222.76,249.24,223.3z"/>
		<path class="st2" d="M255.9,223.38c0,0.78-0.62,1.4-1.4,1.4s-1.4-0.62-1.4-1.4c0-0.78,0.62-1.4,1.4-1.4S255.9,222.6,255.9,223.38z
			 M255.33,223.38c0-0.47-0.35-0.87-0.82-0.87c-0.45,0-0.82,0.38-0.82,0.87s0.37,0.87,0.82,0.87
			C254.98,224.24,255.33,223.85,255.33,223.38z M257.9,221.91l0.38,0.21l-3.75,6.46l-0.38-0.22L257.9,221.91z M259.31,227.13
			c0,0.78-0.62,1.4-1.4,1.4c-0.78,0-1.4-0.62-1.4-1.4c0-0.78,0.62-1.4,1.4-1.4C258.7,225.73,259.31,226.35,259.31,227.13z
			 M258.73,227.13c0-0.47-0.35-0.87-0.82-0.87c-0.45,0-0.82,0.38-0.82,0.87s0.37,0.87,0.82,0.87
			C258.39,228,258.73,227.6,258.73,227.13z"/>
	</g>
	<g>
		<path class="st2" d="M268.07,214.17h-1.08l0.38-0.67h1.42v6.42h-0.71V214.17z"/>
		<path class="st2" d="M269.72,219.92l2.34-2.71c0.16-0.19,0.6-0.7,0.75-0.93c0.29-0.41,0.36-0.72,0.36-0.98
			c0-0.72-0.52-1.25-1.28-1.25c-0.45,0-0.83,0.2-1.07,0.57c-0.13,0.19-0.2,0.43-0.21,0.76h-0.71c0.03-0.64,0.23-1.04,0.48-1.33
			c0.27-0.31,0.72-0.66,1.52-0.66c1.14,0,1.98,0.81,1.98,1.92c0,0.43-0.13,0.83-0.51,1.38c-0.27,0.38-0.62,0.77-0.88,1.07
			l-1.34,1.51h2.71v0.65H269.72z"/>
		<path class="st2" d="M277.53,214.84c0,0.78-0.62,1.4-1.4,1.4s-1.4-0.62-1.4-1.4c0-0.78,0.62-1.4,1.4-1.4
			S277.53,214.06,277.53,214.84z M276.95,214.84c0-0.47-0.35-0.87-0.82-0.87c-0.45,0-0.82,0.38-0.82,0.87s0.37,0.87,0.82,0.87
			C276.6,215.7,276.95,215.31,276.95,214.84z M279.52,213.37l0.38,0.21l-3.75,6.46l-0.38-0.22L279.52,213.37z M280.94,218.59
			c0,0.78-0.62,1.4-1.4,1.4c-0.78,0-1.4-0.62-1.4-1.4c0-0.78,0.62-1.4,1.4-1.4C280.32,217.2,280.94,217.81,280.94,218.59z
			 M280.36,218.59c0-0.47-0.35-0.87-0.82-0.87c-0.45,0-0.82,0.38-0.82,0.87s0.37,0.87,0.82,0.87
			C280.01,219.46,280.36,219.06,280.36,218.59z"/>
	</g>
	<g>
		<path class="st2" d="M229.5,324.78c0.83,0,1.35,0.11,1.77,0.5c0.35,0.33,0.51,0.74,0.51,1.27c0,0.25-0.04,0.51-0.19,0.76
			c-0.14,0.25-0.34,0.38-0.48,0.44c0.12,0.03,0.51,0.13,0.83,0.46c0.35,0.37,0.42,0.81,0.42,1.2c0,0.46-0.12,0.83-0.42,1.16
			c-0.51,0.54-1.31,0.63-1.8,0.63h-1.61v-6.42H229.5z M229.51,327.55h0.3c0.24,0,0.57-0.03,0.8-0.25c0.22-0.21,0.25-0.51,0.25-0.73
			c0-0.19-0.03-0.42-0.23-0.62c-0.22-0.21-0.5-0.24-0.78-0.24h-0.34V327.55z M229.51,330.28h0.6c0.28,0,0.72-0.05,0.97-0.25
			c0.19-0.15,0.32-0.42,0.32-0.71c0-0.26-0.1-0.51-0.26-0.67c-0.27-0.26-0.67-0.29-1.01-0.29h-0.62V330.28z"/>
		<path class="st2" d="M239.38,328c0,1.89-1.42,3.33-3.34,3.33c-1.92,0-3.34-1.44-3.34-3.33c0-1.89,1.42-3.33,3.34-3.33
			C237.97,324.67,239.38,326.11,239.38,328z M238.4,328c0-1.42-0.98-2.43-2.36-2.43c-1.38,0-2.36,1-2.36,2.43s0.98,2.43,2.36,2.43
			C237.42,330.42,238.4,329.42,238.4,328z"/>
		<path class="st2" d="M241.31,324.78v5.5h1.89v0.92h-2.87v-6.42H241.31z"/>
		<path class="st2" d="M246.41,326.21c-0.06-0.14-0.14-0.28-0.29-0.4c-0.2-0.16-0.41-0.23-0.69-0.23c-0.6,0-0.91,0.36-0.91,0.77
			c0,0.19,0.07,0.53,0.69,0.78l0.64,0.26c1.18,0.48,1.51,1.16,1.51,1.89c0,1.22-0.87,2.06-2.07,2.06c-0.74,0-1.18-0.28-1.51-0.64
			c-0.35-0.39-0.5-0.81-0.54-1.25l0.97-0.21c0,0.32,0.12,0.62,0.27,0.82c0.18,0.23,0.45,0.38,0.84,0.38c0.6,0,1.06-0.43,1.06-1.08
			c0-0.65-0.5-0.92-0.92-1.1l-0.62-0.26c-0.53-0.22-1.31-0.66-1.31-1.63c0-0.87,0.67-1.7,1.88-1.7c0.69,0,1.09,0.26,1.29,0.43
			c0.17,0.15,0.36,0.38,0.49,0.65L246.41,326.21z"/>
		<path class="st2" d="M252.09,329.65h-2.74l-0.7,1.55h-1.06l3.2-6.8l3.04,6.8h-1.06L252.09,329.65z M251.7,328.73l-0.95-2.18
			l-0.99,2.18H251.7z"/>
		<path class="st2" d="M256.11,331.2l1.35-6.9l2.23,4.99l2.25-4.99l1.21,6.9h-1l-0.65-3.87l-1.87,4.17l-1.85-4.18l-0.67,3.88H256.11
			z"/>
		<path class="st2" d="M267.76,325.71h-2.56v1.63h2.48v0.92h-2.48v2.02h2.56v0.92h-3.54v-6.42h3.54V325.71z"/>
		<path class="st2" d="M270.09,327.85l-1.77-3.07h1.1l1.25,2.18l1.28-2.18h1.1l-1.85,3.07l1.94,3.35h-1.1l-1.41-2.46l-1.46,2.46
			h-1.1L270.09,327.85z"/>
		<path class="st2" d="M274.69,324.78v6.42h-0.98v-6.42H274.69z"/>
		<path class="st2" d="M280.7,326.28c-0.71-0.65-1.38-0.71-1.74-0.71c-1.4,0-2.34,1.03-2.34,2.45c0,1.36,0.98,2.41,2.35,2.41
			c0.77,0,1.37-0.39,1.73-0.74v1.17c-0.64,0.39-1.32,0.48-1.76,0.48c-1.17,0-1.9-0.53-2.27-0.89c-0.75-0.7-1.03-1.52-1.03-2.43
			c0-1.18,0.49-2,1.03-2.51c0.66-0.63,1.43-0.84,2.32-0.84c0.59,0,1.16,0.11,1.71,0.46V326.28z"/>
		<path class="st2" d="M285.3,329.65h-2.74l-0.7,1.55h-1.06l3.2-6.8l3.04,6.8h-1.06L285.3,329.65z M284.9,328.73l-0.95-2.18
			l-0.99,2.18H284.9z"/>
		<path class="st2" d="M287.55,331.2v-6.86l4.66,4.88v-4.45h0.98v6.82l-4.66-4.88v4.49H287.55z"/>
		<path class="st2" d="M298.22,329.65h-2.74l-0.7,1.55h-1.06l3.2-6.8l3.04,6.8h-1.06L298.22,329.65z M297.82,328.73l-0.95-2.18
			l-0.99,2.18H297.82z"/>
		<path class="st2" d="M241.82,336.34c0.9,0,1.68,0.1,2.39,0.63c0.78,0.59,1.23,1.52,1.23,2.59c0,1.07-0.44,1.99-1.29,2.59
			c-0.75,0.53-1.45,0.62-2.35,0.62h-1.33v-6.42H241.82z M241.45,341.83h0.42c0.48,0,1.15-0.04,1.7-0.45
			c0.44-0.34,0.88-0.95,0.88-1.83c0-0.85-0.41-1.51-0.87-1.85c-0.56-0.4-1.24-0.44-1.71-0.44h-0.42V341.83z"/>
		<path class="st2" d="M249.93,337.26h-2.56v1.63h2.48v0.92h-2.48v2.02h2.56v0.92h-3.54v-6.42h3.54V337.26z"/>
		<path class="st2" d="M253.19,336.34l1.79,4.48l1.79-4.48h1.06l-2.85,6.84l-2.85-6.84H253.19z"/>
		<path class="st2" d="M261.68,341.21h-2.74l-0.7,1.55h-1.06l3.2-6.8l3.04,6.8h-1.06L261.68,341.21z M261.29,340.28l-0.95-2.18
			l-0.99,2.18H261.29z"/>
		<path class="st2" d="M264.92,336.34v5.5h1.89v0.92h-2.87v-6.42H264.92z"/>
		<path class="st2" d="M273.52,339.55c0,1.89-1.42,3.33-3.34,3.33c-1.92,0-3.34-1.44-3.34-3.33c0-1.89,1.42-3.33,3.34-3.33
			C272.11,336.22,273.52,337.66,273.52,339.55z M272.54,339.55c0-1.42-0.98-2.43-2.36-2.43c-1.38,0-2.36,1-2.36,2.43
			s0.98,2.43,2.36,2.43C271.56,341.98,272.54,340.98,272.54,339.55z"/>
		<path class="st2" d="M275.61,336.34c0.78,0,1.28,0.1,1.69,0.38c0.7,0.47,0.76,1.23,0.76,1.51c0,0.92-0.57,1.6-1.42,1.79l2,2.74
			h-1.18l-1.84-2.63h-0.17v2.63h-0.98v-6.42H275.61z M275.45,339.28h0.31c0.27,0,1.37-0.03,1.37-1.05c0-0.91-0.86-0.99-1.34-0.99
			h-0.34V339.28z"/>
		<path class="st2" d="M282.86,337.26h-2.56v1.63h2.48v0.92h-2.48v2.02h2.56v0.92h-3.54v-6.42h3.54V337.26z"/>
		<path class="st2" d="M286.62,337.76c-0.06-0.14-0.14-0.28-0.29-0.4c-0.2-0.16-0.41-0.23-0.69-0.23c-0.6,0-0.91,0.36-0.91,0.77
			c0,0.19,0.07,0.53,0.69,0.78l0.64,0.26c1.18,0.48,1.51,1.16,1.51,1.89c0,1.22-0.87,2.06-2.07,2.06c-0.74,0-1.18-0.28-1.51-0.64
			c-0.35-0.39-0.5-0.81-0.54-1.25l0.97-0.21c0,0.32,0.12,0.62,0.27,0.82c0.18,0.23,0.45,0.38,0.84,0.38c0.6,0,1.06-0.43,1.06-1.08
			c0-0.65-0.5-0.92-0.92-1.1l-0.62-0.26c-0.53-0.22-1.31-0.66-1.31-1.63c0-0.87,0.67-1.7,1.88-1.7c0.69,0,1.09,0.26,1.29,0.43
			c0.17,0.15,0.36,0.38,0.49,0.65L286.62,337.76z"/>
	</g>
	<g>
		<g>
			<linearGradient id="SVGID_21_" gradientUnits="userSpaceOnUse" x1="182.8174" y1="255.1" x2="224.0198" y2="296.3023">
				<stop  offset="0" style="stop-color:#3D597F"/>
				<stop  offset="0.3008" style="stop-color:#34537A"/>
				<stop  offset="0.8002" style="stop-color:#1B436D"/>
				<stop  offset="1" style="stop-color:#0F3C67"/>
			</linearGradient>
			<polygon class="st30" points="212.07,239.06 212.04,308.28 194.76,312.34 194.8,243.12 			"/>
		</g>
		<g>
			<linearGradient id="SVGID_22_" gradientUnits="userSpaceOnUse" x1="169.2662" y1="252.6618" x2="211.8553" y2="295.251">
				<stop  offset="0" style="stop-color:#3D597F"/>
				<stop  offset="0.3008" style="stop-color:#34537A"/>
				<stop  offset="0.8002" style="stop-color:#1B436D"/>
				<stop  offset="1" style="stop-color:#0F3C67"/>
			</linearGradient>
			<polygon class="st31" points="194.76,312.34 184.91,303.38 184.94,236.99 194.8,243.12 			"/>
		</g>
		<g>
			<linearGradient id="SVGID_23_" gradientUnits="userSpaceOnUse" x1="184.9415" y1="238.0228" x2="212.074" y2="238.0228">
				<stop  offset="0" style="stop-color:#3D597F"/>
				<stop  offset="0.3008" style="stop-color:#34537A"/>
				<stop  offset="0.8002" style="stop-color:#1B436D"/>
				<stop  offset="1" style="stop-color:#0F3C67"/>
			</linearGradient>
			<polygon class="st32" points="194.8,243.12 184.94,236.99 202.22,232.93 212.07,239.06 			"/>
		</g>
		<g class="st8">
			<linearGradient id="SVGID_24_" gradientUnits="userSpaceOnUse" x1="188.2497" y1="303.3765" x2="188.2497" y2="236.9865">
				<stop  offset="0" style="stop-color:#FFFFFF;stop-opacity:0.15"/>
				<stop  offset="1" style="stop-color:#FFFFFF"/>
			</linearGradient>
			<polygon class="st33" points="184.91,303.38 184.94,236.99 191.59,241.13 			"/>
		</g>
		<g class="st10">
			<g>
				<g>
					<path class="st11" d="M212.07,239.06c-1.41,0.47-2.83,0.87-4.25,1.3c-1.42,0.41-2.85,0.8-4.28,1.18
						c-2.86,0.75-5.73,1.46-8.62,2.13l-0.23,0.05l-0.19-0.12c-1.64-1.03-3.26-2.08-4.86-3.18c-0.8-0.54-1.59-1.1-2.38-1.67
						c-0.78-0.58-1.57-1.14-2.33-1.75c0.88,0.41,1.73,0.88,2.6,1.32c0.86,0.46,1.71,0.92,2.55,1.4c1.69,0.95,3.35,1.94,5,2.95
						l-0.42-0.07c2.88-0.69,5.76-1.33,8.66-1.93c1.45-0.3,2.9-0.58,4.36-0.85C209.15,239.55,210.6,239.27,212.07,239.06z"/>
				</g>
			</g>
			<g>
				<polygon class="st11" points="195.36,243.12 194.76,312.34 194.24,243.12 				"/>
			</g>
		</g>
		<g class="st12">
			<linearGradient id="SVGID_25_" gradientUnits="userSpaceOnUse" x1="193.5796" y1="243.1077" x2="193.5796" y2="232.9261">
				<stop  offset="0" style="stop-color:#FFFFFF;stop-opacity:0.15"/>
				<stop  offset="0.9675" style="stop-color:#FFFFFF;stop-opacity:0.9724"/>
				<stop  offset="1" style="stop-color:#FFFFFF"/>
			</linearGradient>
			<polygon class="st34" points="191.67,243.11 184.94,236.99 202.22,232.93 			"/>
		</g>
	</g>
	<g>
		<g>
			<linearGradient id="SVGID_26_" gradientUnits="userSpaceOnUse" x1="164.5919" y1="260.8843" x2="201.2685" y2="297.5609">
				<stop  offset="0" style="stop-color:#6FB1C8"/>
				<stop  offset="0.1521" style="stop-color:#67A7C0"/>
				<stop  offset="0.4055" style="stop-color:#528EAB"/>
				<stop  offset="0.7268" style="stop-color:#306489"/>
				<stop  offset="1" style="stop-color:#0F3C67"/>
			</linearGradient>
			<polygon class="st35" points="190.9,246.83 190.87,307.96 174.96,311.61 174.99,250.48 			"/>
		</g>
		<g>
			<linearGradient id="SVGID_27_" gradientUnits="userSpaceOnUse" x1="152.1558" y1="258.732" x2="189.9995" y2="296.5758">
				<stop  offset="0" style="stop-color:#6FB1C8"/>
				<stop  offset="1" style="stop-color:#435C82"/>
			</linearGradient>
			<polygon class="st36" points="174.96,311.61 165.89,303.55 165.92,244.97 174.99,250.48 			"/>
		</g>
		<g>
			<polygon class="st16" points="174.99,250.48 165.92,244.97 181.82,241.32 190.9,246.83 			"/>
		</g>
		<g class="st8">
			<linearGradient id="SVGID_28_" gradientUnits="userSpaceOnUse" x1="168.9652" y1="303.5514" x2="168.9652" y2="244.9682">
				<stop  offset="0" style="stop-color:#FFFFFF;stop-opacity:0.15"/>
				<stop  offset="1" style="stop-color:#FFFFFF"/>
			</linearGradient>
			<polygon class="st37" points="165.89,303.55 165.92,244.97 172.04,248.69 			"/>
		</g>
		<g class="st18">
			<g>
				<g>
					<path class="st19" d="M190.9,246.83c-1.3,0.43-2.61,0.8-3.91,1.19c-1.31,0.37-2.62,0.73-3.94,1.08
						c-2.63,0.68-5.28,1.33-7.93,1.92l-0.22,0.05l-0.19-0.12c-1.51-0.93-3-1.88-4.47-2.87c-0.74-0.49-1.46-1-2.18-1.52
						c-0.71-0.53-1.44-1.04-2.14-1.6c0.82,0.36,1.6,0.77,2.4,1.16c0.79,0.4,1.58,0.81,2.35,1.24c1.56,0.84,3.09,1.73,4.61,2.64
						l-0.41-0.07c2.65-0.62,5.31-1.2,7.97-1.73c1.33-0.26,2.67-0.52,4.01-0.75C188.2,247.25,189.54,247.01,190.9,246.83z"/>
				</g>
			</g>
			<g>
				<polygon class="st19" points="175.55,250.48 174.96,311.61 174.43,250.48 				"/>
			</g>
		</g>
		<g class="st12">
			<linearGradient id="SVGID_29_" gradientUnits="userSpaceOnUse" x1="173.8721" y1="250.4719" x2="173.8721" y2="241.3173">
				<stop  offset="0" style="stop-color:#FFFFFF;stop-opacity:0.15"/>
				<stop  offset="0.9675" style="stop-color:#FFFFFF;stop-opacity:0.9724"/>
				<stop  offset="1" style="stop-color:#FFFFFF"/>
			</linearGradient>
			<polygon class="st38" points="172.11,250.47 165.92,244.97 181.82,241.32 			"/>
		</g>
	</g>
	<g>
		<path class="st2" d="M172.15,236.89l1.47-2.05c-0.18,0.06-0.37,0.09-0.57,0.09c-1.23,0-2.08-0.92-2.08-2.12
			c0-1.28,0.92-2.21,2.21-2.21c1.51,0,2.22,1.17,2.22,2.19c0,0.24-0.05,0.81-0.53,1.47l-2.19,3.02L172.15,236.89z M171.69,232.79
			c0,0.86,0.64,1.48,1.51,1.48s1.49-0.65,1.49-1.48c0-0.86-0.61-1.53-1.5-1.53C172.3,231.26,171.69,231.92,171.69,232.79z"/>
		<path class="st2" d="M178.75,232.05c0,0.78-0.62,1.4-1.4,1.4s-1.4-0.62-1.4-1.4c0-0.78,0.62-1.4,1.4-1.4
			S178.75,231.27,178.75,232.05z M178.17,232.05c0-0.47-0.35-0.87-0.82-0.87c-0.45,0-0.82,0.38-0.82,0.87s0.37,0.87,0.82,0.87
			C177.82,232.91,178.17,232.52,178.17,232.05z M180.74,230.58l0.38,0.21l-3.75,6.46l-0.38-0.22L180.74,230.58z M182.15,235.8
			c0,0.78-0.62,1.4-1.4,1.4c-0.78,0-1.4-0.62-1.4-1.4c0-0.78,0.62-1.4,1.4-1.4C181.54,234.41,182.15,235.02,182.15,235.8z
			 M181.58,235.8c0-0.47-0.35-0.87-0.82-0.87c-0.45,0-0.82,0.38-0.82,0.87s0.37,0.87,0.82,0.87
			C181.23,236.67,181.58,236.27,181.58,235.8z"/>
	</g>
	<g>
		<path class="st2" d="M192.77,222.99h-1.08l0.38-0.67h1.42v6.42h-0.71V222.99z"/>
		<path class="st2" d="M195.87,227.89c-0.42-0.62-0.64-1.44-0.64-2.36c0-0.92,0.22-1.74,0.64-2.36c0.49-0.71,1.14-0.96,1.65-0.96
			c0.51,0,1.16,0.25,1.65,0.96c0.42,0.62,0.65,1.44,0.65,2.36c0,0.91-0.22,1.74-0.65,2.36c-0.49,0.71-1.14,0.96-1.65,0.96
			C197.01,228.86,196.37,228.61,195.87,227.89z M196.41,223.58c-0.35,0.55-0.47,1.28-0.47,1.96s0.13,1.41,0.47,1.95
			c0.34,0.54,0.78,0.71,1.11,0.71s0.77-0.17,1.11-0.71c0.35-0.55,0.47-1.28,0.47-1.95s-0.13-1.41-0.47-1.96
			c-0.34-0.54-0.78-0.71-1.11-0.71S196.75,223.04,196.41,223.58z"/>
		<path class="st2" d="M203.08,223.66c0,0.78-0.62,1.4-1.4,1.4s-1.4-0.62-1.4-1.4c0-0.78,0.62-1.4,1.4-1.4
			S203.08,222.88,203.08,223.66z M202.5,223.66c0-0.47-0.35-0.87-0.82-0.87c-0.45,0-0.82,0.38-0.82,0.87s0.37,0.87,0.82,0.87
			C202.15,224.52,202.5,224.13,202.5,223.66z M205.07,222.19l0.38,0.21l-3.75,6.46l-0.38-0.22L205.07,222.19z M206.48,227.41
			c0,0.78-0.62,1.4-1.4,1.4c-0.78,0-1.4-0.62-1.4-1.4c0-0.78,0.62-1.4,1.4-1.4C205.87,226.02,206.48,226.63,206.48,227.41z
			 M205.91,227.41c0-0.47-0.35-0.87-0.82-0.87c-0.45,0-0.82,0.38-0.82,0.87s0.37,0.87,0.82,0.87
			C205.56,228.28,205.91,227.88,205.91,227.41z"/>
	</g>
	<g>
		<path class="st2" d="M169.49,325.71h-2.23v1.63h2.16v0.92h-2.16v2.95h-0.98v-6.42h3.22V325.71z"/>
		<path class="st2" d="M176.69,328c0,1.89-1.42,3.33-3.34,3.33c-1.92,0-3.34-1.44-3.34-3.33c0-1.89,1.42-3.33,3.34-3.33
			C175.27,324.67,176.69,326.11,176.69,328z M175.71,328c0-1.42-0.98-2.43-2.36-2.43c-1.38,0-2.36,1-2.36,2.43s0.98,2.43,2.36,2.43
			C174.72,330.42,175.71,329.42,175.71,328z"/>
		<path class="st2" d="M177.63,331.2v-6.86l4.66,4.88v-4.45h0.98v6.82l-4.66-4.88v4.49H177.63z"/>
		<path class="st2" d="M185.87,324.78c0.9,0,1.68,0.1,2.39,0.63c0.78,0.59,1.23,1.52,1.23,2.59c0,1.07-0.44,1.99-1.29,2.59
			c-0.75,0.53-1.45,0.62-2.35,0.62h-1.33v-6.42H185.87z M185.51,330.28h0.42c0.48,0,1.15-0.04,1.7-0.45
			c0.44-0.34,0.88-0.95,0.88-1.83c0-0.85-0.41-1.51-0.87-1.85c-0.56-0.4-1.24-0.44-1.71-0.44h-0.42V330.28z"/>
		<path class="st2" d="M196.81,328c0,1.89-1.42,3.33-3.34,3.33c-1.92,0-3.34-1.44-3.34-3.33c0-1.89,1.42-3.33,3.34-3.33
			C195.39,324.67,196.81,326.11,196.81,328z M195.83,328c0-1.42-0.98-2.43-2.36-2.43c-1.38,0-2.36,1-2.36,2.43s0.98,2.43,2.36,2.43
			C194.85,330.42,195.83,329.42,195.83,328z"/>
		<path class="st2" d="M200.53,326.21c-0.06-0.14-0.14-0.28-0.29-0.4c-0.2-0.16-0.41-0.23-0.69-0.23c-0.6,0-0.91,0.36-0.91,0.77
			c0,0.19,0.07,0.53,0.69,0.78l0.64,0.26c1.18,0.48,1.51,1.16,1.51,1.89c0,1.22-0.87,2.06-2.07,2.06c-0.74,0-1.18-0.28-1.51-0.64
			c-0.35-0.39-0.5-0.81-0.54-1.25l0.97-0.21c0,0.32,0.12,0.62,0.27,0.82c0.18,0.23,0.45,0.38,0.84,0.38c0.6,0,1.06-0.43,1.06-1.08
			c0-0.65-0.5-0.92-0.92-1.1l-0.62-0.26c-0.53-0.22-1.31-0.66-1.31-1.63c0-0.87,0.67-1.7,1.88-1.7c0.69,0,1.09,0.26,1.29,0.43
			c0.17,0.15,0.36,0.38,0.49,0.65L200.53,326.21z"/>
		<path class="st2" d="M205.74,324.78c0.9,0,1.68,0.1,2.39,0.63c0.78,0.59,1.23,1.52,1.23,2.59c0,1.07-0.44,1.99-1.29,2.59
			c-0.75,0.53-1.45,0.62-2.35,0.62h-1.33v-6.42H205.74z M205.37,330.28h0.42c0.48,0,1.15-0.04,1.7-0.45
			c0.44-0.34,0.88-0.95,0.88-1.83c0-0.85-0.41-1.51-0.87-1.85c-0.56-0.4-1.24-0.44-1.71-0.44h-0.42V330.28z"/>
		<path class="st2" d="M213.84,325.71h-2.56v1.63h2.48v0.92h-2.48v2.02h2.56v0.92h-3.54v-6.42h3.54V325.71z"/>
		<path class="st2" d="M169.95,336.34v6.42h-0.98v-6.42H169.95z"/>
		<path class="st2" d="M171.2,342.76v-6.86l4.66,4.88v-4.45h0.98v6.82l-4.66-4.88v4.49H171.2z"/>
		<path class="st2" d="M178.42,336.34l1.79,4.48l1.79-4.48h1.06l-2.85,6.84l-2.85-6.84H178.42z"/>
		<path class="st2" d="M187.12,337.26h-2.56v1.63h2.48v0.92h-2.48v2.02h2.56v0.92h-3.54v-6.42h3.54V337.26z"/>
		<path class="st2" d="M189.25,336.34c0.78,0,1.28,0.1,1.69,0.38c0.7,0.47,0.76,1.23,0.76,1.51c0,0.92-0.57,1.6-1.42,1.79l2,2.74
			h-1.18l-1.84-2.63h-0.17v2.63h-0.98v-6.42H189.25z M189.09,339.28h0.31c0.27,0,1.37-0.03,1.37-1.05c0-0.91-0.86-0.99-1.34-0.99
			h-0.34V339.28z"/>
		<path class="st2" d="M195.73,337.76c-0.06-0.14-0.14-0.28-0.29-0.4c-0.2-0.16-0.41-0.23-0.69-0.23c-0.6,0-0.91,0.36-0.91,0.77
			c0,0.19,0.07,0.53,0.69,0.78l0.64,0.26c1.18,0.48,1.51,1.16,1.51,1.89c0,1.22-0.87,2.06-2.07,2.06c-0.74,0-1.18-0.28-1.51-0.64
			c-0.35-0.39-0.5-0.81-0.54-1.25l0.97-0.21c0,0.32,0.12,0.62,0.27,0.82c0.18,0.23,0.45,0.38,0.84,0.38c0.6,0,1.06-0.43,1.06-1.08
			c0-0.65-0.5-0.92-0.92-1.1l-0.62-0.26c-0.53-0.22-1.31-0.66-1.31-1.63c0-0.87,0.67-1.7,1.88-1.7c0.69,0,1.09,0.26,1.29,0.43
			c0.17,0.15,0.36,0.38,0.49,0.65L195.73,337.76z"/>
		<path class="st2" d="M198.62,336.34v6.42h-0.98v-6.42H198.62z"/>
		<path class="st2" d="M206.25,339.55c0,1.89-1.42,3.33-3.34,3.33c-1.92,0-3.34-1.44-3.34-3.33c0-1.89,1.42-3.33,3.34-3.33
			C204.83,336.22,206.25,337.66,206.25,339.55z M205.26,339.55c0-1.42-0.98-2.43-2.36-2.43c-1.38,0-2.36,1-2.36,2.43
			s0.98,2.43,2.36,2.43C204.28,341.98,205.26,340.98,205.26,339.55z M202.05,335.37l1.33-1.34l0.83,0.58l-1.69,1.15L202.05,335.37z"
			/>
		<path class="st2" d="M207.19,342.76v-6.86l4.66,4.88v-4.45h0.98v6.82l-4.66-4.88v4.49H207.19z"/>
	</g>
	<g>
		<path class="st2" d="M384.82,332.66v-6.86l4.66,4.88v-4.45h0.98v6.82l-4.66-4.88v4.49H384.82z"/>
		<path class="st2" d="M395.49,331.11h-2.74l-0.7,1.55h-1.06l3.2-6.8l3.04,6.8h-1.06L395.49,331.11z M395.1,330.19l-0.95-2.18
			l-0.99,2.18H395.1z"/>
		<path class="st2" d="M397.63,326.24l1.79,4.48l1.79-4.48h1.06l-2.85,6.84l-2.85-6.84H397.63z"/>
		<path class="st2" d="M406.33,327.17h-2.56v1.63h2.48v0.92h-2.48v2.02h2.56v0.92h-3.54v-6.42h3.54V327.17z"/>
		<path class="st2" d="M409.1,327.17v5.5h-0.98v-5.5h-1.47v-0.92h3.93v0.92H409.1z"/>
		<path class="st2" d="M414.69,327.17h-2.56v1.63h2.48v0.92h-2.48v2.02h2.56v0.92h-3.54v-6.42h3.54V327.17z"/>
		<path class="st2" d="M420.43,327.74c-0.71-0.65-1.38-0.71-1.74-0.71c-1.4,0-2.34,1.03-2.34,2.45c0,1.36,0.98,2.41,2.35,2.41
			c0.77,0,1.37-0.39,1.73-0.74v1.17c-0.64,0.39-1.32,0.48-1.76,0.48c-1.17,0-1.9-0.53-2.27-0.89c-0.75-0.7-1.03-1.52-1.03-2.43
			c0-1.18,0.49-2,1.03-2.51c0.67-0.63,1.43-0.84,2.32-0.84c0.59,0,1.16,0.11,1.71,0.46V327.74z"/>
		<path class="st2" d="M426.23,326.24c0.83,0,1.35,0.11,1.77,0.5c0.35,0.33,0.51,0.74,0.51,1.27c0,0.25-0.04,0.51-0.19,0.76
			c-0.14,0.25-0.34,0.38-0.48,0.44c0.12,0.03,0.51,0.13,0.83,0.46c0.35,0.37,0.42,0.81,0.42,1.2c0,0.46-0.12,0.83-0.42,1.16
			c-0.51,0.54-1.31,0.63-1.8,0.63h-1.61v-6.42H426.23z M426.24,329.01h0.3c0.24,0,0.57-0.03,0.8-0.25c0.22-0.21,0.25-0.51,0.25-0.73
			c0-0.19-0.03-0.42-0.23-0.62c-0.22-0.21-0.5-0.24-0.78-0.24h-0.34V329.01z M426.24,331.74h0.6c0.28,0,0.72-0.05,0.97-0.25
			c0.19-0.15,0.32-0.42,0.32-0.71c0-0.26-0.1-0.51-0.26-0.67c-0.27-0.26-0.67-0.29-1.01-0.29h-0.62V331.74z"/>
		<path class="st2" d="M431.26,329.89l-2.11-3.65h1.12l1.48,2.57l1.48-2.57h1.12l-2.11,3.65v2.77h-0.98V329.89z"/>
		<path class="st2" d="M400.92,339.3c-0.71-0.65-1.38-0.71-1.74-0.71c-1.4,0-2.34,1.03-2.34,2.45c0,1.36,0.98,2.41,2.35,2.41
			c0.77,0,1.37-0.39,1.73-0.74v1.17c-0.64,0.39-1.32,0.48-1.76,0.48c-1.17,0-1.9-0.53-2.27-0.89c-0.75-0.7-1.03-1.52-1.03-2.43
			c0-1.18,0.49-2,1.03-2.51c0.66-0.63,1.43-0.84,2.32-0.84c0.59,0,1.16,0.11,1.71,0.46V339.3z"/>
		<path class="st2" d="M406.39,339.3c-0.71-0.65-1.38-0.71-1.74-0.71c-1.4,0-2.34,1.03-2.34,2.45c0,1.36,0.98,2.41,2.35,2.41
			c0.77,0,1.37-0.39,1.73-0.74v1.17c-0.64,0.39-1.32,0.48-1.76,0.48c-1.17,0-1.9-0.53-2.27-0.89c-0.75-0.7-1.03-1.52-1.03-2.43
			c0-1.18,0.49-2,1.03-2.51c0.66-0.63,1.43-0.84,2.32-0.84c0.59,0,1.16,0.11,1.71,0.46V339.3z"/>
		<path class="st2" d="M408.3,337.8v6.42h-0.98v-6.42H408.3z"/>
		<path class="st2" d="M409.36,344.22l1.35-6.9l2.23,4.99l2.25-4.99l1.21,6.9h-1l-0.65-3.87l-1.87,4.17l-1.85-4.18l-0.67,3.88
			H409.36z"/>
		<path class="st2" d="M421.24,342.67h-2.74l-0.7,1.55h-1.06l3.2-6.8l3.04,6.8h-1.06L421.24,342.67z M420.85,341.74l-0.95-2.18
			l-0.99,2.18H420.85z"/>
	</g>
	<g>
		<g>
			<linearGradient id="SVGID_30_" gradientUnits="userSpaceOnUse" x1="367.2599" y1="151.974" x2="476.0987" y2="260.8129">
				<stop  offset="0" style="stop-color:#3D597F"/>
				<stop  offset="0.3008" style="stop-color:#34537A"/>
				<stop  offset="0.8002" style="stop-color:#1B436D"/>
				<stop  offset="1" style="stop-color:#0F3C67"/>
			</linearGradient>
			<polygon class="st39" points="431.42,102.81 431.39,305.52 414.11,312.15 414.15,105.09 			"/>
		</g>
		<g>
			<linearGradient id="SVGID_31_" gradientUnits="userSpaceOnUse" x1="354.2856" y1="149.3987" x2="465.5753" y2="260.6884">
				<stop  offset="0" style="stop-color:#3D597F"/>
				<stop  offset="0.3008" style="stop-color:#34537A"/>
				<stop  offset="0.8002" style="stop-color:#1B436D"/>
				<stop  offset="1" style="stop-color:#0F3C67"/>
			</linearGradient>
			<polygon class="st40" points="414.11,312.15 404.25,303.54 404.29,99.39 414.15,105.09 			"/>
		</g>
		<g>
			<linearGradient id="SVGID_32_" gradientUnits="userSpaceOnUse" x1="404.2896" y1="101.2237" x2="431.4221" y2="101.2237">
				<stop  offset="0" style="stop-color:#3D597F"/>
				<stop  offset="0.3008" style="stop-color:#34537A"/>
				<stop  offset="0.8002" style="stop-color:#1B436D"/>
				<stop  offset="1" style="stop-color:#0F3C67"/>
			</linearGradient>
			<polygon class="st41" points="414.15,105.09 404.29,99.39 421.85,97.36 431.42,102.81 			"/>
		</g>
		<g class="st8">
			<linearGradient id="SVGID_33_" gradientUnits="userSpaceOnUse" x1="407.5597" y1="297.5153" x2="407.5597" y2="99.3947">
				<stop  offset="0" style="stop-color:#FFFFFF;stop-opacity:0.15"/>
				<stop  offset="1" style="stop-color:#FFFFFF"/>
			</linearGradient>
			<polygon class="st42" points="404.25,297.52 404.29,99.39 410.86,103.19 			"/>
		</g>
		<g class="st10">
			<g>
				<g>
					<path class="st11" d="M431.42,102.81c-1.42,0.32-2.85,0.57-4.28,0.86c-1.43,0.26-2.86,0.5-4.3,0.73
						c-2.87,0.46-5.74,0.87-8.63,1.24l-0.19,0.02l-0.16-0.09c-1.64-0.96-3.26-1.94-4.86-2.96c-0.8-0.51-1.59-1.03-2.38-1.56
						c-0.78-0.55-1.57-1.07-2.34-1.65c0.88,0.37,1.73,0.8,2.59,1.2c0.85,0.42,1.71,0.84,2.55,1.28c1.69,0.87,3.35,1.79,5,2.73
						l-0.35-0.07c2.88-0.39,5.76-0.74,8.65-1.04c1.45-0.15,2.89-0.29,4.34-0.4C428.52,103,429.96,102.87,431.42,102.81z"/>
				</g>
			</g>
			<g>
				<polygon class="st11" points="414.71,105.09 414.11,312.15 413.58,105.09 				"/>
			</g>
		</g>
		<g class="st12">
			<linearGradient id="SVGID_34_" gradientUnits="userSpaceOnUse" x1="413.0677" y1="103.1926" x2="413.0677" y2="97.3593">
				<stop  offset="0" style="stop-color:#FFFFFF;stop-opacity:0.15"/>
				<stop  offset="0.9675" style="stop-color:#FFFFFF;stop-opacity:0.9724"/>
				<stop  offset="1" style="stop-color:#FFFFFF"/>
			</linearGradient>
			<polygon class="st43" points="410.86,103.19 404.29,99.39 421.85,97.36 			"/>
		</g>
	</g>
	<g>
		<g>
			<linearGradient id="SVGID_35_" gradientUnits="userSpaceOnUse" x1="355.1477" y1="176.9637" x2="447.6887" y2="269.5046">
				<stop  offset="0" style="stop-color:#6FB1C8"/>
				<stop  offset="0.1521" style="stop-color:#67A7C0"/>
				<stop  offset="0.4055" style="stop-color:#528EAB"/>
				<stop  offset="0.7268" style="stop-color:#306489"/>
				<stop  offset="1" style="stop-color:#0F3C67"/>
			</linearGradient>
			<polygon class="st44" points="410.25,135.94 410.21,306.98 394.31,312.25 394.34,137.77 			"/>
		</g>
		<g>
			<linearGradient id="SVGID_36_" gradientUnits="userSpaceOnUse" x1="342.9517" y1="175.3036" x2="437.1036" y2="269.4556">
				<stop  offset="0" style="stop-color:#6FB1C8"/>
				<stop  offset="1" style="stop-color:#435C82"/>
			</linearGradient>
			<polygon class="st45" points="394.31,312.25 385.24,306.51 385.27,132.99 394.34,137.77 			"/>
		</g>
		<g>
			<polygon class="st16" points="394.34,137.77 385.27,132.99 402.28,131.46 410.25,135.94 			"/>
		</g>
		<g class="st8">
			<linearGradient id="SVGID_37_" gradientUnits="userSpaceOnUse" x1="388.2824" y1="306.5121" x2="388.2824" y2="132.9877">
				<stop  offset="0" style="stop-color:#FFFFFF;stop-opacity:0.15"/>
				<stop  offset="1" style="stop-color:#FFFFFF"/>
			</linearGradient>
			<polygon class="st46" points="385.24,306.51 385.27,132.99 391.33,136.17 			"/>
		</g>
		<g class="st18">
			<g>
				<g>
					<path class="st19" d="M410.25,135.94c-1.31,0.28-2.63,0.5-3.94,0.74c-1.32,0.22-2.64,0.43-3.96,0.62
						c-2.64,0.38-5.29,0.72-7.94,1.01l-0.17,0.02l-0.15-0.08c-1.51-0.81-3-1.63-4.47-2.51c-0.74-0.43-1.47-0.88-2.19-1.34
						c-0.72-0.47-1.45-0.92-2.15-1.42c0.81,0.29,1.59,0.65,2.39,0.97c0.79,0.34,1.57,0.69,2.34,1.05c1.55,0.72,3.08,1.48,4.6,2.27
						l-0.32-0.06c2.65-0.32,5.3-0.59,7.96-0.82c1.33-0.11,2.66-0.21,4-0.29C407.57,136.05,408.91,135.96,410.25,135.94z"/>
				</g>
			</g>
			<g>
				<polygon class="st19" points="394.9,137.77 394.31,312.25 393.78,137.77 				"/>
			</g>
		</g>
		<g class="st12">
			<linearGradient id="SVGID_38_" gradientUnits="userSpaceOnUse" x1="393.7728" y1="136.9212" x2="393.7728" y2="131.462">
				<stop  offset="0" style="stop-color:#FFFFFF;stop-opacity:0.15"/>
				<stop  offset="0.9675" style="stop-color:#FFFFFF;stop-opacity:0.9724"/>
				<stop  offset="1" style="stop-color:#FFFFFF"/>
			</linearGradient>
			<polygon class="st47" points="392.26,136.92 385.27,132.99 402.28,131.46 			"/>
		</g>
	</g>
	<g>
		<path class="st2" d="M386.72,125.57l2.34-2.71c0.16-0.19,0.6-0.7,0.75-0.93c0.29-0.41,0.36-0.72,0.36-0.98
			c0-0.72-0.52-1.25-1.28-1.25c-0.45,0-0.83,0.2-1.07,0.57c-0.13,0.19-0.2,0.43-0.21,0.76h-0.71c0.03-0.64,0.23-1.04,0.48-1.33
			c0.27-0.31,0.72-0.66,1.52-0.66c1.14,0,1.98,0.81,1.98,1.92c0,0.43-0.13,0.83-0.51,1.38c-0.27,0.38-0.62,0.77-0.88,1.07
			l-1.34,1.51h2.71v0.65H386.72z"/>
		<path class="st2" d="M395.68,119.8h-2.06l-0.41,1.39c0.13-0.03,0.25-0.04,0.4-0.04c1.29,0,2.12,0.97,2.12,2.22
			c0,1.43-1.08,2.31-2.34,2.31c-0.52,0-1-0.14-1.43-0.5c-0.2-0.17-0.4-0.4-0.56-0.66l0.57-0.4c0.11,0.21,0.24,0.37,0.43,0.52
			c0.27,0.22,0.6,0.39,1.04,0.39c0.91,0,1.58-0.74,1.58-1.65c0-0.92-0.66-1.58-1.58-1.58c-0.23,0-0.66,0.04-1.24,0.44l0.93-3.1h2.55
			V119.8z"/>
		<path class="st2" d="M399.35,120.49c0,0.78-0.62,1.4-1.4,1.4s-1.4-0.62-1.4-1.4c0-0.78,0.62-1.4,1.4-1.4
			S399.35,119.71,399.35,120.49z M398.78,120.49c0-0.47-0.35-0.87-0.82-0.87c-0.45,0-0.82,0.38-0.82,0.87s0.37,0.87,0.82,0.87
			C398.43,121.36,398.78,120.96,398.78,120.49z M401.35,119.03l0.38,0.21l-3.75,6.46l-0.38-0.22L401.35,119.03z M402.76,124.24
			c0,0.78-0.62,1.4-1.4,1.4c-0.78,0-1.4-0.62-1.4-1.4c0-0.78,0.62-1.4,1.4-1.4C402.15,122.85,402.76,123.46,402.76,124.24z
			 M402.18,124.24c0-0.47-0.35-0.87-0.82-0.87c-0.45,0-0.82,0.38-0.82,0.87s0.37,0.87,0.82,0.87
			C401.84,125.11,402.18,124.72,402.18,124.24z"/>
	</g>
	<g>
		<path class="st2" d="M408.08,87.04c0.02-0.36,0.13-0.68,0.3-0.94c0.42-0.66,1.11-0.75,1.49-0.75c1.21,0,1.81,0.85,1.81,1.73
			c0,0.46-0.17,1.1-0.83,1.42c0.22,0.09,0.92,0.44,0.92,1.55c0,1.2-0.88,1.93-1.97,1.93c-0.67,0-1.44-0.28-1.79-1.11
			c-0.1-0.23-0.13-0.44-0.14-0.67h0.71c0.03,0.23,0.11,0.47,0.23,0.65c0.21,0.31,0.59,0.48,0.99,0.48c0.71,0,1.26-0.59,1.26-1.3
			c0-0.37-0.14-0.86-0.63-1.08c-0.2-0.1-0.48-0.14-0.73-0.13v-0.64c0.25,0.02,0.53-0.03,0.73-0.13c0.2-0.11,0.54-0.38,0.54-0.95
			c0-0.57-0.31-1.1-1.1-1.1c-0.26,0-0.58,0.05-0.83,0.37c-0.13,0.16-0.23,0.41-0.25,0.67H408.08z"/>
		<path class="st2" d="M413.52,91.03c-0.42-0.62-0.64-1.44-0.64-2.36c0-0.92,0.22-1.74,0.64-2.36c0.49-0.71,1.14-0.96,1.65-0.96
			c0.51,0,1.16,0.25,1.65,0.96c0.42,0.62,0.65,1.44,0.65,2.36c0,0.91-0.22,1.74-0.65,2.36c-0.49,0.71-1.14,0.96-1.65,0.96
			C414.65,91.99,414.01,91.74,413.52,91.03z M414.06,86.71c-0.35,0.55-0.47,1.28-0.47,1.96s0.13,1.41,0.47,1.95
			c0.34,0.54,0.78,0.71,1.11,0.71s0.77-0.17,1.11-0.71c0.35-0.55,0.47-1.28,0.47-1.95s-0.13-1.41-0.47-1.96
			c-0.34-0.54-0.78-0.71-1.11-0.71S414.39,86.17,414.06,86.71z"/>
		<path class="st2" d="M420.72,86.79c0,0.78-0.62,1.4-1.4,1.4s-1.4-0.62-1.4-1.4c0-0.78,0.62-1.4,1.4-1.4S420.72,86.01,420.72,86.79
			z M420.14,86.79c0-0.47-0.35-0.87-0.82-0.87c-0.45,0-0.82,0.38-0.82,0.87s0.37,0.87,0.82,0.87
			C419.79,87.66,420.14,87.26,420.14,86.79z M422.71,85.33l0.38,0.21L419.34,92l-0.38-0.22L422.71,85.33z M424.13,90.54
			c0,0.78-0.62,1.4-1.4,1.4c-0.78,0-1.4-0.62-1.4-1.4c0-0.78,0.62-1.4,1.4-1.4C423.51,89.15,424.13,89.77,424.13,90.54z
			 M423.55,90.54c0-0.47-0.35-0.87-0.82-0.87c-0.45,0-0.82,0.38-0.82,0.87s0.37,0.87,0.82,0.87
			C423.2,91.41,423.55,91.02,423.55,90.54z"/>
	</g>
	<g>
		<g>
			<path class="st2" d="M29.23,28.18c1.78,0,2.69,0.46,3.29,0.97c0.99,0.83,1.28,1.93,1.28,2.9c0,1.26-0.5,2.36-1.51,3.04
				c-0.33,0.23-0.79,0.45-1.41,0.56l4.02,5.44h-3.13l-3.44-5.19h-0.31v5.19h-2.51V28.18H29.23z M28.01,34.12h0.72
				c0.48,0,2.48-0.06,2.48-1.96c0-1.92-1.97-1.93-2.44-1.93h-0.75V34.12z"/>
			<path class="st2" d="M43.23,30.35h-4.64v2.88h4.45v2.17h-4.45v3.52h4.64v2.17h-7.16V28.18h7.16V30.35z"/>
			<path class="st2" d="M45.15,41.09V28.18h1.74l7.86,8.61v-8.61h2.51v12.91h-1.74l-7.86-8.63v8.63H45.15z"/>
			<path class="st2" d="M63.05,28.18c1.8,0,3.37,0.19,4.8,1.26c1.57,1.18,2.48,3.06,2.48,5.2c0,2.15-0.89,4.01-2.59,5.21
				c-1.51,1.06-2.92,1.24-4.72,1.24h-3.33V28.18H63.05z M62.2,38.92h0.77c0.64,0,2.03-0.04,3.15-0.85c1.03-0.74,1.61-2.05,1.61-3.42
				c0-1.35-0.56-2.67-1.59-3.44c-1.04-0.77-2.32-0.85-3.17-0.85H62.2V38.92z"/>
			<path class="st2" d="M74.64,28.18v12.91h-2.51V28.18H74.64z"/>
			<path class="st2" d="M78.8,28.18h1.82l3.42,8.2l3.58-8.2h1.82l2.17,12.91h-2.55l-1.16-7.95l-3.46,7.95h-0.85l-3.31-7.95
				l-1.32,7.95H76.4L78.8,28.18z"/>
			<path class="st2" d="M95.89,28.18v12.91h-2.51V28.18H95.89z"/>
			<path class="st2" d="M105.47,30.35h-4.64v2.88h4.45v2.17h-4.45v3.52h4.64v2.17h-7.16V28.18h7.16V30.35z"/>
			<path class="st2" d="M107.38,41.09V28.18h1.74l7.86,8.61v-8.61h2.51v12.91h-1.74l-7.86-8.63v8.63H107.38z"/>
			<path class="st2" d="M125.98,30.35v10.74h-2.51V30.35h-2.9v-2.17h8.32v2.17H125.98z"/>
			<path class="st2" d="M142.54,34.64c0,3.93-2.82,6.73-6.89,6.73s-6.89-2.81-6.89-6.73s2.82-6.75,6.89-6.75
				S142.54,30.72,142.54,34.64z M139.95,34.64c0-2.61-1.78-4.47-4.29-4.47s-4.29,1.86-4.29,4.47c0,2.61,1.78,4.45,4.29,4.45
				S139.95,37.26,139.95,34.64z"/>
			<path class="st2" d="M150.69,31.12c-0.75-1.01-1.64-1.1-2.11-1.1c-1.35,0-1.78,0.85-1.78,1.51c0,0.31,0.1,0.6,0.41,0.87
				c0.31,0.29,0.74,0.45,1.55,0.74c1.01,0.35,1.95,0.7,2.61,1.3c0.58,0.52,1.1,1.39,1.1,2.71c0,2.52-1.82,4.24-4.49,4.24
				c-2.38,0-3.77-1.45-4.45-2.44l1.64-1.57c0.62,1.26,1.8,1.72,2.71,1.72c1.14,0,1.99-0.7,1.99-1.78c0-0.46-0.15-0.83-0.5-1.16
				c-0.48-0.45-1.26-0.7-1.99-0.95c-0.68-0.23-1.49-0.54-2.15-1.12c-0.43-0.37-1.03-1.08-1.03-2.4c0-1.9,1.28-3.79,4.14-3.79
				c0.81,0,2.34,0.15,3.66,1.51L150.69,31.12z"/>
			<path class="st2" d="M161.51,28.18c1.8,0,3.37,0.19,4.8,1.26c1.57,1.18,2.48,3.06,2.48,5.2c0,2.15-0.89,4.01-2.59,5.21
				c-1.51,1.06-2.92,1.24-4.72,1.24h-3.33V28.18H161.51z M160.65,38.92h0.77c0.64,0,2.03-0.04,3.15-0.85
				c1.03-0.74,1.61-2.05,1.61-3.42c0-1.35-0.56-2.67-1.59-3.44c-1.04-0.77-2.32-0.85-3.17-0.85h-0.77V38.92z"/>
			<path class="st2" d="M177.74,30.35h-4.64v2.88h4.45v2.17h-4.45v3.52h4.64v2.17h-7.16V28.18h7.16V30.35z"/>
			<path class="st2" d="M186.16,28.18v12.91h-2.51V28.18H186.16z"/>
			<path class="st2" d="M188.58,41.09V28.18h1.74l7.86,8.61v-8.61h2.51v12.91h-1.74l-7.86-8.63v8.63H188.58z"/>
			<path class="st2" d="M209.46,31.12c-0.75-1.01-1.64-1.1-2.11-1.1c-1.35,0-1.78,0.85-1.78,1.51c0,0.31,0.1,0.6,0.41,0.87
				c0.31,0.29,0.74,0.45,1.55,0.74c1.01,0.35,1.95,0.7,2.61,1.3c0.58,0.52,1.1,1.39,1.1,2.71c0,2.52-1.82,4.24-4.49,4.24
				c-2.38,0-3.77-1.45-4.45-2.44l1.64-1.57c0.62,1.26,1.8,1.72,2.71,1.72c1.14,0,1.99-0.7,1.99-1.78c0-0.46-0.15-0.83-0.5-1.16
				c-0.48-0.45-1.26-0.7-1.99-0.95c-0.68-0.23-1.49-0.54-2.15-1.12c-0.43-0.37-1.03-1.08-1.03-2.4c0-1.9,1.28-3.79,4.14-3.79
				c0.81,0,2.34,0.15,3.66,1.51L209.46,31.12z"/>
			<path class="st2" d="M216.79,30.35v10.74h-2.51V30.35h-2.9v-2.17h8.32v2.17H216.79z"/>
			<path class="st2" d="M224.49,28.18c1.78,0,2.69,0.46,3.29,0.97c0.99,0.83,1.28,1.93,1.28,2.9c0,1.26-0.5,2.36-1.51,3.04
				c-0.33,0.23-0.79,0.45-1.41,0.56l4.02,5.44h-3.13l-3.44-5.19h-0.31v5.19h-2.51V28.18H224.49z M223.27,34.12h0.72
				c0.48,0,2.48-0.06,2.48-1.96c0-1.92-1.97-1.93-2.44-1.93h-0.75V34.12z"/>
			<path class="st2" d="M233.86,28.18v8.11c0,0.99,0.33,1.59,0.62,1.92c0.37,0.45,1.04,0.89,2.05,0.89c1.01,0,1.68-0.44,2.05-0.89
				c0.29-0.33,0.62-0.93,0.62-1.92v-8.11h2.51v7.89c0,1.22-0.19,2.46-0.97,3.44c-0.93,1.22-2.55,1.86-4.22,1.86
				c-1.66,0-3.29-0.64-4.22-1.86c-0.77-0.99-0.97-2.22-0.97-3.44v-7.89H233.86z"/>
			<path class="st2" d="M245.87,28.18h1.82l3.42,8.2l3.58-8.2h1.82l2.17,12.91h-2.55l-1.16-7.95l-3.46,7.95h-0.85l-3.31-7.95
				l-1.32,7.95h-2.55L245.87,28.18z"/>
			<path class="st2" d="M267.6,30.35h-4.64v2.88h4.45v2.17h-4.45v3.52h4.64v2.17h-7.16V28.18h7.16V30.35z"/>
			<path class="st2" d="M269.52,41.09V28.18h1.74l7.86,8.61v-8.61h2.51v12.91h-1.74l-7.86-8.63v8.63H269.52z"/>
			<path class="st2" d="M288.12,30.35v10.74h-2.51V30.35h-2.9v-2.17h8.32v2.17H288.12z"/>
			<path class="st2" d="M304.68,34.64c0,3.93-2.82,6.73-6.89,6.73s-6.89-2.81-6.89-6.73s2.82-6.75,6.89-6.75
				S304.68,30.72,304.68,34.64z M302.09,34.64c0-2.61-1.78-4.47-4.29-4.47s-4.29,1.86-4.29,4.47c0,2.61,1.78,4.45,4.29,4.45
				S302.09,37.26,302.09,34.64z"/>
			<path class="st2" d="M312.83,31.12c-0.75-1.01-1.64-1.1-2.11-1.1c-1.35,0-1.78,0.85-1.78,1.51c0,0.31,0.1,0.6,0.41,0.87
				c0.31,0.29,0.74,0.45,1.55,0.74c1.01,0.35,1.95,0.7,2.61,1.3c0.58,0.52,1.1,1.39,1.1,2.71c0,2.52-1.82,4.24-4.49,4.24
				c-2.38,0-3.77-1.45-4.45-2.44l1.64-1.57c0.62,1.26,1.8,1.72,2.71,1.72c1.14,0,1.99-0.7,1.99-1.78c0-0.46-0.15-0.83-0.5-1.16
				c-0.48-0.45-1.26-0.7-1.99-0.95c-0.68-0.23-1.49-0.54-2.15-1.12c-0.43-0.37-1.03-1.08-1.03-2.4c0-1.9,1.28-3.79,4.14-3.79
				c0.81,0,2.34,0.15,3.66,1.51L312.83,31.12z"/>
			<path class="st2" d="M323.64,28.18c1.8,0,3.37,0.19,4.8,1.26c1.57,1.18,2.48,3.06,2.48,5.2c0,2.15-0.89,4.01-2.59,5.21
				c-1.51,1.06-2.92,1.24-4.72,1.24h-3.33V28.18H323.64z M322.79,38.92h0.77c0.64,0,2.03-0.04,3.15-0.85
				c1.03-0.74,1.61-2.05,1.61-3.42c0-1.35-0.56-2.67-1.59-3.44c-1.04-0.77-2.32-0.85-3.17-0.85h-0.77V38.92z"/>
			<path class="st2" d="M339.88,30.35h-4.64v2.88h4.45v2.17h-4.45v3.52h4.64v2.17h-7.16V28.18h7.16V30.35z"/>
			<path class="st2" d="M348.3,28.18v12.91h-2.51V28.18H348.3z"/>
			<path class="st2" d="M350.72,41.09V28.18h1.74l7.86,8.61v-8.61h2.51v12.91h-1.74l-7.86-8.63v8.63H350.72z"/>
			<path class="st2" d="M366.56,28.18l3.45,8.67l3.44-8.67h2.75l-5.46,12.91h-1.51l-5.42-12.91H366.56z"/>
			<path class="st2" d="M384.35,30.35h-4.64v2.88h4.45v2.17h-4.45v3.52h4.64v2.17h-7.16V28.18h7.16V30.35z"/>
			<path class="st2" d="M390,28.18c1.78,0,2.69,0.46,3.29,0.97c0.99,0.83,1.28,1.93,1.28,2.9c0,1.26-0.5,2.36-1.51,3.04
				c-0.33,0.23-0.79,0.45-1.41,0.56l4.03,5.44h-3.13l-3.45-5.19h-0.31v5.19h-2.52V28.18H390z M388.78,34.12h0.71
				c0.48,0,2.48-0.06,2.48-1.96c0-1.92-1.97-1.93-2.44-1.93h-0.75V34.12z"/>
			<path class="st2" d="M403.19,31.12c-0.75-1.01-1.64-1.1-2.11-1.1c-1.35,0-1.78,0.85-1.78,1.51c0,0.31,0.1,0.6,0.41,0.87
				c0.31,0.29,0.73,0.45,1.55,0.74c1.01,0.35,1.96,0.7,2.61,1.3c0.58,0.52,1.1,1.39,1.1,2.71c0,2.52-1.82,4.24-4.49,4.24
				c-2.38,0-3.77-1.45-4.45-2.44l1.64-1.57c0.62,1.26,1.8,1.72,2.71,1.72c1.14,0,1.99-0.7,1.99-1.78c0-0.46-0.15-0.83-0.5-1.16
				c-0.48-0.45-1.26-0.7-1.99-0.95c-0.68-0.23-1.49-0.54-2.15-1.12c-0.43-0.37-1.03-1.08-1.03-2.4c0-1.9,1.28-3.79,4.14-3.79
				c0.81,0,2.34,0.15,3.66,1.51L403.19,31.12z"/>
			<path class="st2" d="M409.17,28.18v12.91h-2.51V28.18H409.17z"/>
			<path class="st2" d="M424.75,34.64c0,3.93-2.82,6.73-6.89,6.73c-4.06,0-6.89-2.81-6.89-6.73s2.82-6.75,6.89-6.75
				C421.92,27.89,424.75,30.72,424.75,34.64z M422.16,34.64c0-2.61-1.78-4.47-4.29-4.47s-4.29,1.86-4.29,4.47
				c0,2.61,1.78,4.45,4.29,4.45S422.16,37.26,422.16,34.64z M416.31,26.03l2.71-2.75l1.74,1.35L417.4,27L416.31,26.03z"/>
			<path class="st2" d="M426.55,41.09V28.18h1.74l7.86,8.61v-8.61h2.52v12.91h-1.74l-7.86-8.63v8.63H426.55z"/>
		</g>
	</g>
	<g>
		<path class="st2" d="M96.7,327.74c-0.71-0.65-1.38-0.71-1.74-0.71c-1.4,0-2.34,1.03-2.34,2.45c0,1.36,0.98,2.41,2.35,2.41
			c0.77,0,1.37-0.39,1.73-0.74v1.17c-0.64,0.39-1.32,0.48-1.76,0.48c-1.17,0-1.9-0.53-2.27-0.89c-0.75-0.7-1.03-1.52-1.03-2.43
			c0-1.18,0.49-2,1.03-2.51c0.67-0.63,1.43-0.84,2.32-0.84c0.59,0,1.16,0.11,1.71,0.46V327.74z"/>
		<path class="st2" d="M103.8,329.46c0,1.89-1.42,3.33-3.34,3.33c-1.92,0-3.34-1.44-3.34-3.33c0-1.89,1.42-3.33,3.34-3.33
			C102.38,326.13,103.8,327.57,103.8,329.46z M102.81,329.46c0-1.42-0.98-2.43-2.36-2.43c-1.38,0-2.36,1-2.36,2.43
			s0.98,2.43,2.36,2.43C101.83,331.88,102.81,330.88,102.81,329.46z"/>
		<path class="st2" d="M104.36,332.66l1.35-6.9l2.23,4.99l2.25-4.99l1.21,6.9h-1l-0.65-3.87l-1.87,4.17l-1.85-4.18l-0.67,3.88
			H104.36z"/>
		<path class="st2" d="M116.01,327.17h-2.56v1.63h2.48v0.92h-2.48v2.02h2.56v0.92h-3.54v-6.42h3.54V327.17z"/>
		<path class="st2" d="M118.13,326.24c0.78,0,1.28,0.1,1.69,0.38c0.7,0.47,0.76,1.23,0.76,1.51c0,0.92-0.57,1.6-1.42,1.79l2,2.74
			h-1.18l-1.84-2.63h-0.17v2.63h-0.98v-6.42H118.13z M117.97,329.19h0.31c0.27,0,1.37-0.03,1.37-1.05c0-0.91-0.86-0.99-1.34-0.99
			h-0.34V329.19z"/>
		<path class="st2" d="M126.6,327.74c-0.71-0.65-1.38-0.71-1.74-0.71c-1.4,0-2.34,1.03-2.34,2.45c0,1.36,0.98,2.41,2.35,2.41
			c0.77,0,1.37-0.39,1.73-0.74v1.17c-0.64,0.39-1.32,0.48-1.76,0.48c-1.17,0-1.9-0.53-2.27-0.89c-0.75-0.7-1.03-1.52-1.03-2.43
			c0-1.18,0.49-2,1.03-2.51c0.67-0.63,1.43-0.84,2.32-0.84c0.59,0,1.16,0.11,1.71,0.46V327.74z"/>
		<path class="st2" d="M128.5,326.24v6.42h-0.98v-6.42H128.5z"/>
		<path class="st2" d="M133.53,331.11h-2.74l-0.7,1.55h-1.06l3.2-6.8l3.04,6.8h-1.06L133.53,331.11z M133.13,330.19l-0.95-2.18
			l-0.99,2.18H133.13z"/>
		<path class="st2" d="M136.76,326.24v5.5h1.89v0.92h-2.87v-6.42H136.76z"/>
	</g>
	<g>
		<g>
			<linearGradient id="SVGID_39_" gradientUnits="userSpaceOnUse" x1="112.0322" y1="267.0873" x2="146.6662" y2="301.7213">
				<stop  offset="0" style="stop-color:#3D597F"/>
				<stop  offset="0.3008" style="stop-color:#34537A"/>
				<stop  offset="0.8002" style="stop-color:#1B436D"/>
				<stop  offset="1" style="stop-color:#0F3C67"/>
			</linearGradient>
			<polygon class="st48" points="138,255.24 137.97,310.42 120.69,313.56 120.73,258.39 			"/>
		</g>
		<g>
			<linearGradient id="SVGID_40_" gradientUnits="userSpaceOnUse" x1="98.8949" y1="265.6151" x2="133.769" y2="300.4892">
				<stop  offset="0" style="stop-color:#3D597F"/>
				<stop  offset="0.3008" style="stop-color:#34537A"/>
				<stop  offset="0.8002" style="stop-color:#1B436D"/>
				<stop  offset="1" style="stop-color:#0F3C67"/>
			</linearGradient>
			<polygon class="st49" points="120.69,313.56 110.84,306.62 110.87,253.64 120.73,258.39 			"/>
		</g>
		<g>
			<linearGradient id="SVGID_41_" gradientUnits="userSpaceOnUse" x1="110.8721" y1="254.4411" x2="138.0046" y2="254.4411">
				<stop  offset="0" style="stop-color:#3D597F"/>
				<stop  offset="0.3008" style="stop-color:#34537A"/>
				<stop  offset="0.8002" style="stop-color:#1B436D"/>
				<stop  offset="1" style="stop-color:#0F3C67"/>
			</linearGradient>
			<polygon class="st50" points="120.73,258.39 110.87,253.64 128.15,250.49 138,255.24 			"/>
		</g>
		<g class="st8">
			<linearGradient id="SVGID_42_" gradientUnits="userSpaceOnUse" x1="114.1803" y1="306.6153" x2="114.1803" y2="253.638">
				<stop  offset="0" style="stop-color:#FFFFFF;stop-opacity:0.15"/>
				<stop  offset="1" style="stop-color:#FFFFFF"/>
			</linearGradient>
			<polygon class="st51" points="110.84,306.62 110.87,253.64 117.52,256.85 			"/>
		</g>
		<g class="st10">
			<g>
				<g>
					<path class="st11" d="M138,255.24c-1.42,0.39-2.84,0.72-4.27,1.07c-1.43,0.33-2.86,0.65-4.29,0.95
						c-2.87,0.6-5.74,1.16-8.62,1.67l-0.18,0.03l-0.16-0.08c-1.64-0.8-3.27-1.63-4.87-2.5c-0.81-0.43-1.6-0.88-2.39-1.33
						c-0.78-0.47-1.58-0.92-2.35-1.42c0.87,0.29,1.72,0.64,2.58,0.96c0.85,0.34,1.7,0.68,2.53,1.04c1.68,0.71,3.34,1.47,4.99,2.25
						l-0.34-0.05c2.88-0.54,5.76-1.03,8.66-1.48c1.45-0.22,2.9-0.43,4.35-0.62C135.09,255.58,136.54,255.38,138,255.24z"/>
				</g>
			</g>
			<g>
				<polygon class="st11" points="121.29,258.39 120.69,313.56 120.17,258.39 				"/>
			</g>
		</g>
		<g class="st12">
			<linearGradient id="SVGID_43_" gradientUnits="userSpaceOnUse" x1="119.5102" y1="258.3819" x2="119.5102" y2="250.4911">
				<stop  offset="0" style="stop-color:#FFFFFF;stop-opacity:0.15"/>
				<stop  offset="0.9675" style="stop-color:#FFFFFF;stop-opacity:0.9724"/>
				<stop  offset="1" style="stop-color:#FFFFFF"/>
			</linearGradient>
			<polygon class="st52" points="117.6,258.38 110.87,253.64 128.15,250.49 			"/>
		</g>
	</g>
	<g>
		<g>
			<linearGradient id="SVGID_44_" gradientUnits="userSpaceOnUse" x1="93.7039" y1="272.3783" x2="124.0178" y2="302.6922">
				<stop  offset="0" style="stop-color:#6FB1C8"/>
				<stop  offset="0.1521" style="stop-color:#67A7C0"/>
				<stop  offset="0.4055" style="stop-color:#528EAB"/>
				<stop  offset="0.7268" style="stop-color:#306489"/>
				<stop  offset="1" style="stop-color:#0F3C67"/>
			</linearGradient>
			<polygon class="st53" points="116.83,262.4 116.8,309.91 100.89,312.67 100.92,265.16 			"/>
		</g>
		<g>
			<linearGradient id="SVGID_45_" gradientUnits="userSpaceOnUse" x1="81.6719" y1="271.1688" x2="112.0336" y2="301.5305">
				<stop  offset="0" style="stop-color:#6FB1C8"/>
				<stop  offset="1" style="stop-color:#435C82"/>
			</linearGradient>
			<polygon class="st54" points="100.89,312.67 91.82,306.58 91.85,260.99 100.92,265.16 			"/>
		</g>
		<g>
			<polygon class="st16" points="100.92,265.16 91.85,260.99 107.76,258.23 116.83,262.4 			"/>
		</g>
		<g class="st8">
			<linearGradient id="SVGID_46_" gradientUnits="userSpaceOnUse" x1="94.8959" y1="306.5786" x2="94.8959" y2="260.9904">
				<stop  offset="0" style="stop-color:#FFFFFF;stop-opacity:0.15"/>
				<stop  offset="1" style="stop-color:#FFFFFF"/>
			</linearGradient>
			<polygon class="st55" points="91.82,306.58 91.85,260.99 97.97,263.8 			"/>
		</g>
		<g class="st18">
			<g>
				<g>
					<path class="st19" d="M116.83,262.4c-1.3,0.36-2.62,0.65-3.93,0.97c-1.31,0.3-2.63,0.58-3.95,0.85
						c-2.64,0.54-5.28,1.03-7.94,1.48l-0.17,0.03l-0.15-0.07c-1.51-0.71-3.01-1.43-4.48-2.21c-0.74-0.38-1.47-0.78-2.2-1.19
						c-0.72-0.42-1.45-0.82-2.16-1.28c0.81,0.24,1.58,0.54,2.38,0.81c0.78,0.29,1.56,0.58,2.34,0.89c1.55,0.61,3.08,1.28,4.59,1.96
						l-0.33-0.04c2.65-0.47,5.31-0.9,7.97-1.28c1.33-0.19,2.67-0.37,4-0.53C114.15,262.67,115.48,262.5,116.83,262.4z"/>
				</g>
			</g>
			<g>
				<polygon class="st19" points="101.49,265.16 100.89,312.67 100.36,265.16 				"/>
			</g>
		</g>
		<g class="st12">
			<linearGradient id="SVGID_47_" gradientUnits="userSpaceOnUse" x1="99.8027" y1="265.1499" x2="99.8027" y2="258.2313">
				<stop  offset="0" style="stop-color:#FFFFFF;stop-opacity:0.15"/>
				<stop  offset="0.9675" style="stop-color:#FFFFFF;stop-opacity:0.9724"/>
				<stop  offset="1" style="stop-color:#FFFFFF"/>
			</linearGradient>
			<polygon class="st56" points="98.04,265.15 91.85,260.99 107.76,258.23 			"/>
		</g>
	</g>
	<g>
		<path class="st2" d="M101.57,246.52l-1.47,2.05c0.18-0.06,0.37-0.09,0.57-0.09c1.23,0,2.08,0.92,2.08,2.12
			c0,1.28-0.92,2.2-2.21,2.2c-1.51,0-2.22-1.17-2.22-2.19c0-0.24,0.05-0.8,0.53-1.47l2.19-3.03L101.57,246.52z M102.03,250.62
			c0-0.86-0.64-1.48-1.51-1.48s-1.49,0.64-1.49,1.48c0,0.86,0.61,1.53,1.5,1.53C101.41,252.15,102.03,251.49,102.03,250.62z"/>
		<path class="st2" d="M106.08,247.61c0,0.78-0.62,1.4-1.4,1.4s-1.4-0.62-1.4-1.4c0-0.78,0.62-1.4,1.4-1.4
			S106.08,246.83,106.08,247.61z M105.5,247.61c0-0.47-0.35-0.87-0.82-0.87c-0.45,0-0.82,0.38-0.82,0.87s0.37,0.87,0.82,0.87
			C105.16,248.48,105.5,248.08,105.5,247.61z M108.07,246.15l0.38,0.21l-3.75,6.46l-0.38-0.22L108.07,246.15z M109.49,251.36
			c0,0.78-0.62,1.4-1.4,1.4c-0.78,0-1.4-0.62-1.4-1.4c0-0.78,0.62-1.4,1.4-1.4C108.87,249.97,109.49,250.58,109.49,251.36z
			 M108.91,251.36c0-0.47-0.35-0.87-0.82-0.87c-0.45,0-0.82,0.38-0.82,0.87s0.37,0.87,0.82,0.87
			C108.57,252.23,108.91,251.84,108.91,251.36z"/>
	</g>
	<g>
		<path class="st2" d="M124.04,238.87h-3.51v-0.65h4.72l-4.29,6.58l-0.56-0.38L124.04,238.87z"/>
		<path class="st2" d="M128.18,239.55c0,0.78-0.62,1.4-1.4,1.4s-1.4-0.62-1.4-1.4c0-0.78,0.62-1.4,1.4-1.4
			S128.18,238.77,128.18,239.55z M127.6,239.55c0-0.47-0.35-0.87-0.82-0.87c-0.45,0-0.82,0.38-0.82,0.87s0.37,0.87,0.82,0.87
			C127.26,240.42,127.6,240.02,127.6,239.55z M130.17,238.09l0.38,0.21l-3.75,6.46l-0.38-0.22L130.17,238.09z M131.59,243.31
			c0,0.78-0.62,1.4-1.4,1.4c-0.78,0-1.4-0.62-1.4-1.4c0-0.78,0.62-1.4,1.4-1.4C130.97,241.91,131.59,242.53,131.59,243.31z
			 M131.01,243.31c0-0.47-0.35-0.87-0.82-0.87c-0.45,0-0.82,0.38-0.82,0.87s0.37,0.87,0.82,0.87
			C130.66,244.17,131.01,243.78,131.01,243.31z"/>
	</g>
	<g>
		<path class="st16" d="M92.97,201.29c6.4,0.79,12.87,1.19,19.32,1.42c3.22,0.16,6.46,0.18,9.68,0.26c3.23,0.03,6.46,0.01,9.68,0
			c12.91-0.15,25.81-0.94,38.65-2.22l4.82-0.44l4.81-0.56c3.2-0.39,6.41-0.73,9.61-1.16c6.38-0.96,12.78-1.76,19.13-2.94
			c3.18-0.56,6.36-1.08,9.53-1.67l9.49-1.92l4.74-0.96c1.57-0.35,3.11-0.75,4.66-1.11c3.11-0.69,6.16-1.68,9.23-2.54
			c12.2-3.83,24.01-8.99,35.33-15.14c11.32-6.14,22.31-12.96,33-20.32c21.39-14.71,41.54-31.55,60.52-49.95l0.55,0.5
			c-3.94,5.44-8.27,10.52-12.69,15.52c-4.46,4.96-9.07,9.78-13.86,14.41c-4.76,4.67-9.73,9.09-14.77,13.44
			c-5.06,4.32-10.31,8.41-15.63,12.4c-5.34,3.96-10.87,7.64-16.51,11.15c-5.66,3.46-11.47,6.68-17.4,9.63
			c-5.96,2.89-11.99,5.62-18.17,7.97c-6.14,2.46-12.44,4.47-18.78,6.28c-3.2,0.81-6.37,1.73-9.61,2.35
			c-1.61,0.33-3.23,0.7-4.83,1.01l-4.81,0.83l-9.62,1.66c-3.21,0.51-6.44,0.93-9.66,1.4c-6.43,1-12.91,1.62-19.36,2.4
			c-3.23,0.33-6.47,0.58-9.71,0.88l-4.86,0.42l-4.86,0.3c-12.97,0.8-25.96,1.1-38.94,0.76c-3.24-0.12-6.49-0.22-9.73-0.37
			c-3.24-0.21-6.48-0.34-9.71-0.63c-6.47-0.52-12.92-1.2-19.34-2.28L92.97,201.29z"/>
		<polygon class="st16" points="382.9,96.87 375.8,127.05 372.62,105.75 353.92,100.04 		"/>
	</g>
</g>
</svg>
