<?xml version="1.0" encoding="utf-8"?>
<!-- Generator: Adobe Illustrator 24.3.0, SVG Export Plug-In . SVG Version: 6.00 Build 0)  -->
<svg version="1.1" id="Capa_1" xmlns="http://www.w3.org/2000/svg" xmlns:xlink="http://www.w3.org/1999/xlink" x="0px" y="0px"
	 viewBox="0 0 280 240" style="enable-background:new 0 0 280 240;" xml:space="preserve">
<style type="text/css">
	.st0{fill:#002854;}
	.st1{enable-background:new    ;}
	.st2{fill:#FFFFFF;}
</style>
<polygon class="st0" points="280,29.5 34.5,240 0,240 0,210.4 245.5,0 280,0 "/>
<g class="st1">
	<path class="st2" d="M110.7,156.7L94,137.4l25,2.3l-10.9-12.5l2.8-2.4l16.6,19.1l-25-2.3l10.9,12.6L110.7,156.7z"/>
	<path class="st2" d="M123.2,125.9l5.7,6.5c0.6,0.7,1.3,1.4,2.3,1.6c0.8,0.2,1.7-0.1,2.4-0.7c0.8-0.7,1.1-1.5,1-2.3
		c-0.1-1-0.7-1.8-1.3-2.5l-5.7-6.5l2.6-2.3l5.7,6.6c1.3,1.5,2.2,2.8,2,4.8c-0.1,1.9-1.2,3.5-2.5,4.6c-1.2,1-2.9,1.9-4.8,1.7
		c-2-0.1-3.2-1.2-4.5-2.7l-5.7-6.6L123.2,125.9z"/>
	<path class="st2" d="M151.4,116.7c0.3,1.3,0.2,2.7-0.1,3.7c-0.4,1.4-1.4,2.7-2.6,3.8c-1.5,1.3-3.1,2-5.1,1.9c-2-0.1-4-1.2-5.5-2.9
		c-1.5-1.8-2.4-4-2.3-6.3c0.1-1.8,0.8-3.4,2.5-4.9c1.8-1.6,3.7-1.8,4.9-1.7c2.8,0.2,4.7,2.2,5.8,3.4l0.3,0.3l-8.2,7.1
		c0.8,0.8,1.9,1.4,3,1.5c1.2,0.1,2-0.5,2.7-1c0.7-0.6,1.1-1.3,1.3-2.1c0.2-0.8,0.1-1.5,0-2.2L151.4,116.7z M144.8,114.4
		c-0.6-0.5-1.4-0.8-2.2-0.8c-0.6,0-1.5,0.2-2.3,0.9c-0.9,0.8-1.2,1.7-1.2,2.4c-0.1,0.7,0.1,1.5,0.5,2.2L144.8,114.4z"/>
	<path class="st2" d="M147.8,104.5l8.6,3.9l-2.7-9l3-2.6l4.7,17.3l-16.5-7.1L147.8,104.5z"/>
	<path class="st2" d="M174.7,91.1c3,3.5,2.6,8.3-0.8,11.3c-3.4,3-8.3,2.7-11.3-0.7c-3.1-3.5-2.6-8.3,0.9-11.3
		C166.8,87.4,171.6,87.6,174.7,91.1z M172,93.5c-2.3-2.6-4.9-2.2-6.6-0.7c-1.7,1.5-2.5,4-0.2,6.6c1.9,2.2,4.4,2.5,6.5,0.7
		C173.9,98.2,173.9,95.7,172,93.5z"/>
</g>
</svg>
