<?xml version="1.0" encoding="utf-8"?>
<!-- Generator: Adobe Illustrator 24.3.0, SVG Export Plug-In . SVG Version: 6.00 Build 0)  -->
<svg version="1.1" id="Capa_1" xmlns:svgjs="http://svgjs.com/svgjs"
	 xmlns="http://www.w3.org/2000/svg" xmlns:xlink="http://www.w3.org/1999/xlink" x="0px" y="0px" viewBox="0 0 512 479"
	 style="enable-background:new 0 0 512 479;" xml:space="preserve">
<style type="text/css">
	.st0{fill:#49B4AF;stroke:#49B4AF;stroke-width:10;stroke-miterlimit:10;}
	.st1{fill:#49B4AF;stroke:#49B4AF;stroke-width:6;stroke-miterlimit:10;}
</style>
<g>
	<g>
		<g>
			<path class="st0" d="M112.3,334H54.8c-3.2,0-5.7,1.8-5.7,3.8v121.3c0,2.2,2.6,3.8,5.7,3.8h57.4c3.2,0,5.7-1.8,5.7-3.8V337.8
				C118,335.8,115.4,334,112.3,334z M106.5,455.3h-46V341.8h46V455.3z"/>
			<path class="st0" d="M236.6,284h-57.4c-3.2,0-5.7,1.8-5.7,4v172.5c0,2.2,2.6,4,5.7,4h57.4c3.2,0,5.7-1.8,5.7-4V288.1
				C242.4,285.9,239.8,284,236.6,284z M230.9,456.5h-46V292.1h46V456.5z"/>
			<path class="st0" d="M355.1,235h-57.4c-3.2,0-5.7,1.9-5.7,4.2v219.6c0,2.4,2.6,4.2,5.7,4.2h57.4c3.2,0,5.7-1.9,5.7-4.2V239.2
				C360.8,236.8,358.3,235,355.1,235z M349.4,454.6h-46V243.4h46V454.6z"/>
			<path class="st0" d="M470.7,160h-57.4c-3.2,0-5.7,2-5.7,4.5v294c0,2.5,2.6,4.5,5.7,4.5h57.4c3.2,0,5.7-2,5.7-4.5V164.6
				C476.4,162,473.8,160,470.7,160z M464.9,454.1h-46V169h46V454.1z"/>
			<path class="st1" d="M438.4,25.5L465.3,74c1.2,2.1,3.6,3.3,6.2,3.3c1,0,2-0.2,3-0.6c3.5-1.4,4.9-4.9,3.2-7.7L443.2,7
				c0-0.1-0.1-0.1-0.1-0.2c0-0.1-0.1-0.1-0.1-0.2c-0.1-0.1-0.1-0.2-0.2-0.3c-0.1-0.2-0.2-0.4-0.5-0.5c-0.1-0.1-0.2-0.3-0.4-0.4
				c-0.1-0.1-0.4-0.3-0.6-0.4c-0.1-0.1-0.4-0.2-0.5-0.3c-0.2-0.1-0.4-0.2-0.6-0.3c-0.2-0.1-0.4-0.1-0.6-0.2s-0.5-0.1-0.7-0.2
				c-0.2-0.1-0.4-0.1-0.6-0.1s-0.5-0.1-0.7-0.1s-0.4,0-0.6,0s-0.5,0-0.7,0s-0.4,0-0.6,0.1c-0.2,0-0.5,0.1-0.7,0.1
				c-0.2,0.1-0.4,0.1-0.6,0.2c-0.1,0-0.2,0.1-0.5,0.1c-0.1,0-0.1,0.1-0.2,0.1s-0.1,0.1-0.2,0.1l-77.1,37.6c-3.3,1.6-4.4,5.2-2.5,7.9
				c1.3,1.9,3.6,2.9,6,2.9c1.2,0,2.3-0.2,3.3-0.8l62.2-30.2C384.7,128.7,179.5,241,51,272.7c-3.6,0.9-5.7,4.2-4.6,7.2
				c0.8,2.5,3.6,4.2,6.6,4.2c0.6,0,1.3-0.1,1.9-0.2C167.4,256.1,393.4,144,438.4,25.5z"/>
		</g>
	</g>
</g>
</svg>
