<?xml version="1.0" encoding="utf-8"?>
<!-- Generator: Adobe Illustrator 24.3.0, SVG Export Plug-In . SVG Version: 6.00 Build 0)  -->
<svg version="1.1" id="Capa_1" xmlns:svgjs="http://svgjs.com/svgjs"
	 xmlns="http://www.w3.org/2000/svg" xmlns:xlink="http://www.w3.org/1999/xlink" x="0px" y="0px" viewBox="0 0 512 512"
	 style="enable-background:new 0 0 512 512;" xml:space="preserve">
<style type="text/css">
	.st0{fill:#49B4AF;}
</style>
<g>
	<path class="st0" d="M429.4,82.6c-18.2,0-33,14.8-33,33v104.5L379.2,242c-2.6-10.9-12.4-19-24.1-19H354c-6.8,0-13.4,2.9-18.1,7.9
		L234.1,339.9c-1.1,1.1-1.9,2.4-2.9,3.7c-0.9-1.2-1.8-2.5-2.9-3.7L126.5,230.8c-4.7-5-11.3-7.9-18.1-7.9h-1.1
		c-11.7,0-21.5,8.1-24.1,19l-17.2-21.9V115.6c0-18.2-14.8-33-33-33s-33,14.8-33,33V256c0,1.4,0.3,2.7,1,4l49.5,90.8
		c0.4,0.7,0.9,1.3,1.4,1.9l64.7,64.7c4.6,4.6,7.3,11,7.3,17.5v68.9c0,4.6,3.7,8.3,8.3,8.3h198.2c4.6,0,8.3-3.7,8.3-8.3v-68.9
		c0-6.5,2.6-12.9,7.3-17.5l64.7-64.7c0.6-0.6,1-1.2,1.4-1.9l49.5-90.8c0.7-1.2,1-2.6,1-4V115.6C462.5,97.4,447.6,82.6,429.4,82.6z
		 M128.3,405.7l-63.8-63.8l-48-87.9V115.6c0-9.1,7.4-16.5,16.5-16.5s16.5,7.4,16.5,16.5V223c0,1.9,0.6,3.6,1.8,5.1l90.8,115.6
		l13-10.2l-56-71.3v-14.4c0-4.5,3.7-8.3,8.3-8.3h1.1c2.3,0,4.5,1,6,2.6l101.8,109.1c4.3,4.6,6.7,10.6,6.7,16.9v94.3h-82.6v-27.6
		C140.4,423.8,136.1,413.4,128.3,405.7z M140.4,479H223v16.5h-82.6V479z M239.5,495.5V479h82.6v16.5H239.5z M445.9,253.9l-48,87.9
		l-63.8,63.8c-7.8,7.8-12.1,18.2-12.1,29.2v27.6h-82.6v-94.3c0-6.3,2.4-12.3,6.7-16.9L348,242.1c1.6-1.7,3.7-2.6,6-2.6h1.1
		c4.5,0,8.3,3.7,8.3,8.3v14.4l-56,71.3l13,10.2l90.8-115.6c1.1-1.5,1.8-3.2,1.8-5.1V115.6c0-9.1,7.4-16.5,16.5-16.5
		s16.5,7.4,16.5,16.5V253.9z"/>
	<path class="st0" d="M231.2,264.3c72.9,0,132.1-59.3,132.1-132.1S304.1,0,231.2,0S99.1,59.3,99.1,132.1S158.4,264.3,231.2,264.3z
		 M231.2,247.7c-60,0-109.4-45.9-115.1-104.5l19.4-19.4h13.1c2.2,0,4.3-0.9,5.8-2.4l14.1-14.1h13.1c2.2,0,4.3-0.9,5.8-2.4l33-33
		c1.6-1.5,2.4-3.6,2.4-5.8V53l14.1-14.1c1.6-1.5,2.4-3.6,2.4-5.8V16.9c14.7,1.1,28.6,4.9,41.3,10.9v18.3l-14.1,14.1
		c-1.6,1.5-2.4,3.6-2.4,5.8v13.1l-14.1,14.1c-1.6,1.5-2.4,3.6-2.4,5.8v16.5c0,2.2,0.9,4.3,2.4,5.8l14.1,14.1v13.1
		c0,2.2,0.9,4.3,2.4,5.8l16.5,16.5c1.5,1.6,3.6,2.4,5.8,2.4h13.1l24.2,24.2C305.5,227.9,270.6,247.7,231.2,247.7z M346.8,132.1
		c0,18.2-4.4,35.4-11.9,50.8l-23.6-23.6c-1.5-1.6-3.6-2.4-5.8-2.4h-13.1l-11.7-11.7v-13.1c0-2.2-0.9-4.3-2.4-5.8l-14.1-14.1v-9.7
		l14.1-14.1c1.6-1.5,2.4-3.6,2.4-5.8V69.5l14.1-14.1c1.6-1.5,2.4-3.6,2.4-5.8V37.4C327.2,58.3,346.8,92.9,346.8,132.1z M223,16.9
		v12.7l-14.1,14.1c-1.6,1.5-2.4,3.6-2.4,5.8v13.1l-28.2,28.2h-13.1c-2.2,0-4.3,0.9-5.8,2.4l-14.1,14.1h-13.1c-2.2,0-4.3,0.9-5.8,2.4
		l-10,10C122.2,64.5,167.2,20.9,223,16.9z"/>
	<path class="st0" d="M247.7,170v-21.4c0-2.2-0.9-4.3-2.4-5.8l-16.5-16.5c-1.5-1.6-3.6-2.4-5.8-2.4h-16.5c-2.2,0-4.3,0.9-5.8,2.4
		l-14.1,14.1h-29.6c-4.6,0-8.3,3.7-8.3,8.3v41.3c0,4.6,3.7,8.3,8.3,8.3H170l14.1,14.1c1.5,1.6,3.6,2.4,5.8,2.4H203l14.1,14.1
		c1.5,1.6,3.6,2.4,5.8,2.4h16.5c2.2,0,4.3-0.9,5.8-2.4l16.5-16.5c1.6-1.5,2.4-3.6,2.4-5.8v-16.5c0-2.2-0.9-4.3-2.4-5.8L247.7,170z
		 M247.7,203l-11.7,11.7h-9.7l-14.1-14.1c-1.5-1.6-3.6-2.4-5.8-2.4h-13.1l-14.1-14.1c-1.5-1.6-3.6-2.4-5.8-2.4h-8.3v-24.8h24.8
		c2.2,0,4.3-0.9,5.8-2.4l14.1-14.1h9.7l11.7,11.7v21.4c0,2.2,0.9,4.3,2.4,5.8l14.1,14.1V203z"/>
</g>
</svg>
