<?xml version="1.0" encoding="utf-8"?>
<!-- Generator: Adobe Illustrator 24.3.0, SVG Export Plug-In . SVG Version: 6.00 Build 0)  -->
<svg version="1.1" id="Capa_1" xmlns="http://www.w3.org/2000/svg" xmlns:xlink="http://www.w3.org/1999/xlink" x="0px" y="0px"
	 viewBox="0 0 512 512" style="enable-background:new 0 0 512 512;" xml:space="preserve">
<style type="text/css">
	.st0{fill:#002B53;}
</style>
<g>
	<g>
		<g>
			<path class="st0" d="M256,298.7c58.8,0,106.7-47.9,106.7-106.7S314.8,85.3,256,85.3S149.3,133.2,149.3,192S197.2,298.7,256,298.7
				z M256,106.7c47.1,0,85.3,38.3,85.3,85.3S303,277.3,256,277.3S170.7,239,170.7,192S208.9,106.7,256,106.7z"/>
			<path class="st0" d="M489.8,497.1l-64-149.3c-1.7-3.9-5.5-6.5-9.8-6.5h-37.9l13.1-13C427.8,291.9,448,243.5,448,192
				C448,86.1,361.9,0,256,0S64,86.1,64,192c0,51.5,20.2,99.9,56.8,136.3l13.1,13.1H96c-4.3,0-8.1,2.5-9.8,6.5l-64,149.3
				c-1.4,3.3-1.1,7.1,0.9,10.1s5.3,4.8,8.9,4.8h448c3.6,0,6.9-1.8,8.9-4.8C490.9,504.2,491.2,500.4,489.8,497.1z M85.3,192
				c0-94.1,76.6-170.7,170.7-170.7S426.7,97.9,426.7,192c0,45.8-17.9,88.8-50.5,121.2L256,432.9L135.8,313.1
				C103.3,280.8,85.3,237.8,85.3,192z M48.2,490.7l54.9-128h52.3l93.2,92.9c2.1,2.1,4.8,3.1,7.5,3.1c2.7,0,5.5-1,7.5-3.1l93.2-92.9
				H409l54.9,128H48.2z"/>
		</g>
	</g>
</g>
</svg>
