<?xml version="1.0"?>
<svg xmlns="http://www.w3.org/2000/svg" xmlns:xlink="http://www.w3.org/1999/xlink" xmlns:svgjs="http://svgjs.com/svgjs" version="1.1" width="512" height="512" x="0" y="0" viewBox="0 0 512 512" style="enable-background:new 0 0 512 512" xml:space="preserve" class=""><g><path xmlns="http://www.w3.org/2000/svg" d="m449.275 171.137h-2.606v-12.725c0-11.515-7.051-21.412-17.061-25.607-19.02-72.048-80.973-125.2-155.294-132.765-4.123-.423-7.816 2.585-8.235 6.713-.42 4.128 2.586 7.815 6.713 8.236 66.022 6.721 121.394 52.708 140.588 115.673h-19.542c-17.032-41.041-51.929-73.017-95.215-85.899-13.783-4.103-28.124-6.183-42.623-6.183s-28.84 2.08-42.623 6.182c-43.286 12.882-78.183 44.858-95.215 85.899h-19.542c19.194-62.965 74.566-108.952 140.588-115.673 4.128-.42 7.133-4.107 6.713-8.236-.42-4.128-4.102-7.134-8.235-6.713-74.32 7.565-136.274 60.717-155.294 132.766-10.01 4.195-17.061 14.092-17.061 25.607v12.725h-2.606c-15.302 0-27.752 12.449-27.752 27.751v80.954c0 15.302 12.449 27.751 27.752 27.751h2.606v12.725c0 15.302 12.449 27.751 27.751 27.751h17.361c6.355 28.385 20.91 54.35 42.319 74.878 12.479 11.966 26.714 21.519 42.094 28.433v53.106c0 4.149 3.364 7.513 7.513 7.513s7.513-3.364 7.513-7.513v-47.308c14.724 4.774 30.252 7.259 46.118 7.259s31.394-2.485 46.118-7.259v47.308c0 4.149 3.364 7.513 7.513 7.513s7.513-3.364 7.513-7.513v-53.106c15.38-6.914 29.615-16.468 42.094-28.433 21.409-20.528 35.964-46.493 42.319-74.878h17.361c15.302 0 27.751-12.449 27.751-27.751v-12.725h2.606c15.302 0 27.752-12.449 27.752-27.751v-80.954c0-15.301-12.449-27.751-27.752-27.751zm-67.233-29.377c-3.125-.642-6.36-.98-9.672-.98h-48.142v-22.845c0-12.698-8.576-23.424-20.238-26.709v-28.765c36.233 13.886 64.795 43.001 78.052 79.299zm-179.244-.98v-22.845c0-7.016 5.709-12.725 12.725-12.725h80.954c7.017 0 12.725 5.709 12.725 12.725v22.845zm86.166-83.082v32.486h-65.928v-32.486c10.73-2.71 21.791-4.092 32.964-4.092s22.234 1.382 32.964 4.092zm-226.24 234.869c-7.017 0-12.726-5.708-12.726-12.725v-80.954c0-7.016 5.709-12.725 12.726-12.725h2.606v106.404zm30.358 40.477c-7.017 0-12.725-5.708-12.725-12.725v-161.907c0-7.016 5.709-12.725 12.725-12.725h19.778c-.397 1.352-.775 2.71-1.134 4.077-12.149 8.716-20.086 22.947-20.086 39.006v101.192c0 13.945 5.983 26.515 15.512 35.291.173 2.611.412 5.208.718 7.791zm162.918 116.368c-67.291 0-123.136-49.207-132.704-114.327 5.101 1.852 10.601 2.866 16.334 2.866h44.64c13.663 0 27.344-3.23 39.563-9.34l17.425-8.712c9.231-4.615 20.253-4.616 29.484 0l17.425 8.712c12.219 6.11 25.9 9.34 39.563 9.34 4.149 0 7.513-3.364 7.513-7.513s-3.364-7.513-7.513-7.513c-11.342 0-22.699-2.681-32.843-7.754l-17.425-8.712c-13.438-6.719-29.485-6.719-42.923 0l-17.425 8.712c-10.145 5.072-21.501 7.753-32.844 7.753h-44.64c-18.176 0-32.964-14.787-32.964-32.963v-101.191c0-18.176 14.787-32.963 32.964-32.963h5.663c4.149 0 7.513-3.364 7.513-7.513s-3.364-7.513-7.513-7.513h-5.663c-3.312 0-6.547.338-9.672.98 13.256-36.298 41.819-65.413 78.052-79.299v28.765c-11.662 3.285-20.238 14.011-20.238 26.709v22.845h-7.282c-4.149 0-7.513 3.364-7.513 7.513s3.364 7.513 7.513 7.513h191.88c18.176 0 32.964 14.787 32.964 32.963v101.192c0 18.176-14.787 32.963-32.964 32.963h-9.536c-4.149 0-7.513 3.364-7.513 7.513s3.364 7.513 7.513 7.513h9.536c5.733 0 11.233-1.014 16.334-2.866-9.568 65.12-65.413 114.327-132.704 114.327zm175.643-129.093c0 7.017-5.709 12.725-12.725 12.725h-14.789c.306-2.583.546-5.181.718-7.791 9.529-8.776 15.512-21.346 15.512-35.291v-101.192c0-16.059-7.937-30.29-20.085-39.005-.359-1.367-.737-2.725-1.134-4.077h19.778c7.017 0 12.725 5.709 12.725 12.725zm30.358-40.477c0 7.017-5.709 12.725-12.726 12.725h-2.606v-106.404h2.606c7.017 0 12.726 5.709 12.726 12.725z" fill="#002b53" data-original="#000000" style="" class=""/><path xmlns="http://www.w3.org/2000/svg" d="m281.451 167.09h-50.902c-12.428 0-22.539 10.111-22.539 22.539v.305c0 12.428 10.111 22.539 22.539 22.539h50.902c12.428 0 22.539-10.111 22.539-22.539v-.305c0-12.428-10.111-22.539-22.539-22.539zm7.513 22.844c0 4.143-3.37 7.513-7.513 7.513h-50.902c-4.143 0-7.513-3.37-7.513-7.513v-.305c0-4.143 3.37-7.513 7.513-7.513h50.902c4.143 0 7.513 3.37 7.513 7.513z" fill="#002b53" data-original="#000000" style="" class=""/></g></svg>
